<svg width="48" height="48" viewBox="0 0 48 48" fill="none" xmlns="http://www.w3.org/2000/svg">
<path d="M40.1678 20.748H38.2244C38.2244 16.7316 36.6677 12.8796 33.897 10.0396C31.1262 7.19953 27.3682 5.604 23.4497 5.604C19.5312 5.604 15.7733 7.19953 13.0025 10.0396C10.2317 12.8796 8.67509 16.7316 8.67509 20.748H6.71997C6.83531 16.2802 8.64789 12.0351 11.7717 8.9168C14.8954 5.79855 19.0835 4.05359 23.4439 4.05359C27.8042 4.05359 31.9923 5.79855 35.1161 8.9168C38.2399 12.0351 40.0524 16.2802 40.1678 20.748Z" fill="#0663CC"/>
<path d="M40.1678 20.748H38.2244C38.2244 16.7316 36.6677 12.8796 33.897 10.0396C31.1262 7.19953 27.3682 5.604 23.4497 5.604C19.5312 5.604 15.7733 7.19953 13.0025 10.0396C10.2317 12.8796 8.67509 16.7316 8.67509 20.748H6.71997C6.83531 16.2802 8.64789 12.0351 11.7717 8.9168C14.8954 5.79855 19.0835 4.05359 23.4439 4.05359C27.8042 4.05359 31.9923 5.79855 35.1161 8.9168C38.2399 12.0351 40.0524 16.2802 40.1678 20.748Z" fill="#0970E6"/>
<path d="M32.9093 42.444H28.5073V41.508H32.9093C33.7704 41.4585 34.603 41.1745 35.3213 40.6851C36.0395 40.1957 36.6173 39.5187 36.9951 38.724L37.1122 38.412C37.5333 37.3944 37.9392 36.3703 38.3298 35.34V35.304H39.2312V35.424C38.8966 36.5759 38.4657 37.696 37.9434 38.772L37.8263 39.084C37.3793 40.0471 36.686 40.868 35.8202 41.4596C34.9545 42.0512 33.9485 42.3914 32.9093 42.444Z" fill="#E81E26"/>
<path d="M23.0283 45.108H26.1893C26.6207 45.1096 27.0482 45.0238 27.4473 44.8557C27.8464 44.6875 28.2091 44.4403 28.5148 44.1281C28.8204 43.816 29.0629 43.445 29.2284 43.0366C29.3938 42.6281 29.479 42.1902 29.479 41.748H19.7385C19.7385 42.1902 19.8237 42.6281 19.9892 43.0366C20.1546 43.445 20.3971 43.816 20.7028 44.1281C21.0084 44.4403 21.3712 44.6875 21.7702 44.8557C22.1693 45.0238 22.5968 45.1096 23.0283 45.108Z" fill="#E81E26"/>
<path d="M26.201 38.376H23.0283C22.1589 38.376 21.3251 38.73 20.7104 39.3601C20.0956 39.9902 19.7502 40.8448 19.7502 41.736H29.4673C29.4673 40.8448 29.122 39.9902 28.5072 39.3601C27.8924 38.73 27.0587 38.376 26.1893 38.376H26.201Z" fill="#C20016"/>
<path d="M11.7424 24.228C11.7424 23.0298 11.278 21.8806 10.4514 21.0333C9.62473 20.186 8.50358 19.71 7.33456 19.71C6.16554 19.71 5.0444 20.186 4.21777 21.0333C3.39115 21.8806 2.92676 23.0298 2.92676 24.228V32.628C2.92676 33.8263 3.39115 34.9754 4.21777 35.8227C5.0444 36.67 6.16554 37.146 7.33456 37.146C8.50358 37.146 9.62473 36.67 10.4514 35.8227C11.278 34.9754 11.7424 33.8263 11.7424 32.628V24.228Z" fill="#929292"/>
<path opacity="0.2" d="M8.93262 20.016C9.75725 20.3474 10.4659 20.9249 10.9668 21.6737C11.4677 22.4225 11.7379 23.3081 11.7424 24.216V32.616C11.7428 33.4327 11.5275 34.2343 11.1194 34.9357C10.7113 35.6371 10.1256 36.2122 9.42432 36.6L8.95603 36.816L8.93262 20.016Z" fill="#121212"/>
<path d="M35.1221 32.628C35.1221 33.8263 35.5865 34.9754 36.4131 35.8227C37.2397 36.67 38.3609 37.146 39.5299 37.146C40.6989 37.146 41.82 36.67 42.6467 35.8227C43.4733 34.9754 43.9377 33.8263 43.9377 32.628V24.228C43.9377 23.0298 43.4733 21.8806 42.6467 21.0333C41.82 20.186 40.6989 19.71 39.5299 19.71C38.3609 19.71 37.2397 20.186 36.4131 21.0333C35.5865 21.8806 35.1221 23.0298 35.1221 24.228V32.628Z" fill="#929292"/>
<path d="M37.9318 20.016C37.1072 20.3474 36.3986 20.9249 35.8977 21.6737C35.3967 22.4225 35.1265 23.3081 35.1221 24.216V32.616C35.1216 33.4327 35.3369 34.2343 35.745 34.9357C36.1531 35.6371 36.7389 36.2122 37.4401 36.6L37.9084 36.816L37.9318 20.016Z" fill="#303336"/>
<path d="M32.1951 22.848C32.1951 22.488 32.0546 22.152 31.8088 21.888C31.6887 21.7656 31.5462 21.6686 31.3895 21.6027C31.2328 21.5369 31.0649 21.5033 30.8956 21.504H16.6595C16.2966 21.504 15.9453 21.648 15.6878 21.912C15.4274 22.1798 15.2802 22.5419 15.278 22.92L15.2195 32.424C15.2195 32.784 15.3483 33.132 15.5941 33.384C15.8283 33.648 16.1678 33.792 16.5073 33.792L19.9961 33.84L21.799 36.72C21.8147 36.7769 21.8486 36.8268 21.8954 36.8617C21.9421 36.8965 21.9988 36.9142 22.0566 36.912C22.1134 36.9076 22.1672 36.884 22.2096 36.8449C22.252 36.8059 22.2805 36.7535 22.2907 36.696L22.8995 33.948L30.8605 33.876C31.1999 33.8697 31.5234 33.7276 31.7619 33.48C31.9961 33.24 32.1483 32.88 32.1483 32.532L32.1951 22.848Z" fill="#E6F1FC"/>
<path opacity="0.17" d="M32.2069 31.98C32.21 32.1553 32.179 32.3296 32.1156 32.4925C32.0523 32.6554 31.958 32.8038 31.8381 32.9289C31.7182 33.0541 31.5751 33.1534 31.4174 33.2213C31.2596 33.2891 31.0902 33.324 30.9191 33.324L22.9581 33.396L22.3493 36.144C22.3391 36.2015 22.3106 36.2539 22.2682 36.293C22.2258 36.3321 22.172 36.3556 22.1152 36.36C22.0568 36.3635 21.999 36.3466 21.9513 36.312C21.9051 36.2761 21.8721 36.2254 21.8576 36.168L20.0664 33.288L16.5659 33.24C16.2262 33.235 15.9022 33.0927 15.6644 32.844C15.4236 32.5902 15.2892 32.25 15.2898 31.896V32.52C15.2898 32.88 15.4186 33.216 15.6644 33.48C15.8986 33.732 16.2264 33.876 16.5776 33.888L20.0664 33.936L21.8576 36.816C21.8754 36.8707 21.9103 36.918 21.9568 36.9505C22.0033 36.983 22.0589 36.999 22.1152 36.996C22.172 36.9916 22.2258 36.9681 22.2682 36.929C22.3106 36.8899 22.3391 36.8375 22.3493 36.78L22.9581 34.044L30.9191 33.972C31.2626 33.9689 31.5909 33.8265 31.8322 33.576C32.0664 33.324 32.2186 32.976 32.2186 32.616" fill="#1884EF"/>
<path fill-rule="evenodd" clip-rule="evenodd" d="M21.0382 23.58C21.0459 23.5722 21.055 23.5661 21.0651 23.562C21.0751 23.5579 21.0859 23.5558 21.0967 23.556C21.1318 23.556 21.1435 23.58 21.1435 23.616C21.1445 23.6421 21.1362 23.6677 21.1201 23.688C20.2992 24.8081 19.8629 26.1751 19.8791 27.576C19.8791 29.244 20.406 30.408 21.1201 31.44C21.1337 31.4571 21.1419 31.478 21.1435 31.5C21.1435 31.536 21.1318 31.572 21.0967 31.572C21.085 31.5706 21.0737 31.5667 21.0636 31.5605C21.0535 31.5543 21.0448 31.5459 21.0382 31.536L17.9708 28.14C17.8372 28.0139 17.7519 27.843 17.7304 27.6582C17.709 27.4733 17.7527 27.2867 17.8538 27.132C17.8862 27.0787 17.9256 27.0302 17.9708 26.988L21.0382 23.592" fill="#D0021B"/>
<mask id="mask0_691_679" style="mask-type:luminance" maskUnits="userSpaceOnUse" x="21" y="23" width="9" height="10">
<path fill-rule="evenodd" clip-rule="evenodd" d="M21.635 23.556H29.4555V32.076H21.635V23.556Z" fill="white"/>
</mask>
<g mask="url(#mask0_691_679)">
<path fill-rule="evenodd" clip-rule="evenodd" d="M23.4496 23.556C22.1384 23.556 21.635 25.5 21.635 27.828C21.635 30.144 22.1384 32.076 23.4496 32.076C24.2223 32.076 24.8896 31.596 24.9014 31.188C24.899 31.1419 24.8873 31.0968 24.8672 31.0555C24.8471 31.0142 24.8188 30.9776 24.7843 30.948C24.6351 30.8108 24.5139 30.6448 24.4275 30.4595C24.3411 30.2742 24.2913 30.0732 24.2809 29.868C24.2809 29.22 24.796 28.752 25.276 28.752C25.9433 28.752 26.3296 29.304 26.3296 30.012C26.312 30.6173 26.1161 31.203 25.7677 31.692C25.7541 31.7091 25.7459 31.73 25.7443 31.752C25.744 31.7661 25.7485 31.7798 25.7571 31.7907C25.7656 31.8017 25.7777 31.8092 25.7911 31.812C25.8038 31.8131 25.8166 31.8116 25.8286 31.8074C25.8407 31.8033 25.8518 31.7967 25.8614 31.788L29.1862 28.392C29.2714 28.3235 29.3403 28.2361 29.3877 28.1363C29.4351 28.0365 29.4597 27.927 29.4597 27.816C29.4597 27.7051 29.4351 27.5955 29.3877 27.4957C29.3403 27.396 29.2714 27.3085 29.1862 27.24L25.8614 23.844C25.8529 23.8332 25.8422 23.8243 25.8301 23.8181C25.818 23.8119 25.8047 23.8085 25.7911 23.808C25.7677 23.808 25.7443 23.832 25.7443 23.868C25.7443 23.892 25.7443 23.916 25.7677 23.928C26.0604 24.384 26.3296 24.936 26.3296 25.608C26.3296 26.328 25.9433 26.88 25.276 26.88C24.8077 26.88 24.2809 26.4 24.2809 25.764C24.2809 25.44 24.4214 25.056 24.796 24.684C24.8561 24.6193 24.8896 24.5334 24.8896 24.444C24.8896 24.036 24.234 23.556 23.4496 23.556Z" fill="#00529C"/>
</g>
</svg>
