<svg width="48" height="48" viewBox="0 0 48 48" fill="none" xmlns="http://www.w3.org/2000/svg">
<g clip-path="url(#clip0_691_1471)">
<mask id="mask0_691_1471" style="mask-type:luminance" maskUnits="userSpaceOnUse" x="0" y="0" width="48" height="48">
<path d="M0.197266 0.173889H47.5397V47.6243H0.197266V0.173889Z" fill="white"/>
</mask>
<g mask="url(#mask0_691_1471)">
<path d="M20.2982 47.6243C19.5372 47.6288 18.8 47.344 18.2207 46.8218C17.6414 46.2997 17.2587 45.5747 17.1421 44.7791L11.0928 6.83127C11.0282 6.3932 11.0459 5.94596 11.1448 5.51512C11.2437 5.08429 11.4219 4.6783 11.6693 4.32038C11.9166 3.96246 12.2282 3.65962 12.5862 3.42917C12.9442 3.19873 13.3416 3.0452 13.7558 2.97736L30.2467 0.208662C30.412 0.18104 30.5791 0.167084 30.7464 0.166923C31.5075 0.16242 32.2447 0.447187 32.824 0.969385C33.4033 1.49158 33.786 2.21649 33.9026 3.01214L39.9519 40.96C40.0181 41.3982 40.001 41.8461 39.9016 42.2773C39.8023 42.7084 39.6227 43.1144 39.3733 43.4713C39.1276 43.831 38.8168 44.1355 38.459 44.3671C38.1012 44.5988 37.7035 44.753 37.2889 44.8208L20.798 47.5826C20.6305 47.6106 20.4612 47.6245 20.2917 47.6243H20.2982Z" fill="black"/>
<path d="M37.3086 43.8052L20.4889 46.6226C20.219 46.6682 19.9432 46.657 19.6774 46.5897C19.4117 46.5224 19.161 46.4002 18.9399 46.2303C18.7188 46.0603 18.5316 45.8459 18.3889 45.5993C18.2463 45.3526 18.151 45.0787 18.1086 44.793L12.0132 6.50433C11.9702 6.21921 11.9808 5.9279 12.0445 5.64715C12.1082 5.36639 12.2238 5.10173 12.3845 4.86836C12.5452 4.63499 12.7479 4.43752 12.9809 4.2873C13.214 4.13708 13.4728 4.03707 13.7425 3.99303L30.5623 1.18259C31.1064 1.09038 31.6628 1.23059 32.1092 1.57239C32.5556 1.91419 32.8553 2.42958 32.9425 3.0052L39.0379 41.2939C39.0809 41.579 39.0703 41.8703 39.0066 42.1511C38.9429 42.4318 38.8274 42.6965 38.6667 42.9299C38.506 43.1632 38.3033 43.3607 38.0702 43.5109C37.8371 43.6611 37.5783 43.7612 37.3086 43.8052Z" fill="white"/>
<path d="M32.9688 3.17217C32.9224 2.86509 32.8192 2.5707 32.6652 2.30585C32.5112 2.041 32.3093 1.81089 32.0711 1.62868C31.8329 1.44647 31.5631 1.31574 31.2771 1.24397C30.9911 1.1722 30.6946 1.1608 30.4044 1.21043L13.8937 3.96521C13.6029 4.01345 13.3239 4.122 13.0728 4.28461C12.8217 4.44721 12.6035 4.66069 12.4306 4.91277C12.2577 5.16485 12.1336 5.45057 12.0653 5.75355C11.9971 6.05652 11.986 6.37077 12.0329 6.67825L12.2893 8.37564L33.2252 4.86956L32.9622 3.16521L32.9688 3.17217ZM18.1019 44.7026C18.1475 45.0103 18.2501 45.3054 18.4038 45.5711C18.5575 45.8367 18.7593 46.0676 18.9976 46.2505C19.2358 46.4335 19.5059 46.5648 19.7923 46.637C20.0786 46.7092 20.3757 46.7209 20.6663 46.6713L37.1704 43.9096C37.4606 43.8613 37.739 43.753 37.9896 43.5908C38.2402 43.4286 38.4581 43.2158 38.6309 42.9645C38.8037 42.7132 38.928 42.4283 38.9967 42.1261C39.0654 41.824 39.0771 41.5104 39.0312 41.2035L38.7682 39.5061L17.8455 43.0052L18.1019 44.7026Z" fill="#D2D2D2"/>
<path d="M28.5108 44.6052C28.8387 44.6052 29.1531 44.4674 29.3849 44.2221C29.6167 43.9769 29.747 43.6442 29.747 43.2973C29.7452 42.9517 29.6142 42.6208 29.3826 42.3771C29.151 42.1333 28.8375 41.9965 28.5108 41.9965C28.3485 41.9956 28.1876 42.0285 28.0372 42.0934C27.8869 42.1582 27.7502 42.2538 27.6348 42.3746C27.5194 42.4954 27.4276 42.6391 27.3647 42.7974C27.3018 42.9557 27.2689 43.1256 27.2681 43.2973C27.2681 43.4697 27.3003 43.6403 27.3628 43.7994C27.4253 43.9586 27.517 44.1031 27.6325 44.2246C27.7479 44.3461 27.885 44.4423 28.0357 44.5076C28.1865 44.5729 28.3479 44.6061 28.5108 44.6052Z" fill="white"/>
<path d="M8.91611 29.2034L9.22515 30.2956C9.32775 30.6631 9.51568 30.9976 9.7718 31.2686C10.0279 31.5395 10.3441 31.7384 10.6914 31.8469L11.7304 32.1669C12.0854 32.2782 12.0854 32.8139 11.7304 32.9321L10.6914 33.2521C10.3448 33.36 10.0292 33.5578 9.77311 33.8275C9.51705 34.0972 9.3287 34.4303 9.22515 34.7965L8.91611 35.8886C8.89261 35.9698 8.84511 36.0408 8.7806 36.0913C8.71609 36.1418 8.63798 36.169 8.55775 36.169C8.47752 36.169 8.39941 36.1418 8.3349 36.0913C8.27039 36.0408 8.22289 35.9698 8.19939 35.8886L7.89035 34.7965C7.78741 34.431 7.60006 34.0985 7.3452 33.8289C7.09035 33.5593 6.77603 33.361 6.43063 33.2521L5.39172 32.9252C5.31501 32.9003 5.24786 32.8501 5.20016 32.7818C5.15245 32.7136 5.12671 32.6309 5.12671 32.546C5.12671 32.4612 5.15245 32.3785 5.20016 32.3103C5.24786 32.242 5.31501 32.1918 5.39172 32.1669L6.43063 31.84C6.77603 31.731 7.09035 31.5328 7.3452 31.2632C7.60006 30.9936 7.78741 30.661 7.89035 30.2956L8.19939 29.2034C8.3046 28.8278 8.8109 28.8278 8.92268 29.2034H8.91611ZM42.4832 30.9286L42.6805 31.6243C42.7459 31.8545 42.8642 32.0639 43.0248 32.2339C43.1855 32.4039 43.3835 32.529 43.601 32.5982L44.2586 32.8069C44.4821 32.8765 44.4821 33.2104 44.2586 33.28L43.601 33.4886C43.3835 33.5578 43.1855 33.683 43.0248 33.853C42.8642 34.0229 42.7459 34.2324 42.6805 34.4626L42.4832 35.1513C42.471 35.2042 42.4423 35.2513 42.4018 35.285C42.3612 35.3186 42.3112 35.3369 42.2597 35.3369C42.2081 35.3369 42.1581 35.3186 42.1176 35.285C42.077 35.2513 42.0483 35.2042 42.0361 35.1513L41.8388 34.4556C41.774 34.2251 41.6559 34.0154 41.4951 33.8453C41.3344 33.6753 41.1361 33.5503 40.9183 33.4817L40.2608 33.28C40.2119 33.2645 40.1691 33.2329 40.1386 33.1896C40.1081 33.1464 40.0917 33.0939 40.0917 33.04C40.0917 32.986 40.1081 32.9335 40.1386 32.8903C40.1691 32.847 40.2119 32.8154 40.2608 32.8L40.9183 32.5913C41.3588 32.4521 41.7073 32.0904 41.8388 31.6173L42.0361 30.9286C42.1019 30.6921 42.4175 30.6921 42.4832 30.9286Z" fill="#D2D2D2"/>
<path d="M40.2544 19.0469L38.7618 23.1304C38.678 23.3583 38.6375 23.6015 38.6428 23.8459C38.648 24.0904 38.6988 24.3313 38.7923 24.5549C38.8858 24.7786 39.0201 24.9805 39.1875 25.1491C39.3549 25.3177 39.5521 25.4496 39.7678 25.5374L43.6341 27.1165C43.8499 27.2053 44.0802 27.2482 44.3118 27.2427C44.5433 27.2372 44.7715 27.1835 44.9834 27.0847C45.1953 26.9858 45.3868 26.8438 45.5467 26.6666C45.7067 26.4894 45.8321 26.2806 45.9157 26.0522L47.4149 21.9687C47.4985 21.7404 47.5386 21.4968 47.533 21.252C47.5273 21.0073 47.4759 20.7661 47.3818 20.5424C47.2877 20.3187 47.1527 20.1169 46.9846 19.9486C46.8165 19.7803 46.6186 19.6488 46.4023 19.5617L42.536 17.9826C42.3201 17.8938 42.0899 17.851 41.8583 17.8564C41.6268 17.8619 41.3986 17.9156 41.1867 18.0144C40.9747 18.1133 40.7833 18.2553 40.6234 18.4325C40.4634 18.6097 40.338 18.8185 40.2544 19.0469Z" fill="#00A881"/>
<path fill-rule="evenodd" clip-rule="evenodd" d="M44.949 22.1078L45.5145 22.3721L45.6263 22.1008L45.0608 21.8365L45.3172 21.2313L45.0542 21.1061L44.7912 21.7113L44.2257 21.4469L44.1139 21.7182L44.686 21.9826L44.4296 22.5878L44.6926 22.713L44.949 22.1078ZM43.7391 21.6L42.6213 21.0782C42.6089 21.0715 42.5956 21.0668 42.5819 21.0643L42.6279 20.6748C42.6321 20.6445 42.6296 20.6136 42.6204 20.5846C42.6113 20.5556 42.5958 20.5293 42.5753 20.5078L41.9967 19.9165C41.9795 19.898 41.9591 19.8833 41.9365 19.8732C41.9139 19.8632 41.8897 19.858 41.8652 19.858C41.8407 19.858 41.8164 19.8632 41.7939 19.8732C41.7713 19.8833 41.7508 19.898 41.7337 19.9165C41.7168 19.9345 41.7035 19.9559 41.6947 19.9795C41.6858 20.0031 41.6816 20.0283 41.6822 20.0536C41.6828 20.079 41.6883 20.1039 41.6982 20.127C41.7082 20.1501 41.7225 20.1707 41.7402 20.1878L42.2531 20.7165L41.9901 22.9495C41.9836 22.9917 41.9903 23.035 42.0093 23.0727C42.0284 23.1104 42.0586 23.1405 42.0953 23.1582L43.9824 24.0348C44.0201 24.0537 44.0628 24.0584 44.1034 24.0483C44.144 24.0382 44.1802 24.0138 44.206 23.9791L44.7715 23.193L44.423 23.0261L43.9956 23.6243L43.5813 23.4295L43.9956 22.7826C43.9234 22.7165 43.8613 22.6391 43.8115 22.553L43.3249 23.3113L43.0619 23.1861L43.3775 21.8504L43.6602 21.9895C43.6668 21.8574 43.6931 21.7321 43.7457 21.6069L43.7391 21.6ZM42.5359 21.4608L43.1211 21.7252L42.7989 23.0678L42.3715 22.8591L42.5359 21.4539V21.4608ZM41.8126 23.8608C41.8539 23.7698 41.9271 23.6993 42.0167 23.6643C42.1062 23.6292 42.2052 23.6324 42.2926 23.673C42.3822 23.713 42.4532 23.7888 42.4901 23.8839C42.5271 23.9791 42.527 24.0858 42.4898 24.1808C42.4484 24.2736 42.3741 24.3454 42.283 24.3806C42.1919 24.4157 42.0914 24.4115 42.0033 24.3687C41.9137 24.3287 41.8427 24.2529 41.8057 24.1578C41.7687 24.0626 41.7688 23.9559 41.806 23.8608H41.8126ZM43.5156 24.2435C43.4716 24.2212 43.4239 24.2084 43.3752 24.2058C43.3265 24.2032 43.2778 24.2108 43.2319 24.2283C43.186 24.2458 43.1439 24.2727 43.1079 24.3076C43.072 24.3424 43.0429 24.3845 43.0224 24.4313C42.9853 24.5263 42.9852 24.6331 43.0221 24.7282C43.0591 24.8233 43.1301 24.8992 43.2197 24.9391C43.4038 25.0226 43.6274 24.9391 43.7063 24.7443C43.7434 24.6493 43.7435 24.5425 43.7066 24.4474C43.6696 24.3523 43.5986 24.2764 43.509 24.2365L43.5156 24.2435Z" fill="white"/>
<path fill-rule="evenodd" clip-rule="evenodd" d="M5.44444 22.5043C5.58972 22.5127 5.7351 22.49 5.87183 22.4374C6.00856 22.3847 6.13382 22.3034 6.24006 22.1983H6.24664L12.0001 16.4243C12.4406 15.9861 12.4472 15.2556 12.0264 14.7826L8.33102 10.6783C8.1338 10.4611 7.86571 10.3317 7.58143 10.3165C7.27896 10.2956 6.9765 10.4069 6.77924 10.6226L1.01924 16.3965C0.810129 16.6106 0.689904 16.9038 0.684972 17.2116C0.680041 17.5195 0.790806 17.8168 0.992937 18.0383L4.68828 22.1426C4.88554 22.3583 5.14855 22.4904 5.43787 22.5113L5.44444 22.5043Z" fill="#89D1FF"/>
<path fill-rule="evenodd" clip-rule="evenodd" d="M5.18147 14.9774C4.7475 15.4157 5.16175 16.2296 5.85873 16.9948C6.54915 17.767 7.29216 18.24 7.72613 17.8017C7.98915 17.5443 8.0549 17.1617 7.94312 17.0296C7.92965 17.0143 7.91337 17.0021 7.89528 16.9937C7.87718 16.9853 7.85766 16.981 7.83791 16.9809C7.6012 16.9809 7.44339 16.9043 7.33819 16.793C7.25594 16.6981 7.21031 16.574 7.21031 16.4452C7.21031 16.3164 7.25594 16.1923 7.33819 16.0974C7.56175 15.8748 7.85764 15.9235 8.06147 16.16C8.26531 16.3826 8.34421 16.6609 8.38367 16.9043C8.38367 16.9183 8.38367 16.9252 8.39682 16.9322C8.40339 16.9461 8.42312 16.9461 8.42969 16.9322L8.44284 16.9043L8.52832 14.6783C8.54147 14.567 8.52832 14.4696 8.44942 14.393C8.41506 14.3569 8.37385 14.329 8.32851 14.311C8.28317 14.293 8.23473 14.2854 8.18641 14.2887L6.06915 14.2748L6.03627 14.2817V14.3165L6.06257 14.3304C6.29271 14.3861 6.55572 14.4765 6.75298 14.7061C6.96339 14.9356 7.00284 15.2556 6.77928 15.4713C6.68549 15.5537 6.56588 15.5959 6.44411 15.5894C6.32234 15.583 6.2073 15.5284 6.12175 15.4365C6.01654 15.3252 5.95079 15.1583 5.96394 14.9078C5.96523 14.8863 5.9624 14.8648 5.95562 14.8444C5.94884 14.8241 5.93825 14.8054 5.92449 14.7896C5.80613 14.6643 5.43791 14.72 5.18147 14.9843V14.9774ZM4.41873 15.9304C4.41873 15.9165 4.41873 15.9026 4.43188 15.8957H4.47134L4.47791 15.9374C4.52394 16.5356 4.6949 17.12 5.18805 17.6765C5.6153 18.1586 6.19629 18.456 6.81873 18.5113C6.83189 18.5252 6.83189 18.5391 6.81873 18.553L6.79243 18.56L4.67517 18.5461C4.62669 18.5514 4.57772 18.5447 4.53209 18.5266C4.48646 18.5085 4.44541 18.4794 4.41216 18.4417C4.37963 18.4049 4.35558 18.3607 4.34189 18.3124C4.3282 18.2641 4.32525 18.2132 4.33326 18.1635L4.41873 15.9374V15.9304Z" fill="white"/>
<path d="M21.2385 12.7583C21.0815 12.7712 20.9262 12.7176 20.8065 12.6093C20.6869 12.501 20.6129 12.3469 20.6007 12.1809C20.5885 12.0148 20.6391 11.8504 20.7414 11.7239C20.8438 11.5973 20.9895 11.519 21.1464 11.5061L30.8977 9.81565C30.9745 9.8017 31.0533 9.80397 31.1293 9.82233C31.2053 9.84068 31.2772 9.87476 31.3407 9.9226C31.4043 9.97044 31.4583 10.0311 31.4996 10.1011C31.5409 10.1711 31.5687 10.249 31.5815 10.3304C31.5946 10.4123 31.5922 10.496 31.5745 10.5769C31.5567 10.6577 31.5239 10.734 31.478 10.8014C31.4321 10.8687 31.3741 10.9257 31.3072 10.969C31.2403 11.0124 31.1659 11.0412 31.0883 11.0539L21.3371 12.7513L21.2385 12.7583ZM22.159 18.4904C22.0021 18.5033 21.8467 18.4498 21.7271 18.3415C21.6075 18.2332 21.5334 18.0791 21.5212 17.913C21.509 17.747 21.5596 17.5826 21.662 17.4561C21.7643 17.3295 21.91 17.2512 22.067 17.2383L31.8182 15.5409C31.8956 15.527 31.9747 15.5295 32.0512 15.5483C32.1276 15.5671 32.1997 15.6018 32.2633 15.6503C32.327 15.6989 32.3808 15.7603 32.4218 15.8311C32.4628 15.9019 32.4901 15.9806 32.502 16.0626C32.5142 16.1439 32.5111 16.227 32.4929 16.307C32.4747 16.3871 32.4417 16.4625 32.3959 16.5291C32.3501 16.5956 32.2924 16.652 32.2259 16.6949C32.1595 16.7378 32.0858 16.7664 32.0089 16.7791L22.2577 18.4765L22.159 18.4904ZM23.0598 24.7513C22.9029 24.7651 22.7472 24.7124 22.6269 24.6048C22.5067 24.4972 22.4318 24.3434 22.4187 24.1774C22.4057 24.0113 22.4555 23.8466 22.5572 23.7194C22.6589 23.5922 22.8043 23.513 22.9612 23.4991L32.7124 21.8017C32.7893 21.7878 32.868 21.7901 32.9441 21.8084C33.0201 21.8268 33.092 21.8608 33.1555 21.9087C33.2191 21.9565 33.2731 22.0172 33.3144 22.0872C33.3557 22.1572 33.3835 22.2351 33.3963 22.3165C33.4095 22.3978 33.4073 22.4811 33.39 22.5616C33.3726 22.642 33.3404 22.7181 33.2952 22.7853C33.25 22.8525 33.1926 22.9096 33.1265 22.9534C33.0603 22.9971 32.9867 23.0265 32.9097 23.04L23.1585 24.7374L23.0598 24.7443V24.7513ZM23.9672 30.713C23.8103 30.726 23.6549 30.6724 23.5353 30.5641C23.4157 30.4558 23.3416 30.3017 23.3294 30.1356C23.3172 29.9696 23.3679 29.8052 23.4702 29.6787C23.5726 29.5521 23.7182 29.4738 23.8752 29.4609L33.6264 27.7704C33.7033 27.7565 33.782 27.7588 33.8581 27.7771C33.9341 27.7955 34.006 27.8295 34.0695 27.8774C34.1331 27.9252 34.1871 27.9859 34.2284 28.0559C34.2697 28.1259 34.2975 28.2038 34.3103 28.2852C34.3234 28.367 34.321 28.4508 34.3032 28.5317C34.2855 28.6125 34.2527 28.6888 34.2068 28.7561C34.1609 28.8235 34.1028 28.8805 34.0359 28.9238C33.969 28.9672 33.8946 28.996 33.8171 29.0087L24.0659 30.7061L23.9672 30.713ZM24.7168 36.9183C24.5665 36.9213 24.4207 36.8637 24.3091 36.7572C24.1974 36.6506 24.1283 36.5031 24.1157 36.3446C24.1032 36.186 24.1481 36.0284 24.2414 35.9037C24.3348 35.779 24.4695 35.6965 24.6182 35.673L34.3694 33.9756C34.4463 33.9617 34.525 33.964 34.6011 33.9823C34.6771 34.0007 34.749 34.0348 34.8125 34.0826C34.8761 34.1304 34.9301 34.1911 34.9714 34.2611C35.0127 34.3311 35.0405 34.409 35.0533 34.4904C35.0665 34.5718 35.0643 34.655 35.047 34.7355C35.0296 34.8159 34.9974 34.892 34.9522 34.9592C34.907 35.0264 34.8496 35.0836 34.7835 35.1273C34.7173 35.171 34.6436 35.2004 34.5667 35.2139L24.8089 36.9113L24.7168 36.9183Z" fill="#D2D2D2"/>
<path d="M42.7989 8.93212L42.4504 8.20168C42.4118 8.12271 42.3951 8.03383 42.4021 7.94524C42.409 7.85666 42.4395 7.77194 42.4899 7.70081L42.9238 7.03994C43.0751 6.84516 43.0488 6.57385 42.8581 6.39994L42.286 5.84342C42.2255 5.78139 42.1806 5.70438 42.1554 5.61934C42.1301 5.53431 42.1253 5.44396 42.1414 5.35646L42.3058 4.57733C42.3351 4.4583 42.3226 4.33203 42.2706 4.222C42.2186 4.11196 42.1306 4.02564 42.023 3.97907L41.2997 3.66603C41.2188 3.63737 41.1473 3.5848 41.0937 3.51453C41.0401 3.44427 41.0067 3.35925 40.9973 3.26951L40.8723 2.46951C40.8538 2.35026 40.7962 2.2417 40.7097 2.16285C40.6231 2.084 40.5131 2.03987 40.3989 2.0382L39.6099 2.01038C39.5259 2.0046 39.4444 1.97757 39.3723 1.93157C39.3002 1.88557 39.2396 1.82194 39.1956 1.74603L38.7945 1.02951C38.7377 0.922937 38.6474 0.840864 38.5392 0.797631C38.431 0.754398 38.3119 0.752754 38.2027 0.792985L37.4992 1.11299C37.4195 1.14193 37.3342 1.14882 37.2513 1.13299C37.1685 1.11716 37.0908 1.07914 37.0258 1.02255L36.4274 0.493855C36.3365 0.417452 36.2235 0.376447 36.1073 0.377714C35.9912 0.378981 35.879 0.422442 35.7896 0.500811L35.1978 1.04342C35.1321 1.10121 35.0533 1.13993 34.9691 1.15578C34.885 1.17164 34.7984 1.16408 34.7178 1.13385L33.9682 0.855594C33.8586 0.811393 33.7374 0.811827 33.628 0.856812C33.5187 0.901797 33.429 0.988129 33.3764 1.09907L33.0214 1.81559C32.9793 1.89275 32.919 1.95703 32.8464 2.00215C32.7738 2.04726 32.6913 2.07167 32.6071 2.07299L31.8378 2.12168C31.6011 2.12168 31.3907 2.30951 31.3775 2.55299L31.2921 3.3669C31.2785 3.45397 31.245 3.53623 31.1946 3.60654C31.1442 3.67685 31.0783 3.73308 31.0027 3.77038L30.2795 4.09038C30.0822 4.18777 29.9507 4.44516 30.0164 4.68168L30.2466 5.47472C30.3058 5.63472 30.2466 5.83646 30.1282 5.96168L29.5825 6.5182C29.501 6.60441 29.4521 6.7191 29.4448 6.84076C29.4375 6.96242 29.4725 7.0827 29.543 7.17907L30.0033 7.83299C30.0953 7.97907 30.1348 8.1669 30.0493 8.34081L29.7403 9.08516C29.6999 9.19758 29.6975 9.3213 29.7335 9.43539C29.7694 9.54948 29.8415 9.64693 29.9375 9.71125L30.6082 10.1634C30.7529 10.2678 30.8515 10.4417 30.8384 10.6156L30.8055 11.4295C30.8047 11.5504 30.8436 11.6678 30.9156 11.7617C30.9875 11.8556 31.0881 11.9201 31.2 11.9443L31.9627 12.1043C32.0471 12.1212 32.1258 12.1608 32.1915 12.2193C32.2571 12.2778 32.3074 12.3532 32.3375 12.4382L32.5874 13.2034C32.6597 13.4399 32.8899 13.5999 33.1397 13.5512L33.8959 13.3912C34.0734 13.3634 34.2641 13.426 34.3627 13.5721L34.869 14.2121C35.0269 14.4069 35.2899 14.4556 35.4937 14.3373L36.1381 13.9199C36.2696 13.8156 36.4669 13.8365 36.6181 13.9199L37.3151 14.3234C37.4161 14.3853 37.5347 14.4067 37.6494 14.3837C37.7641 14.3607 37.8671 14.2949 37.9397 14.1982L38.4197 13.5582C38.5184 13.4121 38.6959 13.3565 38.8669 13.3704L39.6559 13.4886C39.886 13.5095 40.1162 13.3704 40.1819 13.1269L40.4055 12.3756C40.4647 12.2226 40.583 12.0765 40.7606 12.0486L41.5167 11.8678C41.7403 11.7982 41.9112 11.5895 41.8849 11.3321L41.806 10.5252C41.801 10.436 41.8177 10.3469 41.8546 10.2665C41.8914 10.1861 41.9471 10.1171 42.0164 10.066L42.6608 9.6069C42.7589 9.53251 42.8269 9.42176 42.8513 9.29671C42.8757 9.17166 42.8546 9.04149 42.7923 8.93212H42.7989Z" fill="#E71E26"/>
<path opacity="0.67" d="M37.5057 1.11301C37.4251 1.14323 37.3385 1.15079 37.2544 1.13494C37.1703 1.11908 37.0914 1.08036 37.0257 1.02257L36.4339 0.486921C36.3417 0.409698 36.227 0.36885 36.1094 0.371388C35.9918 0.373927 35.8787 0.419695 35.7895 0.500834L35.2043 1.03649C35.1379 1.0955 35.058 1.13493 34.9725 1.15081C34.8871 1.16669 34.7992 1.15845 34.7178 1.12692L33.9682 0.855616C33.8594 0.813382 33.7397 0.81484 33.6318 0.859715C33.524 0.904589 33.4354 0.989762 33.383 1.09909L33.0279 1.81562C32.9858 1.89277 32.9255 1.95705 32.8529 2.00217C32.7803 2.04729 32.6978 2.07169 32.6136 2.07301L31.8443 2.11475C31.601 2.11475 31.3906 2.30257 31.3775 2.55301L31.2986 3.36692C31.285 3.454 31.2516 3.53625 31.2011 3.60656C31.1507 3.67687 31.0849 3.73311 31.0093 3.7704L30.286 4.08344C30.1825 4.13237 30.099 4.21895 30.0508 4.32746C30.0025 4.43597 29.9926 4.5592 30.023 4.67475L30.2531 5.46779C30.2771 5.55267 30.2788 5.64287 30.2579 5.72868C30.2371 5.81449 30.1945 5.89265 30.1347 5.95475L29.589 6.52518C29.5083 6.61012 29.4592 6.72297 29.4508 6.84306C29.4423 6.96316 29.475 7.08245 29.543 7.17909L30.0032 7.83301C30.1019 7.97909 30.1347 8.15996 30.0558 8.34083L29.7468 9.08518C29.7064 9.19761 29.704 9.32133 29.74 9.43541C29.7759 9.5495 29.848 9.64695 29.9441 9.71127L30.6082 10.1634C30.7528 10.2678 30.8515 10.4347 30.8449 10.6156L30.812 11.4295C30.8112 11.5504 30.8501 11.6678 30.9221 11.7617C30.994 11.8556 31.0946 11.9201 31.2065 11.9443L31.9693 12.1043C32.0517 12.1217 32.1286 12.1607 32.193 12.2179C32.2573 12.275 32.307 12.3484 32.3375 12.4313L32.5939 13.2034C32.6662 13.44 32.8964 13.6 33.1397 13.5513L33.8958 13.3913C34.0734 13.3634 34.2706 13.4261 34.3693 13.5721L34.9873 14.3443C35.0399 14.4139 35.1452 14.3861 35.1649 14.2956L37.5057 1.11301Z" fill="url(#paint0_linear_691_1471)"/>
<path d="M33.679 10.4556C33.6421 10.4553 33.6056 10.4471 33.5718 10.4316C33.5379 10.416 33.5073 10.3935 33.4818 10.3652C33.4562 10.3381 33.4359 10.3059 33.4224 10.2704C33.4088 10.2349 33.4021 10.1968 33.4027 10.1585C33.4033 10.1202 33.4112 10.0824 33.4259 10.0474C33.4406 10.0124 33.4619 9.9809 33.4884 9.95477L38.5974 4.75824C38.6497 4.70566 38.7196 4.67722 38.7918 4.67918C38.8639 4.68113 38.9324 4.71333 38.9821 4.76868C39.0318 4.82403 39.0586 4.898 39.0568 4.97432C39.0549 5.05064 39.0245 5.12305 38.9722 5.17563L33.8697 10.3722C33.8188 10.425 33.7504 10.4549 33.679 10.4556ZM34.4221 7.33911C34.0279 7.33911 33.65 7.17347 33.3713 6.87863C33.0926 6.58379 32.936 6.18391 32.936 5.76694C32.9378 5.35118 33.0951 4.95307 33.3736 4.65974C33.6521 4.3664 34.0291 4.20172 34.4221 4.20172C34.815 4.20172 35.192 4.3664 35.4705 4.65974C35.749 4.95307 35.9064 5.35118 35.9081 5.76694C35.9081 5.9734 35.8697 6.17784 35.795 6.36858C35.7203 6.55933 35.6108 6.73264 35.4728 6.87863C35.3349 7.02462 35.171 7.14043 34.9907 7.21944C34.8104 7.29845 34.6172 7.33911 34.4221 7.33911ZM34.4221 4.77911C33.9026 4.77911 33.4818 5.22433 33.4818 5.7739C33.4818 6.03773 33.5809 6.29075 33.7572 6.47731C33.9335 6.66387 34.1727 6.76868 34.4221 6.76868C34.6714 6.76868 34.9106 6.66387 35.0869 6.47731C35.2633 6.29075 35.3623 6.03773 35.3623 5.7739C35.3623 5.51006 35.2633 5.25704 35.0869 5.07048C34.9106 4.88392 34.6714 4.77911 34.4221 4.77911ZM37.8938 11.1791C37.4997 11.1791 37.1217 11.0135 36.8431 10.7186C36.5644 10.4238 36.4078 10.0239 36.4078 9.60694C36.4078 9.18997 36.5644 8.79008 36.8431 8.49524C37.1217 8.2004 37.4997 8.03476 37.8938 8.03476C38.288 8.03476 38.6659 8.2004 38.9446 8.49524C39.2233 8.79008 39.3799 9.18997 39.3799 9.60694C39.3781 10.0227 39.2208 10.4208 38.9423 10.7141C38.6638 11.0075 38.2868 11.1722 37.8938 11.1722V11.1791ZM37.8938 8.61216C37.3744 8.61216 36.9536 9.05737 36.9536 9.60694C36.9536 9.87077 37.0526 10.1238 37.229 10.3104C37.4053 10.4969 37.6445 10.6017 37.8938 10.6017C38.1432 10.6017 38.3824 10.4969 38.5587 10.3104C38.7351 10.1238 38.8341 9.87077 38.8341 9.60694C38.8341 9.34311 38.7351 9.09008 38.5587 8.90352C38.3824 8.71696 38.1432 8.61216 37.8938 8.61216Z" fill="white"/>
<path d="M19.884 31.84C20.1979 31.84 20.4989 31.7081 20.7209 31.4732C20.9429 31.2384 21.0676 30.9199 21.0676 30.5878C21.0676 30.2557 20.9429 29.9372 20.7209 29.7024C20.4989 29.4676 20.1979 29.3356 19.884 29.3356C19.5701 29.3356 19.2691 29.4676 19.0471 29.7024C18.8251 29.9372 18.7004 30.2557 18.7004 30.5878C18.7004 30.9199 18.8251 31.2384 19.0471 31.4732C19.2691 31.7081 19.5701 31.84 19.884 31.84ZM20.89 38.0452C21.2039 38.0452 21.505 37.9133 21.7269 37.6784C21.9489 37.4436 22.0736 37.1251 22.0736 36.793C22.0736 36.4609 21.9489 36.1424 21.7269 35.9076C21.505 35.6728 21.2039 35.5409 20.89 35.5409C20.5761 35.5409 20.2751 35.6728 20.0531 35.9076C19.8312 36.1424 19.7065 36.4609 19.7065 36.793C19.7065 37.1251 19.8312 37.4436 20.0531 37.6784C20.2751 37.9133 20.5761 38.0452 20.89 38.0452Z" fill="#D2D2D2"/>
<path d="M17.4641 10.9217C17.4641 10.9217 17.6811 10.6782 17.714 8.93911L18.24 8.77216C18.24 8.77216 18.3518 10.1635 17.76 11.04L17.4641 10.9217Z" fill="#058567"/>
<path d="M17.6287 10.9773C17.6287 10.9773 18.352 9.55124 18.5098 8.29211L19.1476 8.33385C19.1476 8.33385 18.6544 10.5599 17.872 11.1025L17.6287 10.9843V10.9773Z" fill="#058567"/>
<path d="M19.2001 9.18951L19.7393 9.50951C19.7393 9.50951 18.8056 11.0817 17.8127 11.1582L17.6155 10.9565C17.6155 10.9565 18.7267 10.233 19.1936 9.18951H19.2001Z" fill="#058567"/>
<path d="M16.524 11.0121C16.0928 11.6516 15.7434 12.3487 15.4851 13.0852C15.2089 13.8086 14.8276 15.1234 15.0445 15.2695C15.2813 15.4295 16.5108 14.4556 16.6621 14.3026C17.1815 13.7808 17.9245 12.9669 18.3322 12.2365C18.615 11.7495 18.7004 11.0956 18.0232 10.6365C17.4445 10.233 16.8725 10.5252 16.524 11.0121Z" fill="#FF8000"/>
<path opacity="0.2" d="M16.8986 10.6365C16.8986 10.6365 16.9906 10.9704 17.4772 11.3113C17.4876 11.3186 17.4965 11.328 17.5034 11.3389C17.5103 11.3499 17.5151 11.3621 17.5176 11.3751C17.52 11.388 17.52 11.4013 17.5176 11.4142C17.5152 11.4271 17.5104 11.4394 17.5035 11.4504C17.4966 11.4613 17.4877 11.4708 17.4774 11.4781C17.467 11.4854 17.4554 11.4905 17.4432 11.4931C17.431 11.4957 17.4184 11.4957 17.4062 11.4932C17.394 11.4906 17.3824 11.4855 17.372 11.4782C16.9249 11.1652 16.7868 10.873 16.7539 10.7547L16.892 10.6365H16.8986ZM16.3134 11.3182C16.3134 11.3182 16.3988 11.6521 16.8591 11.9652C16.8695 11.9725 16.8784 11.9819 16.8853 11.9928C16.8922 12.0038 16.8971 12.0161 16.8995 12.029C16.9019 12.0419 16.902 12.0552 16.8995 12.0681C16.8971 12.081 16.8923 12.0933 16.8854 12.1043C16.8785 12.1153 16.8696 12.1247 16.8593 12.132C16.8489 12.1393 16.8373 12.1444 16.8251 12.147C16.8129 12.1496 16.8003 12.1496 16.7881 12.1471C16.7759 12.1445 16.7643 12.1394 16.7539 12.1321C16.3068 11.8191 16.2345 11.6313 16.195 11.513L16.3134 11.3252V11.3182ZM15.7808 12.3895C15.8399 12.48 15.9517 12.5982 16.1687 12.7513H16.1819C16.2147 12.7721 16.2476 12.7582 16.2673 12.7234C16.276 12.7063 16.2788 12.6865 16.2752 12.6675C16.2716 12.6485 16.2619 12.6313 16.2476 12.6191C16.0908 12.5183 15.9563 12.3831 15.8531 12.2226L15.7873 12.3895H15.7808Z" fill="#303336"/>
<path d="M17.5235 16.9739C17.4133 16.9951 17.3054 17.0277 17.2013 17.0713C16.9773 17.0663 16.755 17.1123 16.5493 17.206C16.3436 17.2998 16.1594 17.4391 16.0089 17.6147C15.8585 17.7903 15.7455 17.9979 15.6775 18.2237C15.6094 18.4494 15.588 18.688 15.6146 18.9233C15.6412 19.1586 15.7152 19.3851 15.8317 19.5875C15.9482 19.7899 16.1043 19.9635 16.2896 20.0965C16.475 20.2296 16.6851 20.319 16.9059 20.3588C17.1267 20.3985 17.353 20.3877 17.5695 20.327C17.701 20.2852 17.8259 20.2574 17.964 20.2504L18.0889 20.2296C18.2954 20.1953 18.4933 20.1177 18.6709 20.0012C18.8485 19.8848 19.0023 19.7319 19.1232 19.5515C19.244 19.3712 19.3295 19.1671 19.3746 18.9512C19.4197 18.7353 19.4235 18.5121 19.3857 18.2947C19.348 18.0772 19.2694 17.87 19.1547 17.6852C19.04 17.5004 18.8915 17.3417 18.718 17.2186C18.5444 17.0955 18.3493 17.0105 18.1441 16.9684C17.939 16.9264 17.7279 16.9283 17.5235 16.9739Z" fill="#E6333D"/>
<path d="M17.2539 17.3704H17.2473C17.2187 17.3724 17.1904 17.3626 17.1684 17.3432C17.1464 17.3238 17.1322 17.2962 17.1289 17.266C17.1289 17.266 17.0632 16.7513 16.6752 16.4591C16.661 16.4511 16.6485 16.44 16.6387 16.4265C16.6288 16.413 16.6219 16.3974 16.6183 16.3807C16.6147 16.3641 16.6145 16.3469 16.6179 16.3302C16.6212 16.3135 16.6278 16.2977 16.6374 16.284C16.647 16.2703 16.6593 16.259 16.6735 16.2507C16.6876 16.2425 16.7032 16.2377 16.7193 16.2364C16.7354 16.2352 16.7515 16.2377 16.7666 16.2437C16.7817 16.2497 16.7954 16.2591 16.8067 16.2713C17.267 16.626 17.3328 17.2173 17.3393 17.2452C17.3412 17.2736 17.3327 17.3017 17.3156 17.3237C17.2985 17.3457 17.274 17.3599 17.2473 17.3634H17.2539V17.3704Z" fill="#058567"/>
<path d="M18.1874 15.6939C18.0305 15.6664 17.8694 15.6834 17.7206 15.7431C17.5719 15.8028 17.4407 15.9031 17.3405 16.0339C17.2403 16.1647 17.1746 16.3212 17.1501 16.4875C17.1256 16.6538 17.1432 16.8241 17.2011 16.9809C17.3581 17.0084 17.5192 16.9914 17.6679 16.9317C17.8167 16.872 17.9479 16.7716 18.0481 16.6409C18.1483 16.5101 18.214 16.3536 18.2384 16.1873C18.2629 16.0209 18.2453 15.8507 18.1874 15.6939Z" fill="#058567"/>
<path d="M17.2865 17.4956C17.1169 17.5239 16.9445 17.5286 16.7737 17.5096C16.7563 17.5132 16.7383 17.5125 16.7213 17.5074C16.7042 17.5023 16.6886 17.493 16.6756 17.4802C16.6626 17.4675 16.6527 17.4516 16.6466 17.434C16.6406 17.4164 16.6386 17.3975 16.6408 17.3789C16.643 17.3603 16.6493 17.3426 16.6593 17.3271C16.6692 17.3116 16.6825 17.2988 16.6981 17.2898C16.7136 17.2808 16.731 17.2759 16.7487 17.2754C16.7664 17.2749 16.784 17.2788 16.8 17.2869C17.0958 17.3148 17.3917 17.2661 17.6679 17.1339L17.7337 17.1061C17.7591 17.096 17.7872 17.0961 17.8126 17.1063C17.838 17.1166 17.8591 17.1363 17.8717 17.1617C17.8813 17.1887 17.8812 17.2184 17.8715 17.2453C17.8618 17.2722 17.8432 17.2944 17.8191 17.3078L17.7534 17.3426C17.6026 17.4155 17.4435 17.4669 17.28 17.4956H17.2865Z" fill="#C62834"/>
<path d="M17.7732 27.1652L18.6017 27.4713C18.7332 27.52 18.8319 27.3878 18.845 27.3321L19.7919 24.4313C19.9168 24.0487 19.8839 23.3878 19.8182 23.0956C19.7261 22.706 19.8313 22.6782 19.8313 22.6782C19.8313 22.6782 19.8971 22.6921 19.9168 22.6365C19.9299 22.5808 19.8708 22.5669 19.8708 22.546L19.8971 22.4626L19.371 22.2678L18.8384 22.08L18.8121 22.1634C18.8056 22.1773 18.7464 22.1495 18.7267 22.2052C18.7069 22.2608 18.7661 22.2887 18.7661 22.2887C18.7661 22.2887 18.8319 22.3791 18.536 22.6365C18.3058 22.8243 17.8982 23.3252 17.7798 23.7008L16.833 26.6017C16.8132 26.6573 16.8132 26.8243 16.9447 26.873L17.7732 27.1721V27.1652Z" fill="#FFC400"/>
<path d="M19.9233 22.2191L18.9633 21.8713C18.9469 21.8646 18.9295 21.8615 18.9119 21.8621C18.8944 21.8628 18.8771 21.8671 18.8612 21.8749C18.8453 21.8826 18.831 21.8937 18.8192 21.9074C18.8073 21.9212 18.7982 21.9372 18.7924 21.9547L18.7858 21.9895C18.7795 22.0068 18.7766 22.0253 18.7772 22.0439C18.7778 22.0624 18.7819 22.0807 18.7892 22.0975C18.7966 22.1144 18.807 22.1295 18.82 22.142C18.833 22.1545 18.8482 22.1642 18.8647 22.1704L19.8313 22.5182C19.8644 22.5291 19.9003 22.5258 19.9311 22.5088C19.9619 22.4919 19.9851 22.4627 19.9956 22.4278L20.0088 22.393C20.0191 22.3579 20.0159 22.32 19.9999 22.2874C19.9839 22.2548 19.9564 22.2303 19.9233 22.2191Z" fill="#F7AD00"/>
<path d="M19.3447 22.3443L19.8971 22.5391C19.9234 22.553 19.9628 22.5391 19.9694 22.5043L20.0351 22.3234C20.0382 22.3152 20.0396 22.3065 20.0392 22.2977C20.0389 22.2889 20.0368 22.2802 20.0331 22.2724C20.0293 22.2645 20.0241 22.2575 20.0176 22.2519C20.0112 22.2463 20.0037 22.2423 19.9957 22.2399L19.4368 22.0452L19.3447 22.3443Z" fill="#EE9E00"/>
</g>
</g>
<defs>
<linearGradient id="paint0_linear_691_1471" x1="32.4032" y1="19.7147" x2="35.2644" y2="-17.9735" gradientUnits="userSpaceOnUse">
<stop stop-color="white" stop-opacity="0"/>
<stop offset="1" stop-color="white"/>
</linearGradient>
<clipPath id="clip0_691_1471">
<rect width="48" height="48" fill="white"/>
</clipPath>
</defs>
</svg>
