<svg width="48" height="48" viewBox="0 0 48 48" fill="none" xmlns="http://www.w3.org/2000/svg">
<g clip-path="url(#clip0_691_9091)">
<path opacity="0.1" d="M23.115 47.9325C29.8725 47.97 35.355 46.905 35.355 45.555C35.3625 44.205 29.895 43.08 23.13 43.0425C16.38 43.005 10.905 44.07 10.8975 45.42C10.8975 46.77 16.365 47.895 23.1225 47.9325H23.115Z" fill="#121212"/>
<path d="M36.4275 23.3775C36.4275 16.0125 30.0975 10.0425 22.2975 10.0425C14.49 10.0425 8.16748 16.0125 8.16748 23.3775C8.24248 26.1 9.10498 28.74 10.6425 30.93C12.153 33.1032 14.2985 34.7561 16.785 35.6625L17.31 39.4575C17.3242 39.565 17.3684 39.6664 17.4375 39.75C17.5019 39.8298 17.5878 39.8897 17.685 39.9225C17.782 39.9546 17.8864 39.9572 17.985 39.93C18.0858 39.9039 18.177 39.8492 18.2475 39.7725L23.0475 36.6825C30.5025 36.3075 36.4275 30.5025 36.4275 23.3775Z" fill="#0970E6"/>
<path opacity="0.41" d="M36.4501 23.175C36.4501 15.9825 30.2701 10.155 22.6501 10.155C15.0301 10.155 8.8501 15.9825 8.8501 23.175C8.92085 25.8174 9.76578 28.3809 11.2801 30.5475C12.7801 32.6925 14.8801 34.2975 17.2726 35.1675L17.7901 38.8425C17.8044 38.9441 17.8458 39.04 17.9101 39.12C17.9719 39.1993 18.0552 39.2592 18.1501 39.2925C18.247 39.3255 18.3517 39.3281 18.4501 39.3C18.545 39.2742 18.6308 39.2222 18.6976 39.15L23.3926 36.1575C30.6676 35.7975 36.4426 30.1275 36.4426 23.175H36.4501Z" fill="url(#paint0_linear_691_9091)"/>
<path d="M23.1674 15.66C26.0699 15.66 28.1099 17.3625 28.1099 20.3325C28.1099 23.295 26.0324 24.7575 23.1974 24.7575L23.0999 26.4675H20.5199L20.3399 22.7175H21.3149C23.5274 22.7175 25.1774 22.2975 25.1774 20.3175C25.1981 20.0376 25.1598 19.7566 25.0649 19.4925C24.9689 19.231 24.818 18.9932 24.6224 18.795C24.433 18.5975 24.2026 18.4439 23.9474 18.345C23.6911 18.2505 23.4169 18.2146 23.1449 18.24C22.8686 18.2094 22.5889 18.2428 22.3274 18.3375C22.0674 18.4318 21.8317 18.583 21.6374 18.78C21.4378 18.9794 21.2842 19.22 21.1874 19.485C21.0974 19.7475 21.0524 20.0325 21.0749 20.31H18.2774C18.2399 17.64 20.0624 15.66 23.1674 15.66ZM21.7874 31.7175C21.4415 31.7067 21.1069 31.5917 20.8274 31.3875C20.5437 31.1792 20.3273 30.8924 20.2049 30.5625C20.0808 30.2293 20.0548 29.8675 20.1299 29.52C20.2049 29.175 20.3774 28.86 20.6249 28.6125C20.8709 28.3703 21.1834 28.2067 21.5226 28.1426C21.8619 28.0785 22.2125 28.1167 22.5299 28.2525C22.8449 28.3875 23.1149 28.6275 23.3099 28.9275C23.5316 29.2816 23.6271 29.7004 23.5808 30.1156C23.5345 30.5309 23.3492 30.9183 23.0549 31.215C22.8882 31.3801 22.6903 31.5102 22.4726 31.5978C22.2549 31.6854 22.022 31.7286 21.7874 31.725V31.7175Z" fill="#0970E6"/>
<path d="M22.5751 15.6375C25.4776 15.6375 27.5176 17.34 27.5176 20.31C27.5176 23.2725 25.4176 24.765 22.6051 24.765L22.5151 26.4675H19.9351L19.8151 22.7175H20.7901C23.0026 22.7175 24.6526 22.305 24.6526 20.3175C24.6677 20.0391 24.6242 19.7606 24.5251 19.5C24.425 19.2433 24.2716 19.0107 24.0751 18.8175C23.879 18.6263 23.6435 18.4804 23.3851 18.39C23.1276 18.3006 22.8534 18.2699 22.5826 18.3C22.3092 18.2682 22.0322 18.299 21.7726 18.39C21.5118 18.4866 21.276 18.6403 21.0826 18.84C20.8839 19.0372 20.7303 19.2752 20.6326 19.5375C20.5351 19.8075 20.4976 20.0925 20.5201 20.37H17.6851C17.6851 17.6475 19.4626 15.6375 22.5826 15.6375H22.5751ZM21.1951 31.725C20.8492 31.7138 20.5147 31.5988 20.2351 31.395C19.9514 31.1868 19.735 30.8999 19.6126 30.57C19.4899 30.2391 19.4639 29.8801 19.5376 29.535C19.6126 29.1825 19.7776 28.86 20.0251 28.62C20.2726 28.3725 20.5876 28.2 20.9251 28.14C21.2637 28.0749 21.6142 28.1141 21.9301 28.2525C22.2526 28.3875 22.5226 28.62 22.7101 28.92C22.8699 29.1709 22.967 29.4566 22.9931 29.7529C23.0192 30.0493 22.9736 30.3475 22.8601 30.6225C22.7701 30.8475 22.6351 31.05 22.4701 31.215C22.3035 31.3833 22.1045 31.516 21.8851 31.605C21.6659 31.6924 21.4309 31.7333 21.1951 31.725Z" fill="white"/>
<path fill-rule="evenodd" clip-rule="evenodd" d="M31.2299 0.885021L30.9524 4.93502C30.9455 5.01629 30.9552 5.0981 30.981 5.17547C31.0068 5.25284 31.0481 5.32415 31.1024 5.38502C31.1556 5.44477 31.2201 5.49342 31.2922 5.52817C31.3642 5.56292 31.4425 5.58309 31.5224 5.58752C31.6863 5.59887 31.8481 5.54495 31.9724 5.43752C32.0934 5.33262 32.1688 5.18462 32.1824 5.02502L32.4599 0.975021C32.4663 0.893787 32.4564 0.812084 32.4306 0.734775C32.4048 0.657467 32.3638 0.586133 32.3099 0.525021C32.2045 0.404601 32.0568 0.329397 31.8974 0.315021C31.7336 0.304485 31.5721 0.358304 31.4474 0.465021C31.3224 0.570953 31.2443 0.721858 31.2299 0.885021ZM36.6149 3.55502L33.5324 6.23252C33.4415 6.31143 33.3764 6.41585 33.3457 6.53222C33.3149 6.64858 33.3199 6.7715 33.3599 6.88502C33.4104 7.03511 33.5183 7.15912 33.6599 7.23002C33.7687 7.28317 33.8909 7.30298 34.011 7.28697C34.1311 7.27096 34.2437 7.21984 34.3349 7.14002L37.4249 4.47752C37.5154 4.39829 37.5807 4.29424 37.6127 4.17826C37.6447 4.06228 37.642 3.93947 37.6049 3.82502C37.5814 3.74836 37.5432 3.67702 37.4924 3.61502C37.3828 3.49191 37.229 3.41725 37.0645 3.40741C36.9 3.39757 36.7383 3.45335 36.6149 3.56252V3.55502ZM35.4974 8.87252L39.5774 8.54252C39.7393 8.5262 39.9012 8.57474 40.0274 8.67752C40.1239 8.7527 40.1951 8.85557 40.2315 8.97236C40.2679 9.08914 40.2677 9.21426 40.231 9.33094C40.1942 9.44762 40.1227 9.55029 40.026 9.62519C39.9293 9.7001 39.812 9.74365 39.6899 9.75002L35.5949 10.0875C35.4746 10.0967 35.3544 10.0702 35.249 10.0116C35.1437 9.9529 35.0579 9.86455 35.0024 9.75752C34.9664 9.6867 34.9449 9.60945 34.939 9.53025C34.9331 9.45104 34.943 9.37146 34.9681 9.29611C34.9932 9.22076 35.0331 9.15115 35.0853 9.09131C35.1375 9.03147 35.2011 8.9826 35.2724 8.94752C35.3423 8.91077 35.4187 8.88785 35.4974 8.88002V8.87252ZM46.5524 15.315C46.2072 15.0458 45.8082 14.854 45.3824 14.7525C44.7971 14.4617 44.1336 14.3673 43.4905 14.4835C42.8474 14.5997 42.2589 14.9203 41.8124 15.3975C41.5176 15.7135 41.295 16.0896 41.1599 16.5L42.9749 17.1525C43.1177 16.8206 43.3825 16.5561 43.7147 16.4137C44.0468 16.2714 44.421 16.262 44.7599 16.3875C45.0997 16.5114 45.379 16.7611 45.5399 17.085C45.6974 17.4075 45.7349 17.775 45.6224 18.12C45.1949 19.3425 44.0249 19.2225 42.5849 18.6975L41.9549 18.48L41.1674 20.8275L42.8699 21.435L43.3199 20.4075C45.1499 21.0825 46.8224 20.6475 47.5049 18.81C47.6678 18.4072 47.7408 17.9736 47.7187 17.5397C47.6967 17.1057 47.5802 16.6818 47.3774 16.2975C47.1767 15.9121 46.8953 15.5744 46.5524 15.3075V15.315ZM40.4024 24.165C40.5224 24.2775 40.6649 24.36 40.8149 24.405C41.0398 24.4916 41.2855 24.5093 41.5205 24.4559C41.7556 24.4025 41.9694 24.2803 42.1349 24.105C42.244 23.9889 42.3288 23.8521 42.3842 23.7027C42.4396 23.5532 42.4645 23.3942 42.4574 23.235C42.4492 23.0743 42.4085 22.917 42.3376 22.7726C42.2666 22.6282 42.1671 22.4997 42.0449 22.395C41.9241 22.2911 41.7839 22.212 41.6324 22.1625C41.4084 22.0776 41.1643 22.0607 40.9308 22.1141C40.6972 22.1675 40.4847 22.2887 40.3199 22.4625C40.2101 22.5798 40.1251 22.7178 40.0697 22.8686C40.0143 23.0193 39.9897 23.1796 39.9974 23.34C40.0065 23.4976 40.0471 23.6517 40.1166 23.7934C40.1862 23.9351 40.2833 24.0614 40.4024 24.165ZM6.60737 2.64752C6.90878 2.45505 7.24831 2.33018 7.6026 2.28152C7.95689 2.23285 8.31752 2.26154 8.65965 2.3656C9.00179 2.46967 9.31732 2.64665 9.5845 2.88435C9.85169 3.12204 10.0642 3.41482 10.2074 3.74252C10.9199 5.16752 10.2074 6.38252 8.80487 7.02752L9.17237 7.87502L7.85237 8.52002L6.89987 6.72752L7.38737 6.48752C8.48987 5.94002 9.23237 5.33252 8.74487 4.38002C8.68936 4.23923 8.60343 4.11245 8.49322 4.00873C8.38302 3.90501 8.25126 3.82691 8.10737 3.78002C7.9628 3.73159 7.80941 3.71522 7.65788 3.73206C7.50634 3.7489 7.36029 3.79853 7.22987 3.87752C7.09163 3.93718 6.96708 4.02452 6.86389 4.13416C6.76069 4.24381 6.68105 4.37342 6.62987 4.51502C6.5793 4.65633 6.55852 4.80657 6.56885 4.9563C6.57917 5.10603 6.62038 5.252 6.68987 5.38502L5.27987 6.07502C5.02907 5.61067 4.93728 5.07694 5.01855 4.55548C5.09982 4.03402 5.34966 3.55353 5.72987 3.18752C5.98245 2.944 6.28421 2.75732 6.61487 2.64002L6.60737 2.64752ZM9.76487 10.7325C9.6491 10.7983 9.52109 10.8396 9.38873 10.854C9.25638 10.8683 9.12248 10.8554 8.9953 10.8161C8.86811 10.7767 8.75033 10.7118 8.64922 10.6252C8.5481 10.5385 8.4658 10.4321 8.40737 10.3125C8.30843 10.1357 8.26482 9.9332 8.28221 9.7313C8.29959 9.5294 8.37716 9.33736 8.50487 9.18002C8.63472 9.02126 8.80911 8.905 9.00559 8.84619C9.20207 8.78738 9.41166 8.78871 9.60737 8.85002C9.80237 8.91002 9.98237 9.02252 10.1099 9.18002C10.2067 9.29861 10.2753 9.4376 10.3107 9.58654C10.346 9.73549 10.3471 9.89051 10.3139 10.0399C10.2807 10.1894 10.2141 10.3293 10.119 10.4493C10.0239 10.5693 9.90279 10.6661 9.76487 10.7325ZM4.91987 14.925C4.74 14.7282 4.52007 14.5722 4.27487 14.4675C4.05813 14.3128 3.81092 14.206 3.5497 14.1543C3.28847 14.1026 3.01922 14.1071 2.75987 14.1675C2.50064 14.2265 2.2569 14.3399 2.04484 14.5002C1.83278 14.6606 1.65724 14.8642 1.52987 15.0975L2.55737 15.6975C2.60846 15.5931 2.68203 15.5013 2.7728 15.4287C2.86357 15.3561 2.96929 15.3044 3.08237 15.2775C3.19506 15.2498 3.31242 15.2468 3.42637 15.2688C3.54031 15.2908 3.64812 15.3373 3.74237 15.405C3.84741 15.4516 3.94087 15.5208 4.01607 15.6076C4.09127 15.6945 4.14635 15.7969 4.17737 15.9075C4.20816 16.0178 4.21403 16.1336 4.19458 16.2464C4.17512 16.3593 4.13082 16.4664 4.06487 16.56C3.66737 17.2275 2.96987 17.01 2.15987 16.56L1.80737 16.35L1.07987 17.685L2.03237 18.2325L2.41487 17.6625C2.61996 17.8267 2.85849 17.944 3.11374 18.0062C3.36898 18.0684 3.63475 18.074 3.89237 18.0225C4.14806 17.9723 4.38979 17.8671 4.60086 17.7143C4.81193 17.5615 4.9873 17.3647 5.11487 17.1375C5.32826 16.798 5.4247 16.398 5.38949 15.9985C5.35429 15.599 5.18936 15.222 4.91987 14.925ZM0.187373 19.485C0.248066 19.6185 0.347322 19.7309 0.472373 19.8075C0.556066 19.8601 0.6495 19.8952 0.747088 19.9109C0.844676 19.9265 0.944413 19.9223 1.04033 19.8985C1.13626 19.8747 1.22639 19.8318 1.30535 19.7723C1.38431 19.7129 1.45047 19.6381 1.49987 19.5525C1.55468 19.4596 1.58813 19.3556 1.5978 19.2482C1.60747 19.1407 1.59312 19.0325 1.55579 18.9312C1.51846 18.83 1.45908 18.7384 1.38196 18.6629C1.30483 18.5875 1.2119 18.5301 1.10987 18.495C0.972713 18.447 0.82456 18.4399 0.683424 18.4745C0.542288 18.5091 0.414249 18.584 0.314873 18.69C0.216196 18.7959 0.151354 18.9289 0.128641 19.0718C0.105928 19.2148 0.126377 19.3612 0.187373 19.4925V19.485Z" fill="#FFBDBD"/>
</g>
<defs>
<linearGradient id="paint0_linear_691_9091" x1="32.3326" y1="13.4775" x2="14.3551" y2="28.5375" gradientUnits="userSpaceOnUse">
<stop stop-color="white" stop-opacity="0"/>
<stop offset="1" stop-color="white"/>
</linearGradient>
<clipPath id="clip0_691_9091">
<rect width="48" height="48" fill="white"/>
</clipPath>
</defs>
</svg>
