<svg width="48" height="48" viewBox="0 0 48 48" fill="none" xmlns="http://www.w3.org/2000/svg">
<path d="M21.2401 6.84998H3.59009V45.51H21.2401V6.84998Z" fill="#D2D2D2"/>
<path d="M8.31999 6.91998H7.73999V45.53H8.31999V6.91998ZM12.59 6.91998H12.01V45.51H12.59V6.91998ZM16.87 6.91998H16.29V17.62H16.87V6.91998Z" fill="#E5E5E5"/>
<path d="M33.9901 17.61H11.8501V33.21H33.9901V17.61Z" fill="#E5E5E5"/>
<path d="M37.34 21.38H8.51001V45.5H37.34V21.38Z" fill="#C20016"/>
<path opacity="0.41" d="M37.34 21.38H8.51001V45.5H37.34V21.38Z" fill="url(#paint0_linear_691_2051)"/>
<path d="M32.62 32.2H13.22V45.5H32.62V32.2Z" fill="#E5E5E5"/>
<path d="M23.2099 32.2H22.6299V45.59H23.2099V32.2Z" fill="white"/>
<path d="M1.5 14.55H19.09C19.09 14.55 16.8 9.90003 13.3 12.49C12.6622 11.476 11.6479 10.7567 10.48 10.49C8.58 10.19 7 10.89 5.61 13.49C5.61 13.48 2.41 12.57 1.5 14.55Z" fill="#F7F7F7"/>
<path d="M45.22 31.83C45.5754 31.4714 45.8511 31.0419 46.0291 30.5695C46.2072 30.0971 46.2836 29.5924 46.2534 29.0885C46.2232 28.5846 46.0871 28.0927 45.8539 27.6449C45.6207 27.1972 45.2957 26.8036 44.9001 26.49C45.2402 26.0558 45.45 25.5339 45.5048 24.985C45.5597 24.4361 45.4575 23.883 45.21 23.39C45.0292 23.0295 44.7744 22.7111 44.4623 22.4556C44.1501 22.2002 43.7876 22.0134 43.3984 21.9075C43.0092 21.8015 42.6021 21.7788 42.2035 21.8408C41.8049 21.9028 41.4239 22.0481 41.0853 22.2673C40.7467 22.4864 40.458 22.7745 40.2382 23.1127C40.0184 23.4509 39.8724 23.8316 39.8096 24.2301C39.7468 24.6285 39.7688 25.0357 39.8739 25.4251C39.9791 25.8145 40.1652 26.1774 40.42 26.49C40.0224 26.802 39.6953 27.1945 39.4603 27.642C39.2253 28.0894 39.0876 28.5815 39.0565 29.0859C39.0253 29.5904 39.1013 30.0957 39.2794 30.5687C39.4576 31.0416 39.7338 31.4715 40.09 31.83C39.3085 32.3758 38.7214 33.1566 38.4142 34.059C38.1069 34.9614 38.0955 35.9382 38.3815 36.8475C38.6676 37.7568 39.2363 38.5512 40.0048 39.1151C40.7734 39.679 41.7018 39.983 42.655 39.983C43.6083 39.983 44.5367 39.679 45.3053 39.1151C46.0738 38.5512 46.6425 37.7568 46.9285 36.8475C47.2146 35.9382 47.2032 34.9614 46.8959 34.059C46.5887 33.1566 46.0016 32.3758 45.22 31.83Z" fill="#4CCD8A"/>
<path opacity="0.25" d="M40.14 31.8C39.5271 32.5885 39.1993 33.5613 39.21 34.56C39.21 36.77 41.21 39.28 43.44 39.28C43.9654 39.2804 44.4858 39.1773 44.9714 38.9765C45.457 38.7758 45.8982 38.4813 46.27 38.11C45.8019 38.7847 45.1527 39.3135 44.3973 39.6354C43.6419 39.9574 42.8109 40.0595 42 39.93C41.2317 39.7936 40.5094 39.468 39.8984 38.9827C39.2873 38.4973 38.8067 37.8675 38.5 37.15C38.2288 36.4095 38.1462 35.6132 38.2596 34.8328C38.3731 34.0524 38.6791 33.3126 39.15 32.68L40.14 31.8Z" fill="#303336"/>
<path d="M42.79 25.93H42.5V45.54H42.79V25.93Z" fill="#303336"/>
<path d="M41.2701 28.1L41.0601 28.3L42.5301 29.84L42.7401 29.64L41.2701 28.1ZM41.2701 35.46L41.0701 35.66L42.5401 37.2L42.7401 37L41.2801 35.46H41.2701ZM44.0001 32.35L42.5401 33.76L42.7401 33.96L44.2101 32.56L44.0101 32.35H44.0001Z" fill="#303336"/>
<path d="M28 11.5H41.69C41.69 11.5 39.92 7.89999 37.2 9.90999C36.699 9.1261 35.908 8.57243 35 8.36999C33.52 8.13999 32.3 8.67999 31.22 10.68C31.23 10.68 28.75 9.99999 28 11.5Z" fill="#F7F7F7"/>
<path d="M25.08 39.48C25.2338 39.48 25.3814 39.4189 25.4901 39.3101C25.5989 39.2014 25.66 39.0538 25.66 38.9C25.66 38.7462 25.5989 38.5987 25.4901 38.4899C25.3814 38.3811 25.2338 38.32 25.08 38.32C24.9262 38.32 24.7786 38.3811 24.6699 38.4899C24.5611 38.5987 24.5 38.7462 24.5 38.9C24.5 39.0538 24.5611 39.2014 24.6699 39.3101C24.7786 39.4189 24.9262 39.48 25.08 39.48Z" fill="#929292"/>
<path fill-rule="evenodd" clip-rule="evenodd" d="M13.1899 32.19V45.49H13.8599V32.87H32.6299V32.16L13.1899 32.19Z" fill="#929292"/>
<path d="M20.82 39.46C20.9738 39.46 21.1213 39.3989 21.2301 39.2901C21.3389 39.1813 21.4 39.0338 21.4 38.88C21.4 38.7262 21.3389 38.5786 21.2301 38.4699C21.1213 38.3611 20.9738 38.3 20.82 38.3C20.6662 38.3 20.5186 38.3611 20.4099 38.4699C20.3011 38.5786 20.24 38.7262 20.24 38.88C20.24 39.0338 20.3011 39.1813 20.4099 39.2901C20.5186 39.3989 20.6662 39.46 20.82 39.46Z" fill="#929292"/>
<path opacity="0.71" fill-rule="evenodd" clip-rule="evenodd" d="M21.42 24.21C21.4303 24.1984 21.4446 24.1913 21.46 24.19H21.48C21.4855 24.1931 21.4901 24.1974 21.4936 24.2026C21.4971 24.2078 21.4993 24.2138 21.5 24.22C21.5017 24.2266 21.5017 24.2334 21.5 24.24C21.4979 24.2552 21.4909 24.2692 21.48 24.28C20.8395 25.0436 20.4884 26.0084 20.4884 27.005C20.4884 28.0016 20.8395 28.9664 21.48 29.73C21.4865 29.7366 21.4916 29.7444 21.495 29.753C21.4984 29.7616 21.5001 29.7708 21.5 29.78C21.501 29.7879 21.4997 29.7959 21.4961 29.8031C21.4926 29.8102 21.4869 29.8161 21.48 29.82C21.4734 29.8217 21.4666 29.8217 21.46 29.82C21.4446 29.8187 21.4303 29.8116 21.42 29.8L18.96 27.4C18.8979 27.3534 18.8475 27.293 18.8128 27.2236C18.7781 27.1542 18.76 27.0776 18.76 27C18.76 26.9224 18.7781 26.8458 18.8128 26.7764C18.8475 26.707 18.8979 26.6466 18.96 26.6L21.42 24.2M23.28 24C22.32 24 21.94 25.38 21.94 27.01C21.94 28.64 22.32 30 23.28 30C23.85 30 24.35 29.66 24.35 29.38C24.3488 29.3477 24.3411 29.3161 24.3273 29.2868C24.3136 29.2576 24.2941 29.2315 24.27 29.21C24.1578 29.1141 24.0663 28.9964 24.001 28.864C23.9357 28.7316 23.8979 28.5874 23.89 28.44C23.8921 28.2406 23.9696 28.0494 24.1068 27.9047C24.2441 27.76 24.431 27.6726 24.63 27.66C24.7414 27.6621 24.8511 27.6874 24.9522 27.7343C25.0532 27.7813 25.1433 27.8488 25.2167 27.9326C25.2902 28.0164 25.3453 28.1146 25.3786 28.2209C25.4119 28.3272 25.4226 28.4393 25.41 28.55C25.396 28.9805 25.2493 29.3961 24.99 29.74C24.9827 29.752 24.9793 29.766 24.98 29.78C24.9761 29.7896 24.9761 29.8004 24.98 29.81C24.9841 29.8136 24.9888 29.8164 24.994 29.8181C24.9991 29.8198 25.0046 29.8205 25.01 29.82C25.0193 29.8201 25.0284 29.8184 25.037 29.815C25.0456 29.8116 25.0534 29.8065 25.06 29.8L27.52 27.4C27.5821 27.3534 27.6325 27.293 27.6672 27.2236C27.7019 27.1542 27.72 27.0776 27.72 27C27.72 26.9224 27.7019 26.8458 27.6672 26.7764C27.6325 26.707 27.5821 26.6466 27.52 26.6L25.06 24.2C25.0492 24.1891 25.0352 24.1821 25.02 24.18C25.0109 24.1797 25.002 24.1825 24.9947 24.188C24.9875 24.1934 24.9823 24.2012 24.98 24.21C24.9796 24.2133 24.9796 24.2167 24.98 24.22C24.9793 24.234 24.9827 24.248 24.99 24.26C25.25 24.6 25.39 25.02 25.41 25.45C25.4226 25.5607 25.4119 25.6728 25.3786 25.7791C25.3453 25.8854 25.2902 25.9836 25.2167 26.0674C25.1433 26.1512 25.0532 26.2187 24.9522 26.2657C24.8511 26.3126 24.7414 26.3379 24.63 26.34C24.4293 26.3273 24.241 26.2385 24.1034 26.0917C23.9659 25.9449 23.8896 25.7511 23.89 25.55C23.8992 25.4043 23.9376 25.262 24.0029 25.1314C24.0682 25.0009 24.159 24.8848 24.27 24.79C24.2941 24.7685 24.3136 24.7424 24.3273 24.7132C24.3411 24.6839 24.3488 24.6523 24.35 24.62C24.35 24.34 23.85 24 23.28 24Z" fill="white"/>
<defs>
<linearGradient id="paint0_linear_691_2051" x1="20.34" y1="35.24" x2="41.25" y2="24.75" gradientUnits="userSpaceOnUse">
<stop stop-color="white" stop-opacity="0"/>
<stop offset="1" stop-color="white"/>
</linearGradient>
</defs>
</svg>
