<svg width="19" height="16" viewBox="0 0 19 16" fill="none" xmlns="http://www.w3.org/2000/svg">
<path d="M1 0.5H2.45122L3.07317 3M3.07317 3L5.14634 11.3333H15.9268L18 3H3.07317Z" stroke="black" stroke-linecap="round" stroke-linejoin="round"/>
<path d="M5.14637 15.5C5.83336 15.5 6.39027 14.9404 6.39027 14.25C6.39027 13.5596 5.83336 13 5.14637 13C4.45938 13 3.90247 13.5596 3.90247 14.25C3.90247 14.9404 4.45938 15.5 5.14637 15.5Z" stroke="black" stroke-linecap="round" stroke-linejoin="round"/>
<path d="M15.9268 15.5C16.6138 15.5 17.1707 14.9404 17.1707 14.25C17.1707 13.5596 16.6138 13 15.9268 13C15.2398 13 14.6829 13.5596 14.6829 14.25C14.6829 14.9404 15.2398 15.5 15.9268 15.5Z" stroke="black" stroke-linecap="round" stroke-linejoin="round"/>
</svg>
