<svg width="25" height="24" viewBox="0 0 25 24" fill="none" xmlns="http://www.w3.org/2000/svg">
<path d="M18.25 13.83L17.724 14.364C17.8643 14.502 18.0532 14.5794 18.25 14.5794C18.4468 14.5794 18.6357 14.502 18.776 14.364L18.25 13.83ZM17.715 17.737C17.218 17.371 16.637 16.891 16.188 16.374C15.718 15.833 15.5 15.374 15.5 15.036H14C14 15.934 14.524 16.746 15.056 17.358C15.608 17.994 16.288 18.548 16.826 18.945L17.715 17.737ZM15.5 15.036C15.5 14.279 15.843 13.919 16.164 13.804C16.501 13.682 17.084 13.734 17.724 14.364L18.776 13.295C17.842 12.375 16.674 12.025 15.655 12.393C14.62 12.766 14 13.785 14 15.036H15.5ZM19.674 18.945C20.212 18.549 20.892 17.994 21.444 17.358C21.976 16.745 22.5 15.934 22.5 15.036H21C21 15.373 20.782 15.833 20.312 16.374C19.862 16.891 19.282 17.371 18.785 17.737L19.674 18.945ZM22.5 15.036C22.5 13.785 21.88 12.766 20.845 12.393C19.825 12.025 18.658 12.375 17.724 13.295L18.776 14.364C19.416 13.734 19.999 13.682 20.336 13.804C20.657 13.919 21 14.28 21 15.036H22.5ZM16.826 18.945C17.204 19.223 17.628 19.57 18.25 19.57V18.07C18.23 18.07 18.214 18.071 18.153 18.039C18.0005 17.9482 17.8541 17.8473 17.715 17.737L16.826 18.945ZM18.785 17.737C18.6452 17.8473 18.4992 17.9482 18.346 18.039C18.286 18.071 18.27 18.07 18.25 18.07V19.57C18.872 19.57 19.296 19.223 19.674 18.945L18.785 17.737Z" fill="black"/>
<path d="M21.75 6H3.75M21.75 10H3.75M10.75 14H3.75M10.75 18H3.75" stroke="black" stroke-width="1.5" stroke-linecap="round"/>
</svg>
