<svg width="17" height="18" viewBox="0 0 17 18" fill="none" xmlns="http://www.w3.org/2000/svg">
<path d="M15.985 17.154L9.72301 10.892C9.22301 11.318 8.64801 11.6477 7.99801 11.881C7.34801 12.1143 6.69468 12.231 6.03801 12.231C4.43668 12.231 3.08135 11.6767 1.97201 10.568C0.862681 9.45935 0.308014 8.10435 0.308014 6.50302C0.308014 4.90168 0.862014 3.54601 1.97001 2.43601C3.07801 1.32601 4.43268 0.770348 6.03401 0.769015C7.63535 0.767682 8.99135 1.32235 10.102 2.43301C11.2127 3.54368 11.768 4.89935 11.768 6.50001C11.768 7.19468 11.645 7.86701 11.399 8.51701C11.153 9.16702 10.8297 9.72302 10.429 10.185L16.691 16.446L15.985 17.154ZM6.03901 11.23C7.36568 11.23 8.48568 10.7733 9.39901 9.86001C10.3123 8.94668 10.769 7.82635 10.769 6.49901C10.769 5.17168 10.3123 4.05168 9.39901 3.13901C8.48568 2.22635 7.36568 1.76968 6.03901 1.76901C4.71235 1.76835 3.59201 2.22501 2.67801 3.13901C1.76401 4.05301 1.30735 5.17301 1.30801 6.49901C1.30868 7.82501 1.76535 8.94502 2.67801 9.85902C3.59068 10.773 4.71068 11.2297 6.03801 11.229" fill="white"/>
</svg>
