<svg width="22" height="22" viewBox="0 0 22 22" fill="none" xmlns="http://www.w3.org/2000/svg">
<path d="M11.75 16.517C16.168 16.517 19.75 13.233 19.75 9.5C19.75 5.767 16.168 3 11.75 3C7.332 3 3.75 6.026 3.75 9.759C3.75 11.216 4.296 12.566 5.225 13.669L4.25 18.25L8.166 15.803C9.3009 16.2783 10.5196 16.5211 11.75 16.517Z" stroke="black" stroke-width="1.5" stroke-linecap="round" stroke-linejoin="round"/>
<path d="M11.6777 11.9988V11.5681C11.6777 11.2309 11.7165 10.9369 11.7939 10.6863C11.8714 10.4356 12.0013 10.2009 12.1836 9.98218C12.3659 9.75887 12.612 9.52645 12.9219 9.28491C13.2409 9.03426 13.4938 8.81779 13.6807 8.6355C13.8721 8.45321 14.0088 8.27091 14.0908 8.08862C14.1774 7.90177 14.2207 7.6853 14.2207 7.43921C14.2207 7.05184 14.0885 6.75789 13.8242 6.55737C13.5645 6.35229 13.1976 6.24976 12.7236 6.24976C12.3044 6.24976 11.9102 6.309 11.541 6.42749C11.1719 6.54598 10.8073 6.69409 10.4473 6.87183L9.87988 5.6687C10.2946 5.44084 10.7435 5.25854 11.2266 5.12183C11.7142 4.98055 12.2497 4.90991 12.833 4.90991C13.7627 4.90991 14.4805 5.1355 14.9863 5.58667C15.4967 6.03784 15.752 6.63257 15.752 7.37085C15.752 7.77645 15.6882 8.12508 15.5605 8.41675C15.4329 8.70386 15.2438 8.97046 14.9932 9.21655C14.7471 9.45809 14.4486 9.7133 14.0977 9.98218C13.8105 10.21 13.5895 10.4083 13.4346 10.5769C13.2842 10.741 13.1794 10.9073 13.1201 11.0759C13.0654 11.2445 13.0381 11.4473 13.0381 11.6843V11.9988H11.6777ZM11.418 14.2C11.418 13.8263 11.5137 13.5642 11.7051 13.4138C11.901 13.2589 12.1403 13.1814 12.4229 13.1814C12.6963 13.1814 12.931 13.2589 13.127 13.4138C13.3229 13.5642 13.4209 13.8263 13.4209 14.2C13.4209 14.5645 13.3229 14.8289 13.127 14.9929C12.931 15.1524 12.6963 15.2322 12.4229 15.2322C12.1403 15.2322 11.901 15.1524 11.7051 14.9929C11.5137 14.8289 11.418 14.5645 11.418 14.2Z" fill="black"/>
</svg>
