<svg xmlns="http://www.w3.org/2000/svg" viewBox="0 0 142 25"><title>Carrefour</title><g fill="none" fill-rule="evenodd"><path fill="#1E5BC6" d="M2.206 18.364C.864 17.09-.001 15.228 0 12.911c0-2.218.845-4.089 2.165-5.405A7.099 7.099 0 017.174 5.43c3.395.006 5.792 2.206 5.805 4.109-.002 1.016-.697 1.804-1.638 1.806-.464 0-.898-.147-1.218-.425a1.525 1.525 0 01-.516-1.182c-.002-.595.328-.956.574-1.215-.447-.717-1.33-1.309-2.714-1.311-1.178.001-2.169.565-2.882 1.562C3.87 9.77 3.45 11.2 3.45 12.891c0 1.687.439 3.111 1.172 4.103.734.994 1.745 1.556 2.923 1.558 1.385-.003 2.269-.587 2.713-1.31-.247-.254-.574-.617-.573-1.208 0-.496.196-.907.516-1.185.32-.277.755-.425 1.218-.425.942 0 1.635.784 1.637 1.799-.011 1.912-2.41 4.104-5.803 4.11-1.89 0-3.706-.694-5.047-1.969zm0 0C.864 17.09-.001 15.228 0 12.911c0-2.218.845-4.089 2.165-5.405A7.099 7.099 0 017.174 5.43c3.395.006 5.792 2.206 5.805 4.109-.002 1.016-.697 1.804-1.638 1.806-.464 0-.898-.147-1.218-.425a1.525 1.525 0 01-.516-1.182c-.002-.595.328-.956.574-1.215-.447-.717-1.33-1.309-2.714-1.311-1.178.001-2.169.565-2.882 1.562C3.87 9.77 3.45 11.2 3.45 12.891c0 1.687.439 3.111 1.172 4.103.734.994 1.745 1.556 2.923 1.558 1.385-.003 2.269-.587 2.713-1.31-.247-.254-.574-.617-.573-1.208 0-.496.196-.907.516-1.185.32-.277.755-.425 1.218-.425.942 0 1.635.784 1.637 1.799-.011 1.912-2.41 4.104-5.803 4.11-1.89 0-3.706-.694-5.047-1.969zm0 0C.864 17.09-.001 15.228 0 12.911c0-2.218.845-4.089 2.165-5.405A7.099 7.099 0 017.174 5.43c3.395.006 5.792 2.206 5.805 4.109-.002 1.016-.697 1.804-1.638 1.806-.464 0-.898-.147-1.218-.425a1.525 1.525 0 01-.516-1.182c-.002-.595.328-.956.574-1.215-.447-.717-1.33-1.309-2.714-1.311-1.178.001-2.169.565-2.882 1.562C3.87 9.77 3.45 11.2 3.45 12.891c0 1.687.439 3.111 1.172 4.103.734.994 1.745 1.556 2.923 1.558 1.385-.003 2.269-.587 2.713-1.31-.247-.254-.574-.617-.573-1.208 0-.496.196-.907.516-1.185.32-.277.755-.425 1.218-.425.942 0 1.635.784 1.637 1.799-.011 1.912-2.41 4.104-5.803 4.11-1.89 0-3.706-.694-5.047-1.969zm48.946-4.934c.22-.005.278-.05.32-.116.045-.07.056-.206.055-.375-.022-.975-.84-1.879-2.103-1.879-1.59 0-2.234 1.179-2.334 2.37h4.062zm-31.564 1.699c-1.219.012-2.04.542-2.046 1.591.008.991.73 1.658 1.866 1.665.735.002 1.488-.376 1.964-.922v-1.451c0-.199-.14-.415-.441-.589-.3-.172-.757-.294-1.343-.294zm46.424-.592c.005 2.811 1.325 4.02 2.62 4.024 1.48-.002 2.55-1.211 2.56-3.579.001-1.236-.295-2.225-.777-2.894-.483-.672-1.142-1.028-1.902-1.028-1.536.002-2.493 1.289-2.501 3.477zM27.496 19.89c-.476-.121-.781-.365-.78-.729 0-.144.045-.297.127-.463l.026-.052.062-.011a1.94 1.94 0 00.76-.311c.277-.218.39-.522.393-1.37v-4.28c-.023-.721-.205-.973-.851-.99-.146 0-.318.017-.514.052l-.1.016-.036-.086a1.156 1.156 0 01-.104-.466c.017-.852 1.027-1.29 1.712-1.485.267-.076.517-.116.75-.116.93-.001 1.433.604 1.65 1.382.608-.906 1.576-1.507 2.523-1.51.881.001 1.788.539 1.792 1.567-.002.728-.558 1.493-1.494 1.496-.684 0-1.284-.42-1.413-1.04-.529.16-1.278.77-1.286 2.878v2.581c.002.847.133 1.15.409 1.367.255.187.803.281 1.002.315l.061.01.026.053c.089.18.14.343.14.497.003.346-.28.585-.73.701-.456.125-1.12.172-2.024.172-.921 0-1.617-.05-2.101-.178zm9.236 0c-.476-.121-.783-.365-.782-.729.002-.144.047-.297.13-.463l.026-.052.061-.011c.186-.034.486-.118.757-.311.279-.218.393-.522.395-1.37v-4.28c-.023-.721-.205-.973-.85-.99-.148 0-.318.017-.515.052l-.099.016-.036-.086a1.157 1.157 0 01-.104-.466c.017-.852 1.027-1.29 1.71-1.485.268-.076.518-.116.752-.116.93-.001 1.432.604 1.65 1.384.607-.908 1.576-1.51 2.523-1.512.88.001 1.787.539 1.79 1.567-.001.728-.557 1.493-1.493 1.496-.685 0-1.284-.42-1.413-1.04-.528.16-1.28.77-1.287 2.878v2.581c.004.847.136 1.15.41 1.367.257.187.804.281 1.002.315l.061.01.026.053c.089.18.138.343.138.497.005.346-.277.585-.728.701-.456.125-1.121.172-2.023.172-.922 0-1.617-.05-2.101-.178zm19.544 0c-.48-.124-.79-.366-.79-.733 0-.142.046-.295.128-.46l.026-.051.06-.011c.187-.034.488-.118.76-.311.277-.218.391-.522.395-1.37v-5.625l-1.63-.053-.03-.067a1.29 1.29 0 01-.124-.53c.001-.547.459-.913 1.03-.913h.713v-.623c0-1.504.303-2.36.716-2.935.635-.915 1.739-1.543 3.42-1.541 2.114.002 3.885.912 3.896 2.375-.002.634-.477 1.42-1.471 1.421-.744-.002-1.43-.577-1.433-1.308 0-.27.096-.541.24-.744-.22-.18-.645-.289-1.053-.286-.656.005-1.015.213-1.244.562-.228.35-.304.862-.303 1.441v1.618h2.8l.033.07c.084.189.123.371.122.542.002.563-.431.984-.978 1.031-.207.02-.43.02-.627.02-.467 0-.928-.03-1.27-.036v5.58c.002.844.152 1.146.428 1.367.246.182.94.281 1.144.315l.06.01.026.053c.075.152.115.29.115.426 0 .385-.34.629-.852.757-.519.137-1.257.187-2.197.187-.923 0-1.623-.05-2.11-.179zm33.315 0c-.477-.121-.786-.364-.784-.729 0-.144.047-.297.129-.464l.026-.051.06-.011c.178-.034.49-.119.75-.314.285-.215.395-.518.395-1.368v-4.279c-.02-.721-.198-.973-.845-.99-.146 0-.317.017-.515.052l-.099.016-.038-.086a1.182 1.182 0 01-.1-.458c.017-.856 1.028-1.297 1.707-1.493.276-.076.518-.116.766-.116.922-.001 1.424.613 1.637 1.403.605-.92 1.569-1.528 2.518-1.532.893.002 1.789.541 1.792 1.568-.002.728-.556 1.491-1.482 1.496-.688 0-1.293-.42-1.426-1.04-.524.16-1.262.769-1.271 2.878v2.581c.004.847.132 1.153.389 1.367.269.187.815.281 1.006.315l.06.01.026.053c.09.183.142.347.142.502.002.344-.277.582-.725.697-.454.124-1.116.171-2.016.171-.92 0-1.619-.05-2.102-.178zm-21.078.319c-1.55 0-2.964-.54-3.988-1.484-1.025-.943-1.659-2.29-1.659-3.895.006-3.175 2.704-5.336 5.746-5.34 1.638 0 3.058.54 4.065 1.48 1.008.94 1.6 2.28 1.6 3.86 0 1.586-.618 2.934-1.65 3.883-1.033.948-2.475 1.496-4.112 1.496h-.002zm-24.378-5.175c0-1.607.571-2.995 1.57-3.98 1-.987 2.427-1.566 4.116-1.565 1.54-.001 2.68.528 3.428 1.286a3.796 3.796 0 011.104 2.64c0 .534-.122 1.032-.374 1.45l-.033.058h-6.879c.114 1.855 1.39 3.151 3.607 3.158 1.365.003 2.416-.694 2.766-1.11l.074-.086.095.065c.198.132.412.373.408.835-.007 1.069-1.36 2.438-4.356 2.44-3.045-.004-5.52-2.251-5.526-5.191zm39.677 4.72c-.201-.26-.31-.59-.406-.971a7.215 7.215 0 01-.444.42 4.21 4.21 0 01-2.787 1.027c-1.184 0-2.194-.421-2.837-1.124-.987-1.09-.98-2.476-.98-4.442V12.77c-.022-.767-.282-1.028-1.05-1.048-.099 0-.208.006-.325.018l-.093.01-.034-.08c-.06-.14-.09-.277-.09-.408.026-.916 1.277-1.407 2.013-1.548.257-.036.499-.075.734-.075.6 0 1.043.178 1.32.5.28.32.39.76.39 1.273l-.02 3.235c0 1.195.092 2.089.377 2.664.289.57.725.838 1.53.846.875-.003 1.403-.352 1.74-.872.338-.521.462-1.223.461-1.896V12.77c-.021-.767-.283-1.03-1.05-1.048-.1 0-.21.006-.325.018l-.093.01-.034-.08c-.06-.14-.09-.277-.09-.408.025-.916 1.276-1.407 2.015-1.548.255-.036.5-.075.735-.075.6 0 1.042.178 1.322.5.281.32.392.76.392 1.273 0 .37-.038 1.03-.038 3.785 0 1.165-.022 1.783-.022 1.971.02.794.31 1.15 1.101 1.166.084 0 .172-.006.27-.015l.09-.009.035.08c.06.14.089.273.089.398-.03.895-1.286 1.253-2.013 1.388-.252.036-.483.071-.688.071h-.015c-.563 0-.943-.183-1.18-.491zm-69.275-2.857c-.002-1.018.483-1.842 1.299-2.398.815-.557 1.953-.852 3.273-.852.826.001 1.674.14 2.263.376V12.88c-.02-1.152-.49-1.805-1.885-1.82-.26 0-.844.063-1.322.214.044.165.073.334.073.5 0 .384-.132.739-.383 1-.25.26-.621.42-1.07.42-.804-.003-1.411-.607-1.414-1.365.018-1.399 1.85-2.34 4.296-2.34 1.942 0 3.16.426 3.811 1.202.591.696.62 1.712.622 3.146v3.737c.011.724.453.92 1.425 1.06l.112.013-.008.105c-.056.986-.84 1.394-1.68 1.457a2.58 2.58 0 01-.219.009c-.827.001-1.624-.375-2.005-1.14-.52.406-1.695 1.164-3.213 1.165-2.257-.003-3.971-1.413-3.975-3.346z"/><path fill="#FD0202" d="M116.302 1.422c.06-.06.12-.084.17-.084.09 0 .153.08.151.177a.272.272 0 01-.085.179c-2.234 2.781-3.86 6.034-3.86 10.545 0 4.51 1.626 7.698 3.86 10.48a.278.278 0 01.085.178c.002.098-.06.178-.15.178-.051 0-.11-.024-.17-.085l-9.525-9.223c-.475-.407-.778-.882-.778-1.56 0-.68.303-1.155.778-1.559l9.524-9.226"/><path fill="#1E5BC6" d="M124.31.75c-3.83 0-5.326 5.377-5.326 11.784 0 6.41 1.496 11.716 5.326 11.716 2.3 0 4.259-1.334 4.266-2.43a.923.923 0 00-.296-.669c-1.089-1.042-1.514-2.084-1.52-3.004-.005-1.755 1.533-3.062 2.95-3.062 1.949 0 3.098 1.517 3.098 3.48 0 1.861-.802 3.413-1.672 4.654a.28.28 0 00-.05.157c0 .096.058.176.146.176.053 0 .115-.027.18-.094l9.788-9.371c.487-.414.8-.897.8-1.585 0-.69-.313-1.174-.8-1.585l-9.787-9.374c-.066-.065-.128-.094-.181-.094-.09 0-.145.081-.145.178 0 .05.015.107.05.159.87 1.24 1.67 2.791 1.67 4.65 0 1.963-1.148 3.483-3.098 3.483-1.416 0-2.954-1.309-2.949-3.065.006-.917.431-1.96 1.52-3.002a.925.925 0 00.296-.67C128.569 2.085 126.609.75 124.31.75"/></g></svg>