<svg width="25" height="20" viewBox="0 0 25 20" fill="none" xmlns="http://www.w3.org/2000/svg">
<path d="M11.0837 19.4671C10.7488 19.8083 10.2947 20 9.8212 20C9.34768 20 8.89355 19.8083 8.55868 19.4671L0.522841 11.2759C0.188066 10.9346 -4.71009e-07 10.4717 -4.71009e-07 9.98901C-4.71009e-07 9.50635 0.188066 9.04344 0.522841 8.70209L8.55868 0.510967C8.89547 0.179394 9.34655 -0.00407722 9.81477 7.00702e-05C10.283 0.00421736 10.7309 0.195651 11.062 0.53314C11.3931 0.870629 11.5809 1.32717 11.5849 1.80444C11.589 2.2817 11.409 2.7415 11.0837 3.0848L6.24971 8.16876L23.2143 8.16876C23.6879 8.16876 24.1421 8.36054 24.477 8.7019C24.8119 9.04326 25 9.50625 25 9.98901C25 10.4718 24.8119 10.9348 24.477 11.2761C24.1421 11.6175 23.6879 11.8093 23.2143 11.8093L6.24971 11.8093L11.0837 16.8932C11.4185 17.2346 11.6066 17.6975 11.6066 18.1801C11.6066 18.6628 11.4185 19.1257 11.0837 19.4671Z" fill="#0970E6"/>
</svg>
