<svg width="22" height="21" viewBox="0 0 22 21" fill="none" xmlns="http://www.w3.org/2000/svg">
<g id="icon/Car">
<path id="Vector" d="M19.7531 10.4567L14.6789 8.63297L12.5579 5.96991C12.3735 5.74442 12.1412 5.56283 11.8779 5.43831C11.6145 5.31379 11.3267 5.24946 11.0354 5.25H5.78806C5.46716 5.25001 5.15112 5.32846 4.86746 5.47852C4.5838 5.62859 4.34113 5.84572 4.16056 6.111L2.38081 8.72485C2.01058 9.26905 1.81256 9.91202 1.8125 10.5702V15.75C1.8125 15.9241 1.88164 16.091 2.00471 16.214C2.12778 16.3371 2.2947 16.4063 2.46875 16.4063H3.87444C4.01719 16.9695 4.34368 17.469 4.80223 17.8258C5.26078 18.1827 5.82522 18.3764 6.40625 18.3764C6.98728 18.3764 7.55172 18.1827 8.01027 17.8258C8.46882 17.469 8.79531 16.9695 8.93806 16.4063H13.0619C13.2047 16.9695 13.5312 17.469 13.9897 17.8258C14.4483 18.1827 15.0127 18.3764 15.5938 18.3764C16.1748 18.3764 16.7392 18.1827 17.1978 17.8258C17.6563 17.469 17.9828 16.9695 18.1256 16.4063H19.5312C19.7053 16.4063 19.8722 16.3371 19.9953 16.214C20.1184 16.091 20.1875 15.9241 20.1875 15.75V11.0742C20.1875 10.9391 20.1457 10.8072 20.068 10.6967C19.9902 10.5862 19.8802 10.5024 19.7531 10.4567ZM6.40625 17.0625C6.14666 17.0625 5.8929 16.9855 5.67706 16.8413C5.46122 16.6971 5.293 16.4921 5.19366 16.2523C5.09432 16.0124 5.06833 15.7485 5.11897 15.4939C5.16961 15.2393 5.29462 15.0055 5.47817 14.8219C5.66173 14.6384 5.89559 14.5134 6.15019 14.4627C6.40479 14.4121 6.66869 14.4381 6.90852 14.5374C7.14835 14.6368 7.35333 14.805 7.49755 15.0208C7.64177 15.2367 7.71875 15.4904 7.71875 15.75C7.71823 16.0979 7.57978 16.4315 7.33375 16.6775C7.08772 16.9235 6.75419 17.062 6.40625 17.0625ZM15.5938 17.0625C15.3342 17.0625 15.0804 16.9855 14.8646 16.8413C14.6487 16.6971 14.4805 16.4921 14.3812 16.2523C14.2818 16.0124 14.2558 15.7485 14.3065 15.4939C14.3571 15.2393 14.4821 15.0055 14.6657 14.8219C14.8492 14.6384 15.0831 14.5134 15.3377 14.4627C15.5923 14.4121 15.8562 14.4381 16.096 14.5374C16.3359 14.6368 16.5408 14.805 16.6851 15.0208C16.8293 15.2367 16.9062 15.4904 16.9062 15.75C16.9057 16.0979 16.7673 16.4315 16.5213 16.6775C16.2752 16.9235 15.9417 17.062 15.5938 17.0625ZM18.875 15.0938H18.1256C17.9828 14.5305 17.6563 14.031 17.1978 13.6742C16.7392 13.3173 16.1748 13.1236 15.5938 13.1236C15.0127 13.1236 14.4483 13.3173 13.9897 13.6742C13.5312 14.031 13.2047 14.5305 13.0619 15.0938H8.93806C8.79531 14.5305 8.46882 14.031 8.01027 13.6742C7.55172 13.3173 6.98728 13.1236 6.40625 13.1236C5.82522 13.1236 5.26078 13.3173 4.80223 13.6742C4.34368 14.031 4.01719 14.5305 3.87444 15.0938H3.125V10.5702C3.12501 10.1751 3.24391 9.78911 3.46625 9.46247L5.24534 6.84994C5.3055 6.7614 5.38641 6.68892 5.481 6.63882C5.5756 6.58872 5.68102 6.56252 5.78806 6.5625H11.0354C11.1309 6.56252 11.2253 6.58338 11.3119 6.62361C11.3985 6.66385 11.4752 6.7225 11.5368 6.79547L13.7681 9.59635C13.8439 9.6916 13.9448 9.76385 14.0594 9.80503L18.875 11.5356V15.0938Z" fill="black"/>
</g>
</svg>
