<svg width="33" height="33" viewBox="0 0 33 33" fill="none" xmlns="http://www.w3.org/2000/svg">
<g id="icon/Info">
<circle id="Ellipse 25" cx="16.5002" cy="16.5" r="11.55" fill="#0970E6"/>
<path id="Vector" d="M15.8125 22.6875H17.1875V15.125H15.8125V22.6875ZM16.5 13.1684C16.7402 13.1684 16.9414 13.0872 17.1036 12.925C17.2659 12.7627 17.3465 12.5615 17.3456 12.3214C17.3447 12.0812 17.2636 11.8805 17.1022 11.7191C16.9409 11.5578 16.7402 11.4767 16.5 11.4757C16.2598 11.4748 16.0591 11.556 15.8978 11.7191C15.7364 11.8823 15.6553 12.0835 15.6544 12.3227C15.6535 12.562 15.7346 12.7627 15.8978 12.925C16.0609 13.0872 16.2617 13.1684 16.5 13.1684ZM16.5041 28.875C14.7927 28.875 13.184 28.5505 11.6779 27.9015C10.1718 27.2516 8.86142 26.3698 7.74675 25.256C6.63208 24.1423 5.74979 22.8333 5.09988 21.329C4.44996 19.8248 4.125 18.2165 4.125 16.5041C4.125 14.7918 4.44996 13.183 5.09988 11.6779C5.74888 10.1718 6.62933 8.86142 7.74125 7.74675C8.85317 6.63208 10.1626 5.74979 11.6696 5.09988C13.1766 4.44996 14.7854 4.125 16.4959 4.125C18.2064 4.125 19.8151 4.44996 21.3221 5.09988C22.8282 5.74888 24.1386 6.62979 25.2532 7.74263C26.3679 8.85546 27.2502 10.1649 27.9001 11.671C28.55 13.1771 28.875 14.7854 28.875 16.4959C28.875 18.2064 28.5505 19.8151 27.9015 21.3221C27.2525 22.8291 26.3707 24.1395 25.256 25.2532C24.1413 26.367 22.8323 27.2493 21.329 27.9001C19.8257 28.551 18.2174 28.8759 16.5041 28.875ZM16.5 27.5C19.5708 27.5 22.1719 26.4344 24.3031 24.3031C26.4344 22.1719 27.5 19.5708 27.5 16.5C27.5 13.4292 26.4344 10.8281 24.3031 8.69687C22.1719 6.56562 19.5708 5.5 16.5 5.5C13.4292 5.5 10.8281 6.56562 8.69687 8.69687C6.56562 10.8281 5.5 13.4292 5.5 16.5C5.5 19.5708 6.56562 22.1719 8.69687 24.3031C10.8281 26.4344 13.4292 27.5 16.5 27.5Z" fill="white"/>
</g>
</svg>
