<svg width="35" height="35" viewBox="0 0 35 35" fill="none" xmlns="http://www.w3.org/2000/svg">
<circle cx="17.5" cy="17.5" r="17.5" fill="#B3D143"/>
<path fill-rule="evenodd" clip-rule="evenodd" d="M9.5975 17.0208C9.61015 17.0173 9.6205 17.0081 9.6228 16.9966L9.68838 16.77C9.68953 16.7654 9.68953 16.7608 9.68838 16.7573L9.66077 16.5595L9.68838 16.4203C9.68953 16.4145 9.68953 16.4088 9.68723 16.403L9.66192 16.3236L9.68953 16.1453L9.68838 15.8865L9.67457 15.7703L9.68838 15.7116C9.68953 15.7059 9.68953 15.7013 9.68838 15.6967L9.66192 15.5966L9.68378 15.5379L9.77351 15.4562L9.85864 15.4746C9.86209 15.4758 9.86669 15.4769 9.87129 15.4746L9.95872 15.4585H10.0864L10.1727 15.4643L10.2751 15.4539L10.3913 15.4804C10.3959 15.4815 10.4005 15.4815 10.4051 15.4815L10.7375 15.4229C10.7525 15.4206 10.764 15.4102 10.7663 15.3953L10.7939 15.1698V15.0639L10.7352 14.8258C10.7318 14.812 10.7226 14.8017 10.7088 14.7994L10.4051 14.7533H10.3959L10.2003 14.7763L9.95872 14.7533H9.76085L9.67457 14.6947L9.67342 14.6256L9.68953 14.5532V14.4381C9.68953 14.4347 9.68838 14.4324 9.68838 14.4289L9.66882 14.3587L9.68723 14.3035C9.68838 14.2989 9.68953 14.2943 9.68953 14.2897L9.67342 14.1126L9.66077 14.0493V13.7663L9.68378 13.7203L9.75855 13.6443L9.86324 13.6351L9.96102 13.6512L10.0738 13.6455L10.1888 13.6236L10.2958 13.6558C10.3004 13.657 10.305 13.6581 10.3107 13.657L10.5063 13.6294L10.6018 13.634L10.7111 13.657C10.7168 13.6581 10.7214 13.6581 10.726 13.6558L10.9285 13.5972C10.9389 13.5949 10.9481 13.588 10.9515 13.5776L11.0102 13.4212C11.0113 13.4143 11.0113 13.4074 11.0102 13.4016L10.9895 13.3314L11.0044 13.1865V13.1796L10.9814 12.999C10.9803 12.9852 10.9699 12.9737 10.9561 12.9702L10.7111 12.9184H10.6018C10.5983 12.9184 10.5949 12.9184 10.5926 12.9196L10.5178 12.9403L10.0634 12.9414L9.97023 12.9529L9.65271 12.9184C9.64811 12.9184 9.64351 12.9184 9.64006 12.9196L9.53767 12.946L9.42263 12.9299C9.41918 12.9288 9.41573 12.9288 9.41228 12.9299L9.31219 12.946L9.23397 12.9196C9.22821 12.9184 9.22246 12.9173 9.21556 12.9184L8.87619 12.9817C8.86239 12.9852 8.85203 12.9967 8.84973 13.0116L8.79911 13.4499V13.6282L8.80717 13.7145L8.82787 13.7916L8.82902 13.8503L8.80717 13.9492C8.80602 13.9538 8.80602 13.9584 8.80717 13.963L8.81982 14.0251L8.80026 14.1356C8.79911 14.1402 8.79911 14.1459 8.80026 14.1505L8.82097 14.2195L8.82787 14.3001L8.80717 14.4807L8.81292 14.5601L8.79911 14.6521L8.80026 14.9029L8.81982 15.0179L8.79911 15.1065V15.1813C8.79911 15.1847 8.80026 15.1882 8.80141 15.1916L8.82672 15.2676L8.81292 15.4401L8.82672 15.6242L8.80141 15.7047C8.79911 15.7116 8.79911 15.7185 8.80026 15.7254L8.81982 15.791L8.82097 15.9739L8.82787 16.0533L8.79911 16.2385V16.3858L8.81292 16.5629L8.82672 16.6573L8.79911 16.8436C8.79911 16.8494 8.79911 16.8551 8.80141 16.8609L8.86584 17.0231C8.87044 17.0346 8.88079 17.0426 8.89345 17.0449L9.08786 17.068L9.17875 17.0622L9.40308 17.0611L9.5975 17.0208Z" fill="white"/>
<path fill-rule="evenodd" clip-rule="evenodd" d="M11.67 16.3916L11.6493 16.4767L11.6504 16.8264L11.6942 17.0128C11.6976 17.0278 11.7103 17.0381 11.7252 17.0381L11.9403 17.0485L12.0427 17.0795L12.144 17.0853H12.1532L12.2579 17.0611L12.4454 17.0439C12.4603 17.0427 12.473 17.0312 12.4753 17.0163L12.5178 16.7333L12.5328 16.6562V16.5572L12.5178 16.5009V16.3203L12.5052 16.2248L12.5305 16.1581C12.5328 16.1523 12.5339 16.1466 12.5328 16.142L12.5109 15.9567L12.5052 15.8705L12.5178 15.7094V15.4586L12.5328 15.3562V15.1722L12.5178 15.0123L12.5328 14.911L12.5178 14.7534L12.5052 14.6476L12.5328 14.4969C12.5339 14.4923 12.5339 14.4877 12.5328 14.4831L12.5121 14.3979L12.5316 14.3243C12.5328 14.3209 12.5339 14.3163 12.5328 14.3128L12.5178 14.1472V13.6019L12.5052 13.5225L12.5316 13.4247C12.5328 13.4212 12.5328 13.4189 12.5328 13.4155V13.1831C12.5328 13.1797 12.5328 13.1762 12.5316 13.1728L12.473 12.9933C12.4695 12.9806 12.4592 12.9714 12.4454 12.9691L12.1474 12.9358L11.9242 12.9231C11.9208 12.922 11.9162 12.9231 11.9127 12.9243L11.7103 12.9829C11.6965 12.9864 11.6884 12.9979 11.6872 13.0117L11.6723 13.152L11.6504 13.2326C11.6493 13.236 11.6493 13.2383 11.6493 13.2418V13.4431L11.6642 13.5892V13.7675L11.6573 13.8607C11.6562 13.863 11.6573 13.8665 11.6573 13.8699L11.6711 13.9389L11.6435 14.1184V14.2346C11.6435 14.2392 11.6447 14.2426 11.6458 14.2461L11.6711 14.3151V14.3864L11.6447 14.4808C11.6435 14.4842 11.6435 14.4877 11.6435 14.49V14.7339L11.6711 14.9076L11.6504 15.0065C11.6493 15.0111 11.6493 15.0169 11.6504 15.0215L11.67 15.0928L11.6447 15.1653C11.6424 15.171 11.6424 15.1802 11.6458 15.1871L11.6711 15.2573V15.3263L11.6447 15.4091C11.6435 15.4114 11.6435 15.416 11.6435 15.4195V15.5357C11.6435 15.5403 11.6447 15.5449 11.6458 15.5495L11.6688 15.6013L11.6447 15.6703C11.6435 15.676 11.6424 15.6818 11.6447 15.6887L11.6642 15.7796V15.9567L11.6711 16.0373L11.6447 16.1362C11.6435 16.1397 11.6435 16.142 11.6435 16.1454V16.303C11.6435 16.3065 11.6435 16.3099 11.6447 16.3134L11.67 16.3916Z" fill="white"/>
<path fill-rule="evenodd" clip-rule="evenodd" d="M13.4531 17.0196L13.6556 17.0726C13.6602 17.0737 13.6659 17.0737 13.6694 17.0726L13.7637 17.0553L13.9719 17.0668L14.0812 17.0507L14.1687 17.0726C14.1733 17.0737 14.1767 17.0737 14.1813 17.0726L14.3056 17.0564L14.4103 17.0726C14.4137 17.0737 14.4172 17.0737 14.4206 17.0726L14.5149 17.0564L14.6104 17.0795H14.8302L15.227 17.0438C15.242 17.0438 15.2535 17.0334 15.257 17.0185L15.3156 16.7642L15.3225 16.6895C15.3225 16.6849 15.3225 16.6803 15.3214 16.6757L15.2938 16.5882V16.4191C15.2938 16.4007 15.2788 16.3858 15.2604 16.3858H15.0487L14.9521 16.3582C14.9475 16.3559 14.9417 16.3559 14.9371 16.357L14.8198 16.3731L14.7347 16.357L14.5034 16.3455C14.4977 16.3432 14.4942 16.3455 14.4908 16.3466L14.3953 16.3789L14.3205 16.3743L14.2331 16.2949L14.2457 16.1166V15.4263L14.225 15.2756L14.2526 15.1732C14.2538 15.1652 14.2538 15.1571 14.2503 15.1502L14.225 15.0927V15.0122L14.2538 14.8212V14.7223C14.2538 14.7177 14.2526 14.7142 14.2503 14.7096L14.225 14.6475L14.2388 14.4956L14.2526 14.4025C14.2538 14.4002 14.2538 14.3967 14.2526 14.3933L14.2319 14.2034L14.2457 14.0504L14.225 13.8744V13.5995L14.2446 13.5293C14.2469 13.5236 14.2469 13.5166 14.2446 13.5109L14.225 13.4476L14.2457 13.2705V13.1773C14.2457 13.1738 14.2457 13.1704 14.2446 13.1669L14.1871 12.9932C14.1836 12.9817 14.1756 12.9737 14.1641 12.9714L13.9846 12.9196C13.9789 12.9184 13.9742 12.9173 13.9696 12.9184L13.7534 12.9518L13.659 12.9242C13.6533 12.9219 13.6464 12.923 13.6406 12.9242L13.4382 12.976C13.4267 12.9794 13.4163 12.9909 13.414 13.0036L13.3714 13.2475C13.3703 13.2509 13.3703 13.2544 13.3714 13.2567L13.391 13.412L13.3645 13.4982C13.3634 13.504 13.3634 13.5109 13.3645 13.5166L13.3841 13.5937V13.7088L13.391 13.7789L13.3703 13.8491L13.3634 13.9411C13.3634 13.9446 13.3634 13.9492 13.3645 13.9527L13.391 14.0573L13.3714 14.2138C13.3703 14.2149 13.3703 14.2184 13.3714 14.2218L13.3841 14.3104L13.3852 14.7372L13.3634 14.9316L13.3645 15.286L13.3783 15.3561V15.5345L13.391 15.623L13.3668 15.6725C13.3645 15.6771 13.3634 15.684 13.3634 15.6898L13.3783 15.8715L13.391 15.9693L13.3714 16.0498C13.3703 16.0556 13.3703 16.0613 13.3714 16.0659L13.3898 16.1476L13.3668 16.2017C13.3634 16.2097 13.3622 16.219 13.3645 16.2259L13.3921 16.3075V16.4789L13.3852 16.5549L13.3645 16.6308C13.3634 16.6331 13.3634 16.6365 13.3634 16.64V16.8137C13.3634 16.8172 13.3645 16.8218 13.3657 16.8252L13.4301 16.9989C13.4336 17.0093 13.4428 17.0173 13.4531 17.0196Z" fill="white"/>
<path fill-rule="evenodd" clip-rule="evenodd" d="M15.9785 16.3916L15.9578 16.4767L15.9589 16.8264L16.0026 17.0128C16.0049 17.0278 16.0176 17.0381 16.0337 17.0381L16.2488 17.0485L16.3501 17.0795L16.4513 17.0853H16.4605L16.5652 17.0611L16.7527 17.0439C16.7688 17.0427 16.7803 17.0312 16.7826 17.0163L16.8252 16.7333L16.8413 16.6562L16.8401 16.5572L16.8263 16.5009V16.3203L16.8137 16.2248L16.839 16.1581C16.8413 16.1523 16.8413 16.1466 16.8413 16.142L16.8194 15.9567L16.8125 15.8705L16.8263 15.7094V15.4586L16.8413 15.3562V15.1722L16.8263 15.0123L16.8413 14.911L16.8263 14.7534L16.8137 14.6476L16.8401 14.4969C16.8413 14.4923 16.8413 14.4877 16.8401 14.4831L16.8206 14.3979L16.8401 14.3243C16.8413 14.3209 16.8413 14.3163 16.8413 14.3128L16.8263 14.1472V13.6019L16.8137 13.5225L16.8401 13.4247C16.8413 13.4212 16.8413 13.4189 16.8413 13.4155V13.1831C16.8413 13.1797 16.8401 13.1762 16.8401 13.1728L16.7815 12.9933C16.778 12.9806 16.7677 12.9714 16.7538 12.9691L16.4559 12.9358L16.2316 12.9231C16.2281 12.922 16.2247 12.9231 16.2201 12.9243L16.0176 12.9829C16.0049 12.9864 15.9957 12.9979 15.9946 13.0117L15.9808 13.152L15.9589 13.2326C15.9578 13.236 15.9578 13.2383 15.9578 13.2418V13.4431L15.9727 13.5892V13.7675L15.9647 13.8607C15.9647 13.863 15.9647 13.8665 15.9658 13.8699L15.9796 13.9389L15.9509 14.1184V14.2346C15.9509 14.2392 15.952 14.2426 15.9532 14.2461L15.9796 14.3151V14.3864L15.9532 14.4808C15.952 14.4842 15.9509 14.4877 15.9509 14.49L15.952 14.7339L15.9796 14.9076L15.9578 15.0065C15.9578 15.0111 15.9578 15.0169 15.9589 15.0215L15.9785 15.0928L15.9532 15.1653C15.9509 15.171 15.9509 15.1802 15.9532 15.1871L15.9796 15.2573V15.3263L15.9532 15.4091C15.952 15.4114 15.9509 15.416 15.9509 15.4195V15.5357C15.9509 15.5403 15.952 15.5449 15.9543 15.5495L15.9773 15.6013L15.9532 15.6703C15.9509 15.676 15.9509 15.6818 15.952 15.6887L15.9727 15.7796V15.9567L15.9796 16.0373L15.9532 16.1362C15.952 16.1397 15.9509 16.142 15.9509 16.1454V16.303C15.9509 16.3065 15.952 16.3099 15.9532 16.3134L15.9785 16.3916Z" fill="white"/>
<path fill-rule="evenodd" clip-rule="evenodd" d="M18.4805 17.0847H18.6082L18.7037 17.0675L19.1328 17.0663L19.2271 17.079C19.2306 17.079 19.2363 17.079 19.2398 17.0778L19.3433 17.0514L19.4607 17.0606H19.471L19.6585 17.0134C19.6689 17.0123 19.6781 17.0042 19.6815 16.995L19.7402 16.8489C19.7425 16.8431 19.7425 16.8374 19.7414 16.8305L19.7275 16.7557L19.7414 16.6924C19.7425 16.689 19.7425 16.6844 19.7414 16.6809L19.6988 16.4014C19.6965 16.3887 19.6838 16.3761 19.6689 16.3749L19.4411 16.3439L19.0373 16.345L18.8394 16.3795L18.6324 16.3634L18.5403 16.276L18.5553 16.2254C18.5564 16.2219 18.5564 16.2185 18.5564 16.215V15.8676L18.5438 15.7641L18.5564 15.687V15.5858L18.6485 15.5443L18.836 15.511L19.073 15.5282L19.2996 15.5271L19.5228 15.511C19.5389 15.5098 19.5515 15.4983 19.5538 15.4834L19.5826 15.3154C19.5826 15.3108 19.5837 15.3074 19.5826 15.3039L19.5676 15.213L19.5826 15.0324L19.5607 14.8633C19.5584 14.8495 19.5481 14.8368 19.532 14.8345L19.3007 14.8069C19.2961 14.8058 19.2927 14.8058 19.2881 14.8069L19.1777 14.8345L19.0833 14.8288L18.9499 14.8403H18.6255L18.5495 14.7552L18.5288 14.5055L18.5553 14.3997C18.5564 14.3974 18.5564 14.3939 18.5564 14.3916V13.7221L18.6439 13.6577H18.9211L19.0154 13.6347L19.448 13.6335L19.6505 13.5932C19.6597 13.5909 19.6689 13.584 19.6735 13.5748L19.7391 13.4345C19.7425 13.4276 19.7437 13.4195 19.7414 13.4138L19.7206 13.3379L19.7345 13.2332C19.7356 13.2309 19.7356 13.2274 19.7345 13.2251L19.7045 13.01C19.7034 12.995 19.6919 12.9847 19.6769 12.9824L19.2283 12.918H19.2191L19.1293 12.9352L19.0339 12.9237L18.8049 12.9398L18.5944 12.941L18.4932 12.9237C18.4886 12.9226 18.484 12.9237 18.4782 12.9249L18.3781 12.9513L18.2861 12.9306C18.2815 12.9306 18.2769 12.9295 18.2734 12.9306L18.1929 12.941L17.9789 12.9295L17.7558 12.9467C17.7396 12.9479 17.7281 12.9594 17.7258 12.9743L17.6902 13.1595C17.689 13.163 17.689 13.1653 17.689 13.1687L17.6959 13.2481L17.6672 13.4448V13.6071C17.6672 13.6094 17.6672 13.6128 17.6683 13.6163L17.689 13.6818V14.0454L17.6741 14.2018C17.6741 14.2053 17.6741 14.2076 17.6752 14.211L17.689 14.2892L17.6741 14.4641L17.689 14.6367L17.6741 14.7414V14.7506L17.6948 14.9001L17.6683 14.9864C17.6672 14.9887 17.6672 14.9921 17.6672 14.9956V15.106C17.6672 15.1095 17.6672 15.1141 17.6695 15.1175L17.689 15.1705V15.3557L17.6683 15.4155C17.666 15.4212 17.666 15.4281 17.6683 15.4339L17.6948 15.5317L17.6741 15.6755C17.6741 15.6801 17.6741 15.6835 17.6752 15.687L17.6948 15.7917L17.6959 15.9654L17.6821 16.0609L17.689 16.1437L17.6672 16.2334V16.3991L17.689 16.5843L17.6741 16.7408C17.6741 16.7442 17.6741 16.7477 17.6752 16.7511L17.7327 17.0077C17.7362 17.0192 17.7465 17.0295 17.7604 17.0318L18.0905 17.0847H18.1687C18.1722 17.0847 18.1757 17.0847 18.1791 17.0836L18.2941 17.0514L18.4805 17.0847Z" fill="white"/>
<path fill-rule="evenodd" clip-rule="evenodd" d="M18.322 12.3969L18.5199 12.5487L18.7293 12.6879C18.7316 12.6902 18.735 12.6914 18.7385 12.6925L18.8754 12.7271C18.8788 12.7282 18.8811 12.7282 18.8846 12.7282C18.888 12.7282 18.8927 12.7282 18.8961 12.7259L19.0698 12.6615C19.0744 12.6603 19.079 12.658 19.0825 12.6546L19.148 12.5844C19.1572 12.5741 19.1595 12.5591 19.1538 12.5464L19.0376 12.3256L18.9893 12.237L18.9605 12.1507C18.9582 12.145 18.9559 12.1403 18.9513 12.1369L18.8501 12.038C18.8443 12.0334 18.8351 12.0299 18.8271 12.0299L18.6902 12.0311L18.5751 12.0012C18.5717 12 18.5682 12 18.5636 12L18.1875 12.0403C18.1748 12.0414 18.1644 12.0506 18.1598 12.0621L18.123 12.1611C18.1196 12.1737 18.1219 12.1852 18.1311 12.1956L18.322 12.3969Z" fill="white"/>
<path fill-rule="evenodd" clip-rule="evenodd" d="M22.1744 13.8691L22.2077 13.9554L22.1951 14.113V14.304L22.2089 14.4064L22.202 14.4696L22.1514 14.5686L22.1249 14.6595L22.0651 14.7285L21.988 14.7492L21.644 14.7664L21.5474 14.7826L21.4335 14.7722L21.3461 14.6825L21.3656 14.5548V14.5456L21.3438 14.3742L21.3576 14.2752C21.3587 14.2706 21.3587 14.266 21.3576 14.2614L21.3449 14.2177L21.3645 14.1268C21.3656 14.1211 21.3656 14.1153 21.3645 14.1107L21.3438 14.0417L21.3587 13.9474L21.3438 13.7817L21.3564 13.6908L21.4358 13.6356H21.5589L21.6498 13.6471H21.9891L22.0432 13.6701L22.1203 13.7437L22.1744 13.8691ZM23.0625 14.029L23.0694 13.9474C23.0705 13.9439 23.0694 13.9405 23.0682 13.937L23.0349 13.8139L23.0418 13.7633C23.0418 13.7575 23.0418 13.7529 23.0395 13.7495L23.005 13.6437L22.9912 13.5505C22.99 13.5447 22.9866 13.539 22.9831 13.5344L22.9428 13.486L22.8658 13.31C22.8646 13.3077 22.8623 13.3043 22.86 13.302L22.73 13.1513C22.7254 13.1467 22.7231 13.1432 22.7174 13.1421L22.5344 13.0696L22.4631 13.0224C22.4597 13.0213 22.4574 13.0201 22.4539 13.019L22.3354 12.9822L22.2388 12.9672L22.1157 12.9258C22.1099 12.9246 22.1053 12.9246 22.1007 12.9246L21.988 12.9419L21.7844 12.9534L21.5462 12.9189C21.5416 12.9189 21.537 12.9189 21.5313 12.92L21.46 12.9408L21.3357 12.9246H21.3288L21.231 12.935L21.024 12.9362L20.8733 12.9246L20.5626 12.9592C20.5477 12.9615 20.5362 12.9718 20.5327 12.9856L20.4821 13.2537V13.3641C20.4821 13.3664 20.4821 13.3699 20.4833 13.3722L20.5028 13.4389L20.4844 13.493C20.4821 13.4987 20.4821 13.5033 20.4821 13.5091L20.4959 13.5907L20.4752 13.7012C20.4741 13.7058 20.4752 13.7127 20.4764 13.7184L20.4971 13.769L20.4821 13.9566V14.1165L20.4752 14.2108L20.504 14.4041L20.4821 14.572V14.9206C20.4821 14.9241 20.4821 14.9275 20.4833 14.9298L20.504 15V15.5211L20.4833 15.5913C20.4821 15.5947 20.4821 15.5993 20.4821 15.6028L20.489 15.6902L20.4752 15.8835L20.4971 16.0515L20.4821 16.117L20.4833 16.7578L20.5327 17.0074C20.5362 17.0201 20.5477 17.0305 20.5615 17.0328L20.7778 17.0673C20.7812 17.0684 20.7847 17.0684 20.787 17.0673L20.8756 17.0569L20.971 17.0788C20.9733 17.0799 20.9756 17.0799 20.9779 17.0799C20.9814 17.0799 20.9848 17.0799 20.9883 17.0788L21.0815 17.0512L21.2978 17.0397C21.3162 17.0385 21.33 17.0235 21.33 17.0063V16.7313L21.3507 16.5795L21.3438 16.4921L21.3576 16.3103L21.3438 16.2194L21.3587 16.0561C21.3587 16.0526 21.3587 16.0503 21.3576 16.0469L21.3369 15.9548L21.3576 15.8881C21.3576 15.8858 21.3587 15.8823 21.3587 15.8789L21.3576 15.7972L21.3369 15.6994L21.3587 15.612V15.5315L21.4381 15.4866L21.5589 15.4601L21.7671 15.4763L22.0605 15.5211L22.1364 15.6661L22.1376 15.803L22.1145 15.9077V16.2447L22.1445 16.4081V16.8487L22.1583 16.9361C22.1594 16.943 22.1629 16.9499 22.1686 16.9557L22.2618 17.042C22.2675 17.0466 22.2745 17.05 22.2814 17.0512L22.4539 17.073C22.4574 17.0742 22.462 17.0742 22.4654 17.073L22.5828 17.0512L22.7231 17.0615L22.9624 17.0328C22.9704 17.0316 22.9796 17.027 22.9842 17.0189L23.0429 16.9384C23.0487 16.9292 23.051 16.9189 23.0475 16.9097L22.9992 16.759L23.0061 16.6773C23.0061 16.6738 23.0061 16.6727 23.005 16.6692L22.9762 16.5174L23.005 16.3195C23.0061 16.316 23.0061 16.3126 23.005 16.3091L22.9762 16.1619L22.9981 15.9813L22.9831 15.8122L22.9981 15.6626C22.9981 15.658 22.9981 15.6546 22.9969 15.6523L22.9831 15.5878C22.9819 15.5844 22.9808 15.5809 22.9785 15.5775L22.9325 15.4981V15.4026C22.9325 15.3957 22.9302 15.3888 22.9256 15.3831L22.8692 15.3071C22.8669 15.3037 22.8635 15.3014 22.86 15.2991L22.791 15.2577L22.8013 15.1829L22.898 15.0276L22.9635 14.9413C22.9658 14.9356 22.9681 14.9298 22.9681 14.9229L22.975 14.8378L23.0222 14.7515C23.0245 14.7469 23.0268 14.7423 23.0268 14.7377L23.0406 14.5548L23.0694 14.3857C23.0694 14.3834 23.0705 14.3799 23.0694 14.3776L23.0625 14.3074L23.0774 14.1199L23.0625 14.029Z" fill="white"/>
<path fill-rule="evenodd" clip-rule="evenodd" d="M23.8112 16.4L23.8331 16.5852L23.8181 16.7417C23.8181 16.7452 23.8181 16.7486 23.8193 16.7521L23.8768 17.0074C23.8803 17.0201 23.8906 17.0305 23.9033 17.0328L24.2334 17.0857H24.314C24.3163 17.0857 24.3197 17.0857 24.322 17.0845L24.4382 17.0512L24.6246 17.0857H24.7523L24.8478 17.0684L25.2769 17.0673L25.3712 17.0799C25.3746 17.0799 25.3792 17.0799 25.3838 17.0788L25.4862 17.0512L25.6036 17.0615H25.6139L25.8026 17.0143C25.813 17.012 25.821 17.004 25.8256 16.9959L25.8843 16.8498C25.8866 16.8441 25.8866 16.8383 25.8854 16.8314L25.8716 16.7567L25.8854 16.6934C25.8866 16.6899 25.8866 16.6853 25.8854 16.6819L25.8429 16.4023C25.8406 16.3885 25.8279 16.3759 25.813 16.3759L25.5852 16.3448L25.1814 16.346L24.9847 16.3793L24.7764 16.3644L24.6844 16.2769L24.6994 16.2263C24.7005 16.2229 24.7005 16.2194 24.7005 16.216V15.8685L24.6879 15.7639L24.7005 15.6879V15.5867L24.7937 15.5453L24.9801 15.5119L25.217 15.5292L25.4437 15.528L25.6668 15.5119C25.6818 15.5108 25.6956 15.4993 25.6979 15.4843L25.7267 15.3163V15.3048L25.7117 15.214L25.7267 15.0333L25.7048 14.8642C25.7037 14.8493 25.691 14.8378 25.6761 14.8355L25.4448 14.8067C25.4402 14.8056 25.4368 14.8056 25.4322 14.8067L25.3217 14.8355L25.2274 14.8297L25.0939 14.8412H24.7695L24.6936 14.7549L24.6729 14.5065L24.6994 14.4006C24.7005 14.3983 24.7005 14.3949 24.7005 14.3926V13.723L24.7879 13.6575H25.0652L25.1584 13.6356L25.5921 13.6345L25.7945 13.5942C25.8037 13.5919 25.813 13.585 25.8176 13.5758L25.8831 13.4354C25.8866 13.4285 25.8866 13.4205 25.8854 13.4136L25.8647 13.3388L25.8785 13.2341V13.2249L25.8486 13.0109C25.8475 12.996 25.836 12.9845 25.821 12.9822L25.3723 12.9189H25.362L25.2734 12.935L25.1768 12.9246L24.949 12.9408L24.7385 12.9419L24.6372 12.9246C24.6326 12.9235 24.6269 12.9246 24.6223 12.9246L24.5222 12.9523L24.429 12.9304C24.4256 12.9304 24.421 12.9293 24.4175 12.9304L24.337 12.9419L24.123 12.9293L23.8987 12.9477C23.8837 12.9488 23.8722 12.9603 23.8688 12.9741L23.8331 13.1605V13.1685L23.84 13.2491L23.8112 13.4458V13.6068C23.8112 13.6103 23.8112 13.6137 23.8124 13.6172L23.8331 13.6828V14.0463L23.8181 14.2028V14.212L23.8331 14.2902L23.8181 14.4639L23.8331 14.6376L23.8181 14.7423V14.7503L23.8389 14.8999L23.8124 14.9862C23.8112 14.9885 23.8112 14.9919 23.8112 14.9954V15.107C23.8112 15.1104 23.8112 15.115 23.8124 15.1185L23.8331 15.1714V15.3566L23.8124 15.4164C23.8101 15.421 23.8101 15.4279 23.8124 15.4348L23.8389 15.5326L23.8181 15.6764V15.6879L23.8389 15.7926L23.84 15.9663L23.825 16.0618L23.8331 16.1435L23.8112 16.2332V16.4Z" fill="white"/>
<path fill-rule="evenodd" clip-rule="evenodd" d="M6.13948 22.1239L6.13833 22.0548L6.08426 21.8328L6.11187 21.5004C6.11302 21.4957 6.11187 21.4911 6.11072 21.4865L6.08426 21.3968V21.0459L6.11877 20.9355C6.12107 20.9274 6.12107 20.9182 6.11762 20.9102L6.09461 20.8446L6.11992 20.5214C6.12107 20.5179 6.12107 20.5145 6.11992 20.511L6.09461 20.3994L6.11992 20.1785C6.12107 20.1728 6.12107 20.1682 6.11877 20.1624L6.09346 20.0738L6.10266 19.9623L6.08541 19.8162L6.11877 19.7218C6.12107 19.7149 6.12107 19.7069 6.11992 19.7011L6.10381 19.6332L6.11992 19.486C6.12107 19.4802 6.12107 19.4756 6.11992 19.471L6.09346 19.3732V19.1777L6.15788 19.1006C6.16249 19.096 6.16364 19.0914 6.16479 19.0856L6.18204 19.0201L6.25567 18.9211L6.32009 18.8613L6.44779 18.8349C6.45124 18.8349 6.45354 18.8326 6.45699 18.8314L6.55823 18.7773H6.83087L6.91255 18.8291C6.9183 18.8337 6.92521 18.836 6.93096 18.836L7.06671 18.8418L7.14263 18.897L7.26228 19.0764L7.29794 19.3951L7.26918 19.6079C7.26918 19.6125 7.26918 19.616 7.27033 19.6206L7.28758 19.7161L7.26918 19.8127V20.0704C7.26918 20.0738 7.27033 20.0773 7.27033 20.0807L7.29564 20.1716L7.26343 20.2717C7.26112 20.2786 7.26112 20.2867 7.26343 20.2947L7.29679 20.404L7.26228 20.6226C7.26112 20.626 7.26112 20.6306 7.26112 20.6341L7.28873 20.8354V21.0333L7.26228 21.1587C7.26112 21.1644 7.26112 21.1713 7.26343 21.1782L7.29794 21.2898V21.8294L7.24387 22.1181L7.18635 22.2297L7.09892 22.2941L6.96087 22.339L6.83317 22.408L6.57548 22.4092L6.43398 22.3816L6.30744 22.3206L6.13948 22.1239ZM8.51507 23.2179C8.51277 23.2133 8.51047 23.2087 8.50701 23.2053L8.30339 23.0281L8.25162 22.8969C8.24817 22.89 8.24357 22.8831 8.23782 22.8785L8.17685 22.836L8.13773 22.6749L8.26083 22.4747L8.34251 22.2539C8.34366 22.2504 8.34481 22.247 8.34481 22.2435L8.39082 21.6925L8.37242 21.4819V21.2657L8.39082 21.0229L8.37242 20.8124V20.0393L8.39082 19.9231V19.8196C8.39082 19.8162 8.39082 19.8116 8.38967 19.8081L8.35516 19.7034L8.35401 19.5987L8.39082 19.4078V19.394L8.35516 19.1731V18.9741C8.35516 18.9695 8.35401 18.9649 8.35286 18.9614L8.25738 18.6957L8.14349 18.5208L7.96747 18.3275L7.78456 18.1584L7.7742 18.1515L7.51536 18.025L7.36926 17.9675C7.36351 17.9652 7.35891 17.9652 7.35316 17.964L7.23812 17.9721L6.97467 17.9134L6.56168 17.8766C6.55708 17.8754 6.55132 17.8766 6.54672 17.8777L6.42478 17.9134H6.29248C6.28788 17.9134 6.28328 17.9134 6.27753 17.9157L6.13833 17.9721L5.98647 18.0031L5.75409 18.0848L5.62179 18.1469L5.50445 18.2263L5.34685 18.4L5.19039 18.6128C5.18809 18.6163 5.18579 18.6197 5.18464 18.6232L5.11447 18.8429L5.0696 18.9165C5.0673 18.92 5.06615 18.9234 5.065 18.9257L5.02934 19.0431C5.02818 19.0465 5.02703 19.05 5.02703 19.0546V19.5297L5.03624 19.5999V19.8461L5.01783 20.0704L5.01898 20.2901L5.03624 20.3868L5.00058 20.5858C4.99942 20.5915 5.00058 20.5984 5.00173 20.6042L5.03509 20.7123L5.01898 20.7998C5.01783 20.8021 5.01783 20.8055 5.01783 20.8078L5.03624 21.0459L5.00173 21.1713C4.99942 21.1782 4.99942 21.1851 5.00173 21.1909L5.02703 21.2829L5.02818 21.4819L5.00058 21.6154C5.00058 21.62 4.99942 21.6234 5.00058 21.6269L5.02703 21.8282V22.1515C5.02703 22.1572 5.02818 22.1641 5.03049 22.1687L5.12022 22.354L5.18464 22.5886C5.18579 22.5955 5.18924 22.6013 5.19384 22.6059L5.29048 22.7037L5.32384 22.7785C5.32614 22.7842 5.33074 22.79 5.33649 22.7946L5.53321 22.9372L5.65516 23.0005L5.85763 23.1546C5.86338 23.1581 5.87143 23.1615 5.87834 23.1615L5.99683 23.1684L6.10727 23.2375C6.11302 23.2409 6.11762 23.2432 6.12337 23.2432L6.27408 23.2559L6.40062 23.2869L6.83087 23.3088C6.83432 23.3088 6.83777 23.3088 6.84008 23.3076L6.97007 23.28L7.05175 23.2789L7.28183 23.3352L7.35316 23.3928L7.39457 23.4606L7.40147 23.4675L7.65111 23.7068L7.86164 23.861C7.86969 23.8667 7.87774 23.869 7.88579 23.869C7.88925 23.869 7.8927 23.869 7.89615 23.8667L8.11703 23.8C8.12048 23.7989 8.12508 23.7977 8.12853 23.7943L8.20676 23.739L8.32065 23.6965C8.3241 23.6942 8.3287 23.6919 8.33215 23.6896L8.5979 23.4618C8.61055 23.4503 8.614 23.433 8.60825 23.4169L8.51507 23.2179Z" fill="white"/>
<path fill-rule="evenodd" clip-rule="evenodd" d="M12.5801 19.5085C12.5812 19.5039 12.5812 19.5005 12.5812 19.4959V19.2428L12.5628 19.0414L12.5456 18.9448L12.572 18.8045C12.5732 18.7987 12.572 18.793 12.5709 18.786L12.5467 18.6998L12.5628 18.5985V18.2833L12.526 18.0693C12.5237 18.0532 12.5111 18.0417 12.4961 18.0394L12.2131 17.9796C12.2085 17.9785 12.2051 17.9785 12.2016 17.9785L12.0797 17.9865L11.9773 17.9578C11.9738 17.9566 11.9704 17.9566 11.9669 17.9566H11.8105C11.8059 17.9566 11.8013 17.9566 11.7967 17.9589L11.5689 18.0406C11.5585 18.044 11.5505 18.0498 11.547 18.0601L11.4642 18.2373C11.4596 18.2442 11.4596 18.2534 11.4607 18.2615L11.4953 18.3961L11.463 18.4743C11.4607 18.4789 11.4596 18.4846 11.4607 18.4904L11.4792 18.7274L11.4884 18.7941L11.4699 19.0403V19.7858L11.4884 20.0112V20.2655L11.4976 20.3483L11.4607 20.5646C11.4596 20.568 11.4596 20.5726 11.4607 20.5761L11.4792 20.6842L11.4699 20.8027C11.4688 20.8062 11.4699 20.8108 11.4699 20.8142L11.4872 20.8936L11.4607 21.0178C11.4596 21.0247 11.4596 21.0316 11.4619 21.0385L11.4964 21.1386L11.4803 21.2019C11.4792 21.2065 11.4792 21.21 11.4792 21.2134L11.4976 21.4331L11.4607 21.6897C11.4596 21.6943 11.4596 21.6977 11.4607 21.7012L11.4872 21.9025L11.4446 22.2074L11.394 22.2557L11.3227 22.3569H11.1973C11.1904 22.3569 11.1846 22.3592 11.1789 22.3604L11.08 22.4144L10.8361 22.3799C10.8326 22.3788 10.8303 22.3788 10.8269 22.3788L10.7164 22.3926L10.5945 22.3546L10.4472 22.2154L10.4035 21.9025L10.4311 21.6816L10.43 20.897L10.4024 20.6819V19.7098L10.438 19.6201C10.4403 19.6132 10.4415 19.6051 10.4392 19.5971L10.4116 19.4959V19.3797L10.4392 19.2462C10.4403 19.2405 10.4403 19.2336 10.438 19.2267L10.4035 19.1243L10.43 18.9425C10.4311 18.9379 10.4311 18.9345 10.43 18.9299L10.4116 18.8413V18.3972L10.43 18.273C10.4311 18.2672 10.4311 18.2615 10.4288 18.2569L10.3644 18.036C10.3598 18.0199 10.3472 18.0095 10.331 18.0084L9.9238 17.9785H9.68452L9.40957 17.9946C9.39231 17.9957 9.37736 18.0084 9.37391 18.0268L9.3371 18.2672V18.6123L9.35435 18.7239L9.3371 18.908L9.33825 19.1289L9.31869 19.2324C9.31869 19.2382 9.31869 19.2428 9.31984 19.2474L9.3532 19.3854L9.32904 19.4705C9.32789 19.4751 9.32789 19.4809 9.32789 19.4843L9.34515 19.6983L9.32789 19.8973C9.32789 19.9019 9.32789 19.9065 9.32904 19.9111L9.3532 20.0043L9.31984 20.1182C9.31869 20.1228 9.31869 20.1274 9.31869 20.132L9.3371 20.361L9.31869 20.5554L9.31984 21.1317L9.34515 21.2353L9.32789 21.4492V21.4596L9.34515 21.5562L9.32789 21.6678C9.32789 21.6736 9.32789 21.6782 9.32904 21.6828L9.35435 21.7909V21.9094L9.32099 21.9911C9.31869 21.998 9.31754 22.0049 9.31869 22.0129L9.36471 22.2373L9.38311 22.4282C9.38311 22.4328 9.38541 22.4374 9.38656 22.4409L9.50505 22.6917C9.50621 22.6951 9.50851 22.6963 9.51081 22.6986L9.65346 22.8665L9.7731 22.962C9.7754 22.9643 9.7777 22.9666 9.78 22.9678L9.87664 23.0092L9.99168 23.1024C9.99513 23.1047 9.99858 23.1058 10.002 23.1081L10.2494 23.2105C10.254 23.2128 10.2574 23.214 10.2632 23.214H10.3943L10.5347 23.2634C10.5393 23.2646 10.5439 23.2657 10.5496 23.2657L10.6532 23.2588L10.8039 23.2945H11.1133L11.241 23.3025H11.2433C11.2479 23.3025 11.2525 23.3014 11.256 23.3002L11.5079 23.2128L11.7909 23.1426L12.0233 23.0241L12.2591 22.8792L12.342 22.7975C12.3466 22.7929 12.35 22.7883 12.3512 22.7826L12.3845 22.6733L12.4685 22.5927C12.472 22.5893 12.4754 22.5847 12.4766 22.5812L12.5226 22.4846C12.5249 22.4812 12.526 22.4766 12.526 22.472L12.5456 22.2407L12.5444 21.9899L12.5812 21.784C12.5824 21.7794 12.5812 21.7737 12.5801 21.7691L12.5548 21.6598V21.4377L12.5801 21.3538C12.5812 21.3492 12.5824 21.3434 12.5812 21.3377L12.5456 21.1007L12.5444 20.889L12.5617 20.8154C12.5628 20.8108 12.5628 20.8062 12.5628 20.8004L12.5467 20.6704L12.572 20.5876L12.5812 20.4783C12.5812 20.4748 12.5812 20.4702 12.5801 20.4668L12.5559 20.3495L12.5709 20.2689C12.5732 20.2632 12.572 20.2563 12.5709 20.2517L12.5456 20.1539V19.612L12.5801 19.5085Z" fill="white"/>
<path fill-rule="evenodd" clip-rule="evenodd" d="M14.8181 21.5992L14.8503 21.5015L14.8952 21.4209C14.8986 21.4163 14.8998 21.4106 14.9009 21.4048L14.909 21.2932L15.0079 21.0712C15.0091 21.0678 15.0102 21.0643 15.0102 21.062L15.0275 20.9516L15.07 20.8768C15.0723 20.8722 15.0746 20.8664 15.0746 20.8618L15.1011 20.649L15.1621 20.5374C15.1644 20.5328 15.1655 20.5282 15.1667 20.5225L15.1747 20.4488L15.2357 20.3223L15.2392 20.3119L15.2553 20.2084L15.3013 20.0911C15.3024 20.0876 15.3036 20.083 15.3036 20.0773V20.0186L15.3404 19.93L15.3565 19.9242L15.4025 20.1279L15.4727 20.3108L15.4945 20.4442L15.5831 20.6651V20.7318C15.5831 20.7376 15.5843 20.7433 15.5866 20.7491L15.6475 20.8733V20.9746C15.6475 20.9826 15.6498 20.9907 15.6544 20.9976L15.6936 21.0528V21.1667C15.6936 21.1724 15.6947 21.1793 15.697 21.1839L15.758 21.3036L15.8351 21.5291L15.8788 21.6154L15.9006 21.6867L15.8604 21.7776L15.7074 21.7902L15.5578 21.7546C15.5532 21.7534 15.5486 21.7534 15.5429 21.7546L15.2829 21.7902H14.8825L14.8181 21.7062V21.5992ZM17.3007 22.829L17.242 22.7474L17.1971 22.5046L17.1511 22.2987C17.1511 22.2941 17.1488 22.2918 17.1477 22.2883L17.0959 22.1998L17.089 22.0905C17.089 22.0859 17.0867 22.0801 17.0844 22.0755L17.0223 21.9616L16.9866 21.7971L16.951 21.6579C16.9498 21.6545 16.9487 21.651 16.9464 21.6476L16.8957 21.559L16.8877 21.4727C16.8865 21.4681 16.8854 21.4646 16.8842 21.46L16.7945 21.2587L16.768 21.0448C16.7669 21.0401 16.7657 21.0355 16.7634 21.0321L16.7048 20.9136V20.7917C16.7048 20.7836 16.7025 20.7756 16.6967 20.7687L16.6403 20.6904V20.5846C16.6403 20.58 16.6392 20.5742 16.6369 20.5685L16.5575 20.3925L16.5023 20.1497C16.5011 20.1451 16.4988 20.1417 16.4965 20.1371L16.4356 20.0404L16.3758 19.8437V19.7321C16.3758 19.7264 16.3746 19.7206 16.3723 19.716L16.3194 19.5975L16.3102 19.5078C16.3102 19.5044 16.309 19.5009 16.3079 19.4975L16.2642 19.3836L16.2561 19.3007C16.255 19.2961 16.2538 19.2927 16.2515 19.2881L16.1537 19.0868L16.1077 18.8475L16.0882 18.7577L16.0272 18.6335V18.5323C16.0272 18.5265 16.026 18.5208 16.0226 18.515L15.9351 18.3378L15.9259 18.2274C15.9259 18.2217 15.9236 18.2171 15.9213 18.2113L15.8017 18.0054C15.7959 17.9927 15.7821 17.9858 15.7683 17.9858L15.4106 17.987L15.2737 17.9582C15.2656 17.9559 15.2587 17.9559 15.2518 17.9594L15.131 18.0008L14.9009 17.9858C14.8825 17.9847 14.8676 17.995 14.8618 18.0123L14.7916 18.2194L14.7215 18.3114C14.7169 18.316 14.7134 18.3229 14.7134 18.3298L14.7042 18.4437L14.634 18.6289C14.6317 18.6335 14.6306 18.6381 14.6306 18.6427V18.7658L14.5351 18.9568C14.5317 18.9625 14.5305 18.9683 14.5305 18.974V19.1052L14.4511 19.2697L14.3671 19.4906C14.366 19.494 14.3648 19.4986 14.3648 19.5032V19.6113L14.3062 19.7379C14.3039 19.7413 14.3027 19.7459 14.3016 19.7505L14.2935 19.8334L14.2475 19.9461L14.2118 20.167L14.152 20.2636C14.1497 20.2671 14.1474 20.2717 14.1463 20.2763L14.0853 20.5915L13.9921 20.8032L13.9277 21.016C13.9277 21.0194 13.9265 21.0229 13.9265 21.0263V21.1149L13.8368 21.3208C13.8357 21.3254 13.8357 21.3312 13.8357 21.3358V21.4681L13.7896 21.5164C13.7862 21.521 13.7827 21.5256 13.7816 21.5314L13.708 21.7948L13.6435 21.9961L13.5906 22.2193L13.5055 22.4379L13.4618 22.6231L13.4077 22.7485C13.4054 22.7531 13.4043 22.7589 13.4043 22.7635V22.875L13.3778 23.0603C13.3755 23.0683 13.3778 23.0775 13.3835 23.0856L13.448 23.1822C13.4537 23.1914 13.4652 23.1983 13.4767 23.1995L13.7609 23.2202H13.7724L13.8909 23.1914H14.0531L14.3177 23.1546C14.3326 23.1523 14.3453 23.1431 14.3499 23.1293L14.4592 22.8198L14.4914 22.7243L14.6237 22.6542L14.7675 22.6611L15.0332 22.6185L15.1805 22.6599C15.1839 22.6611 15.1874 22.6622 15.1908 22.6622H15.6314C15.6349 22.6622 15.6383 22.6611 15.6418 22.6611L15.7729 22.6254H15.9179L16.0479 22.645L16.1894 22.722L16.2055 22.8348C16.2066 22.8394 16.2078 22.844 16.2101 22.8474L16.3758 23.15C16.3804 23.1603 16.3919 23.1673 16.4057 23.1696L16.6196 23.1914L16.7934 23.2282H16.9579C16.9625 23.2282 16.9659 23.2271 16.9694 23.2259L17.2144 23.1511L17.3145 23.0994C17.3294 23.0913 17.3363 23.0752 17.3352 23.0603L17.3076 22.8463C17.3076 22.8405 17.3053 22.8336 17.3007 22.829Z" fill="white"/>
<path fill-rule="evenodd" clip-rule="evenodd" d="M20.625 22.602V22.3868C20.625 22.3661 20.6078 22.3489 20.5871 22.3489H20.3167L20.1948 22.3132C20.189 22.3121 20.1833 22.3109 20.1787 22.3121L20.0291 22.3339L19.921 22.3121L19.6276 22.2971C19.6219 22.2959 19.6173 22.2971 19.6127 22.2994L19.4919 22.3408L19.3953 22.3362L19.2814 22.2327L19.2986 22.0037V21.1317L19.271 20.9408L19.3067 20.8073C19.3078 20.7993 19.3067 20.7901 19.3044 20.782L19.271 20.7084L19.2699 20.606L19.3067 20.3644V20.2379C19.3067 20.2333 19.3067 20.2287 19.3055 20.2241L19.271 20.1447L19.2883 19.9503L19.3067 19.8329V19.8226L19.2802 19.5798L19.2986 19.3877L19.271 19.1645V18.8171L19.2975 18.7262C19.2998 18.7193 19.2986 18.7113 19.2975 18.7044L19.271 18.6238L19.2986 18.3995V18.281C19.2986 18.2776 19.2975 18.273 19.2963 18.2695L19.2227 18.0486C19.2193 18.036 19.2101 18.0268 19.1974 18.0245L18.9685 17.9578C18.9639 17.9566 18.9581 17.9566 18.9512 17.9566L18.6763 17.9992L18.5566 17.9658C18.5497 17.9635 18.5417 17.9635 18.5359 17.9647L18.2794 18.0302C18.2644 18.0348 18.2529 18.0463 18.2518 18.0613L18.1965 18.3696C18.1954 18.3742 18.1954 18.3777 18.1965 18.3823L18.2219 18.5801L18.1885 18.6894C18.1862 18.6963 18.1862 18.7032 18.1873 18.7101L18.2138 18.8091V18.954L18.2219 19.0426L18.1954 19.1312L18.1862 19.2497C18.1862 19.2543 18.1862 19.2589 18.1873 19.2623L18.2219 19.3946L18.1965 19.5936C18.1954 19.5971 18.1954 19.6017 18.1965 19.6051L18.2138 19.7167V20.2563L18.1862 20.5036L18.1873 20.9523L18.2046 21.0409V21.2675L18.2219 21.3802L18.1908 21.4435C18.1873 21.4492 18.1862 21.4561 18.1862 21.4631L18.2046 21.6931L18.2219 21.8185L18.1965 21.9221C18.1954 21.9278 18.1954 21.9336 18.1965 21.9405L18.2207 22.0452L18.1896 22.1142C18.1862 22.1234 18.185 22.1326 18.1885 22.1418L18.223 22.2465V22.4651L18.2149 22.5605L18.1885 22.6572C18.1873 22.6606 18.1862 22.6641 18.1862 22.6675V22.8873C18.1862 22.8919 18.1873 22.8965 18.1885 22.9011L18.2713 23.1219C18.2759 23.1334 18.2851 23.1426 18.2978 23.1461L18.5543 23.2117C18.5601 23.2128 18.5647 23.2128 18.5704 23.2128L18.6889 23.191L18.9547 23.2048L19.0927 23.1841L19.2043 23.2117C19.2089 23.2128 19.2135 23.2128 19.2181 23.2128L19.378 23.1921L19.5092 23.2128H19.523L19.6426 23.1921L19.7634 23.2197H20.0406L20.5445 23.176C20.5606 23.1749 20.5756 23.1622 20.579 23.1472L20.6527 22.8251L20.6619 22.7296C20.6619 22.7239 20.6619 22.7204 20.6607 22.7147L20.625 22.602Z" fill="white"/>
<path fill-rule="evenodd" clip-rule="evenodd" d="M22.4844 18.0504C22.4798 18.0354 22.4671 18.0251 22.4522 18.0239L22.0749 17.9791L21.7896 17.9641C21.7873 17.9641 21.7827 17.9641 21.778 17.9664L21.5215 18.0389C21.5054 18.0435 21.4951 18.0573 21.4939 18.0734L21.4766 18.2505L21.449 18.3541C21.449 18.3575 21.4479 18.361 21.4479 18.3621V18.6164L21.4663 18.8039V19.0305L21.4559 19.1467C21.4559 19.1513 21.4559 19.1548 21.4571 19.1571L21.4743 19.2468L21.4387 19.4734V19.6207C21.4387 19.6264 21.4398 19.631 21.441 19.6345L21.4755 19.7242V19.814L21.4398 19.9347C21.4387 19.9382 21.4387 19.9416 21.4387 19.9451V20.2523L21.4743 20.4731L21.449 20.5997C21.4479 20.6054 21.4479 20.6123 21.449 20.6169L21.4732 20.709L21.441 20.801C21.4375 20.8079 21.4375 20.8183 21.441 20.8263L21.4755 20.916V21.0058L21.441 21.1105C21.4398 21.1139 21.4387 21.1185 21.4387 21.122V21.2704C21.4387 21.275 21.4398 21.2807 21.4421 21.2853L21.472 21.352L21.441 21.4406C21.4387 21.4475 21.4375 21.4544 21.4398 21.4625L21.4663 21.5787V21.803L21.4743 21.9065L21.4398 22.0319C21.4387 22.0354 21.4387 22.0388 21.4387 22.0423V22.2413C21.4387 22.2448 21.4398 22.2482 21.441 22.2528L21.4732 22.3529L21.4479 22.4622L21.449 22.9051L21.5031 23.1398C21.5066 23.1559 21.5215 23.1685 21.5399 23.1697L21.8183 23.1835L21.9414 23.2203L22.0703 23.2284H22.0726C22.076 23.2284 22.0772 23.2284 22.0795 23.2272L22.2141 23.1996L22.451 23.1766C22.4683 23.1754 22.4832 23.1616 22.4856 23.1444L22.5408 22.7855L22.5592 22.69L22.558 22.5634L22.5419 22.4909L22.5408 22.2655L22.5235 22.1424L22.5569 22.0549C22.5592 22.0503 22.5592 22.0446 22.5592 22.0377L22.5316 21.8042L22.5224 21.6926L22.5419 21.4901L22.5408 21.1726L22.5592 21.0414V20.8091L22.5408 20.6066L22.5592 20.4789L22.5408 20.2787L22.5235 20.1441L22.5592 19.952C22.5592 19.9462 22.5592 19.9416 22.558 19.937L22.5339 19.8278L22.558 19.7346C22.5592 19.73 22.5592 19.7254 22.5592 19.7208L22.5419 19.5114L22.5408 18.82L22.5235 18.7188L22.558 18.5945C22.5592 18.5911 22.5592 18.5876 22.5592 18.5842V18.2897C22.5592 18.2851 22.5592 18.2816 22.5569 18.2782L22.4844 18.0504Z" fill="white"/>
<path fill-rule="evenodd" clip-rule="evenodd" d="M26.5781 18.2751L26.5321 18.0254C26.5298 18.0093 26.5148 17.9955 26.4987 17.9944L26.1985 17.9633L25.9143 17.9863L25.8073 17.9713H25.3587C25.3564 17.9713 25.3518 17.9713 25.3483 17.9725L25.2574 18.0001L25.0964 17.9633L24.9491 17.9575C24.9434 17.9575 24.9388 17.9575 24.9342 17.9598L24.8157 18.0001L24.5591 17.9644C24.5545 17.9633 24.5499 17.9633 24.5453 17.9644L24.4061 17.9932L24.26 17.9713H23.9954C23.992 17.9713 23.9885 17.9713 23.9851 17.9725L23.8816 18.0013L23.7159 17.9863C23.7113 17.9863 23.7067 17.9863 23.7032 17.9875L23.4743 18.0392C23.4617 18.0415 23.4524 18.0496 23.4467 18.0599L23.365 18.2451C23.3616 18.2509 23.3604 18.2601 23.3627 18.2682L23.38 18.3475V18.5845C23.38 18.5868 23.3811 18.5903 23.3823 18.5937L23.4455 18.8157C23.4501 18.8307 23.464 18.8411 23.4801 18.8422L23.8942 18.8733H24.1807L24.2957 18.8664L24.405 18.9423V19.07L24.4234 19.1459L24.4142 19.2506C24.4142 19.2541 24.4142 19.2575 24.4153 19.261L24.4418 19.3875L24.4142 19.5808L24.4418 19.8408L24.405 20.057C24.405 20.0605 24.4038 20.0639 24.405 20.0685L24.4326 20.2802L24.4234 20.3976L24.4418 20.5747L24.4061 20.7082C24.405 20.7128 24.4038 20.7174 24.405 20.7231L24.4326 20.9198L24.4429 21.028L24.405 21.2408C24.4038 21.2454 24.4038 21.25 24.405 21.2546L24.4326 21.3881L24.405 21.5652C24.4038 21.5687 24.4038 21.5721 24.405 21.5767L24.4418 21.8287V21.9046L24.4153 22.0024C24.4142 22.0093 24.4142 22.0162 24.4153 22.0219L24.4406 22.122L24.4061 22.2302C24.405 22.2348 24.4038 22.2405 24.405 22.2463L24.4234 22.359L24.405 22.4648L24.4234 22.7018L24.405 22.7846C24.405 22.7893 24.4038 22.7939 24.405 22.7985L24.4257 22.9457L24.4901 23.1217C24.4936 23.1344 24.5051 23.1436 24.5189 23.1459L24.7754 23.1976C24.7789 23.1988 24.7823 23.1988 24.7869 23.1988L24.9169 23.185L25.0101 23.2126C25.0136 23.2138 25.017 23.2138 25.0205 23.2138H25.0216L25.1677 23.2045L25.4242 23.139C25.4381 23.1355 25.4496 23.124 25.4519 23.1102L25.5266 22.8008V22.1163C25.5266 22.1117 25.5255 22.1071 25.5243 22.1036L25.499 22.0323L25.4898 21.9287L25.5243 21.8011C25.5266 21.7976 25.5266 21.7918 25.5255 21.7872L25.499 21.5963L25.5163 21.3673L25.499 21.2477V21.0625L25.5255 20.9083C25.5266 20.9003 25.5255 20.8922 25.5232 20.8865L25.4933 20.8186L25.5243 20.722C25.5266 20.7151 25.5266 20.707 25.5243 20.699L25.499 20.6092L25.4979 20.2641L25.5255 20.1537C25.5266 20.1468 25.5266 20.141 25.5255 20.1353L25.499 20.0237L25.5071 19.9098L25.491 19.8074L25.5151 19.7119C25.5174 19.705 25.5174 19.6981 25.5151 19.6912L25.491 19.6038L25.5255 19.3921C25.5266 19.3886 25.5266 19.384 25.5255 19.3794L25.5071 19.2828V19.1356L25.491 19.0493L25.5128 18.9665L25.6486 18.8491L25.7406 18.8434L25.8902 18.8733L26.1881 18.8721L26.4907 18.8273C26.5068 18.8261 26.5194 18.8134 26.5229 18.7973L26.5701 18.5615L26.5689 18.3602L26.5781 18.2877C26.5793 18.2831 26.5793 18.2797 26.5781 18.2751Z" fill="white"/>
<path fill-rule="evenodd" clip-rule="evenodd" d="M28.032 17.638C28.0389 17.6495 28.0504 17.6575 28.0619 17.6587L28.3 17.6794L28.4553 17.6587C28.4622 17.6575 28.468 17.6552 28.4737 17.6506L28.7337 17.4631L28.8039 17.3929L28.9914 17.248L29.1743 17.049C29.1835 17.0397 29.187 17.0282 29.1847 17.0167L29.1651 16.9213C29.164 16.9121 29.1594 16.904 29.1524 16.8982L29.0328 16.8028C29.0259 16.7982 29.0179 16.7947 29.0098 16.7947H28.4139C28.4012 16.7947 28.3897 16.7993 28.3828 16.8097L28.193 17.0789L28.0918 17.1893C28.0883 17.1939 28.0849 17.1997 28.0837 17.2054L28.0676 17.2641L27.9595 17.47C27.9526 17.4804 27.9526 17.4942 27.9595 17.5057L28.032 17.638Z" fill="white"/>
<path fill-rule="evenodd" clip-rule="evenodd" d="M29.9991 22.7336C30.0003 22.729 30.0003 22.7244 29.9991 22.7198L29.9439 22.3678C29.9416 22.3505 29.9278 22.3367 29.9117 22.3344L29.6218 22.2976H29.1122L28.8614 22.3413L28.5956 22.3218L28.4772 22.2067L28.4967 22.1411C28.4979 22.1377 28.4979 22.1342 28.4979 22.1308V21.6913L28.4806 21.5579L28.4979 21.4613V21.3301L28.6175 21.276L28.8556 21.2335L29.1559 21.2565H29.4423L29.7265 21.2335C29.7437 21.2323 29.7587 21.2197 29.761 21.2024L29.7978 20.9884V20.9769L29.7806 20.8607L29.7978 20.6318L29.7714 20.4178C29.7691 20.4006 29.7541 20.3868 29.7368 20.3845L29.4446 20.3488C29.4389 20.3477 29.4343 20.3477 29.4297 20.3488L29.2893 20.3845L29.1697 20.3776L28.9994 20.3925H28.5864L28.4887 20.2821L28.4622 19.9634L28.4967 19.83C28.4979 19.8265 28.4979 19.8231 28.4979 19.8196V18.9706L28.6106 18.8866L28.9626 18.8855L29.0823 18.8579L29.6299 18.8567L29.8864 18.805C29.8979 18.8027 29.9083 18.7946 29.914 18.7831L29.9957 18.6071C30.0003 18.5979 30.0003 18.5887 29.998 18.5818L29.9738 18.4852L29.9899 18.3529V18.3437L29.9531 18.071C29.9508 18.0538 29.937 18.0399 29.9209 18.0376L29.3526 17.9571C29.3492 17.956 29.3446 17.9571 29.3411 17.9571L29.2272 17.9778L29.1076 17.964L28.8177 17.9859H28.5485L28.4208 17.964C28.415 17.964 28.4093 17.964 28.4035 17.964L28.2758 17.9997L28.1573 17.9721C28.1539 17.9709 28.1481 17.9709 28.1435 17.9709L28.0411 17.9859L27.7708 17.9709L27.4855 17.9939C27.4694 17.9951 27.4544 18.0077 27.451 18.0238L27.405 18.2597V18.27L27.4142 18.3713L27.3774 18.6209V18.8268C27.3774 18.8291 27.3785 18.8337 27.3797 18.8372L27.405 18.9212V19.3825L27.3866 19.5803C27.3866 19.5838 27.3866 19.5872 27.3866 19.5907L27.405 19.6908L27.3866 19.9105L27.405 20.1302L27.3866 20.2637C27.3866 20.266 27.3866 20.2694 27.3866 20.2729L27.413 20.4639L27.3797 20.5731C27.3785 20.5766 27.3774 20.5812 27.3774 20.5846V20.725C27.3774 20.7296 27.3785 20.7342 27.3797 20.7388L27.405 20.8044V21.0414L27.3797 21.1173C27.3774 21.1253 27.3774 21.1322 27.3797 21.1391L27.413 21.2645L27.3866 21.4475C27.3866 21.4521 27.3866 21.4567 27.3866 21.4613L27.4142 21.5936V21.8144L27.3958 21.9352L27.4038 22.0388L27.3774 22.1515L27.3785 22.3632L27.405 22.5979L27.3866 22.7969C27.3866 22.8003 27.3866 22.8049 27.3866 22.8072L27.4602 23.1316C27.4648 23.1466 27.4774 23.1581 27.4924 23.1616L27.9112 23.2283H28.0101C28.0147 23.2283 28.0181 23.2283 28.0216 23.2271L28.1688 23.1857L28.4047 23.2283H28.5669L28.6877 23.2053H29.233L29.3526 23.2202C29.3572 23.2214 29.3618 23.2214 29.3664 23.2191L29.4964 23.1846L29.646 23.1984C29.6506 23.1995 29.6552 23.1984 29.6586 23.1972L29.8967 23.1386C29.9094 23.1363 29.9198 23.127 29.9244 23.1155L29.9968 22.9315C29.9991 22.9246 30.0003 22.9177 29.9991 22.9108L29.9819 22.8141L29.9991 22.7336Z" fill="white"/>
</svg>
