<svg xmlns="http://www.w3.org/2000/svg" fill="none" viewBox="0 0 38 24"><mask id="A" maskUnits="userSpaceOnUse" x="0" y="0" width="39" height="24" mask-type="alpha"><path d="M36.158 0H1.927A1.93 1.93 0 0 0 0 1.927v20.145A1.93 1.93 0 0 0 1.927 24h34.231a1.93 1.93 0 0 0 1.927-1.927V1.927A1.93 1.93 0 0 0 36.158 0z" fill="#00bac0"/></mask><g mask="url(#A)"><path d="M36.158 0H1.927A1.93 1.93 0 0 0 0 1.927v20.145A1.93 1.93 0 0 0 1.927 24h34.231a1.93 1.93 0 0 0 1.927-1.927V1.927A1.93 1.93 0 0 0 36.158 0z" fill="#00bac0"/><path d="M5.055 2.352c-.001.05-.026.096-.068.124l-.788.716a.64.64 0 0 0 .139-.361c.01-.069-.01-.14-.056-.193s-.112-.084-.182-.085a.24.24 0 0 0-.236.233c.004.091.044.177.112.238.015.014.023.033.023.053-.001.086-.161.187-.339.183-.302-.009-.409-.432-.396-.93s.123-.951.436-.933c.182.004.322.11.33.201.004.018 0 .038-.011.053-.072.057-.117.141-.125.232-.001.13.098.238.227.248a.25.25 0 0 0 .25-.268c0-.133-.042-.264-.121-.371l.751.757c.038.029.061.075.06.123l-.006-.022zm-2.278-.021c-.002.308.109.605.313.836l-.787-.716c-.039-.029-.062-.075-.063-.124s.024-.096.064-.124l.771-.734c.017.009.016.015.013.02-.205.232-.317.531-.317.841l.007.001zM9.1 8.094C8.817 4.05 3.325.307 2.21-.41c-.053-.035-.119-.046-.181-.032s-.116.053-.149.107c-.27.443-.423.947-.446 1.466-.038.99.537 1.63 1.217 2.199S5.673 5.553 6 8.447c.282 2.622-1.388 3.848-2.593 3.962-1.124.106-2.664-1.032-2.651-3.771.005-2.378.976-2.966.881-3.611-.121-.716-.54-.805-.86-.746S-.854 7.07-.613 12.693a30.41 30.41 0 0 0 2.073 9.739c.644 1.518 3.08 2.274 3.37 1.849s-2.414-6.51-2.636-9.834c-.003-.072.038-.138.104-.166s.142-.013.192.039a2.43 2.43 0 0 0 2.143.604c1.947-.277 4.777-2.33 4.463-6.83l.003.001zm24.308-1.369c-.181-.197-.306-.438-.363-.699-.039-.385.356-.456.425-.068.016.257-.005.516-.063.767zm-5.262 5.718c.086 1.786-1.668 2.294-1.972 1.887-.231-.311.024-.827 1.956-2.07-.012.056.012.12.016.183zm5.973-.388c-.206 1.683-2.155 2.373-2.298 1.538s.879-1.032 2.298-1.538zm6.22-3.581c-.455-.197-.743.653-1.534 1.255a8.44 8.44 0 0 1-2.407 1.304c-.216-1.292-.968-2.301-1.665-3.116a3.23 3.23 0 0 0 .152-1.269c-.082-1.236-1.42-1.959-2.14-1.173-.607.662-.179 1.557.489 2.866-.786.913-1.735 1.671-2.799 2.236-.04-.167-.087-.339-.145-.518-.763-2.324-2.011-3.141-2.647-3.415a1.2 1.2 0 0 0-1.007.01c-.242.119-.424.335-.499.595-.202.758-2.261 4.774-5.517 4.842-2.285.06-3.831-2.506-3.897-3.107s-.652-.394-.847.006-.243 3.159-2.453 3.418-2.065-4.727.878-6.373c.243-.135.429-.037.441.246.026.513.405.939.982.609.499-.287.364-1.549-.659-2.063-.811-.39-3.81.022-5.395 4.671-1.47 4.366 1.356 5.723 3.016 5.302 1.404-.351 2.385-.823 3.653-3.885.104-.247.331-.209.481-.039.56.613 1.889 2.29 4.066 2.245 3.886-.106 5.09-4.18 6.109-3.725.445.195 1.057.974 1.321 2.214a9.99 9.99 0 0 0-2.394 1.632 2.25 2.25 0 0 0-.242.328.34.34 0 0 0-.028.049c-.583 1.022.496 2.004 1.777 1.697 1.604-.384 3.368-1.68 3.122-4.098.159-.083 2.13-.987 2.974-1.664.059-.046.136-.064.209-.048s.136.063.171.129a5.81 5.81 0 0 1 .589 1.827c-1.112.178-2.075.391-2.793.939-1.167.891-.679 2.935 1.37 2.908 1.474-.032 3.524-1.571 3.385-3.838 1.394-.515 2.806-1.13 3.646-1.932.685-.655.373-1.025.23-1.084" fill="#fff"/><path d="M34.419 18.546l-2.124-.004-.008 3.772 2.124.005.008-3.772z" fill="#ec662b"/><path d="M32.422 20.423a2.39 2.39 0 0 1 .93-1.874 2.4 2.4 0 0 0-3.25 3.506 2.4 2.4 0 0 0 3.242.266 2.39 2.39 0 0 1-.922-1.898z" fill="#e5232d"/><path d="M37.923 21.92l.016-.076.033.007h-.083l.03.006-.016.076.02-.013zm.156-.002l.019-.089-.023-.005-.014.066-.028-.065-.023-.005.001.093.014-.066.028.061.013-.063-.014.066.026.006zm-.797-1.485c-.012 1.333-1.102 2.404-2.435 2.393a2.45 2.45 0 0 1-1.499-.515c.592-.445.942-1.141.945-1.882s-.342-1.44-.931-1.889c.73-.566 1.718-.67 2.55-.269s1.365 1.239 1.377 2.163l-.007-.001z" fill="#f59b2a"/></g></svg>