<svg width="27" height="26" viewBox="0 0 27 26" fill="none" xmlns="http://www.w3.org/2000/svg">
<path fill-rule="evenodd" clip-rule="evenodd" d="M15.6665 3.25C15.9538 3.25 16.2294 3.36414 16.4325 3.5673C16.6357 3.77047 16.7498 4.04602 16.7498 4.33333C16.7504 5.33208 17.0957 6.30003 17.7273 7.07372C18.3589 7.84741 19.2381 8.37945 20.2165 8.58C20.4981 8.63746 20.7453 8.80443 20.9038 9.04416C21.0622 9.2839 21.119 9.57676 21.0615 9.85833C21.004 10.1399 20.8371 10.3871 20.5973 10.5456C20.3576 10.7041 20.0647 10.7608 19.7832 10.7033C18.6546 10.472 17.6077 9.94482 16.7498 9.17583V18.4167C16.7498 19.488 16.4322 20.5352 15.837 21.426C15.2418 22.3168 14.3958 23.011 13.406 23.421C12.4163 23.831 11.3272 23.9383 10.2764 23.7293C9.2257 23.5203 8.26055 23.0044 7.50301 22.2468C6.74548 21.4893 6.22959 20.5241 6.02059 19.4734C5.81158 18.4227 5.91885 17.3336 6.32883 16.3438C6.7388 15.354 7.43307 14.5081 8.32383 13.9129C9.2146 13.3177 10.2619 13 11.3332 13C11.6205 13 11.896 13.1141 12.0992 13.3173C12.3024 13.5205 12.4165 13.796 12.4165 14.0833C12.4165 14.3707 12.3024 14.6462 12.0992 14.8494C11.896 15.0525 11.6205 15.1667 11.3332 15.1667C10.6904 15.1667 10.062 15.3573 9.52757 15.7144C8.99311 16.0715 8.57655 16.5791 8.33056 17.1729C8.08458 17.7668 8.02022 18.4203 8.14562 19.0507C8.27102 19.6812 8.58056 20.2602 9.03508 20.7148C9.4896 21.1693 10.0687 21.4788 10.6991 21.6042C11.3296 21.7296 11.983 21.6653 12.5769 21.4193C13.1708 21.1733 13.6783 20.7567 14.0354 20.2223C14.3926 19.6878 14.5832 19.0595 14.5832 18.4167V4.33333C14.5832 4.04602 14.6973 3.77047 14.9005 3.5673C15.1036 3.36414 15.3792 3.25 15.6665 3.25Z" fill="black"/>
</svg>
