<svg width="25" height="24" viewBox="0 0 25 24" fill="none" xmlns="http://www.w3.org/2000/svg">
<path fill-rule="evenodd" clip-rule="evenodd" d="M10.886 8.35696C10.7722 8.28865 10.6423 8.25176 10.5096 8.25006C10.3769 8.24837 10.2461 8.28192 10.1306 8.3473C10.015 8.41268 9.91896 8.50755 9.8521 8.62221C9.78524 8.73687 9.75001 8.86723 9.75 8.99996V15C9.75001 15.1327 9.78524 15.263 9.8521 15.3777C9.91896 15.4924 10.015 15.5872 10.1306 15.6526C10.2461 15.718 10.3769 15.7515 10.5096 15.7499C10.6423 15.7482 10.7722 15.7113 10.886 15.643L15.886 12.643C15.997 12.5763 16.0889 12.4821 16.1526 12.3694C16.2164 12.2567 16.2499 12.1294 16.2499 12C16.2499 11.8705 16.2164 11.7432 16.1526 11.6305C16.0889 11.5179 15.997 11.4236 15.886 11.357L10.886 8.35696ZM14.042 12L11.25 13.675V10.325L14.042 12Z" fill="black"/>
<path fill-rule="evenodd" clip-rule="evenodd" d="M17.5299 4.64101C14.1817 4.3791 10.8181 4.3791 7.46991 4.64101L5.22891 4.81701C4.56674 4.86863 3.94089 5.14034 3.45104 5.58887C2.9612 6.0374 2.63553 6.63694 2.52591 7.29201C2.00569 10.4091 2.00569 13.5909 2.52591 16.708C2.63553 17.3631 2.9612 17.9626 3.45104 18.4112C3.94089 18.8597 4.56674 19.1314 5.22891 19.183L7.46891 19.359C10.8179 19.621 14.1819 19.621 17.5309 19.359L19.7709 19.183C20.4331 19.1314 21.0589 18.8597 21.5488 18.4112C22.0386 17.9626 22.3643 17.3631 22.4739 16.708C22.9939 13.591 22.9939 10.409 22.4739 7.29201C22.3643 6.63694 22.0386 6.0374 21.5488 5.58887C21.0589 5.14034 20.4331 4.86863 19.7709 4.81701L17.5299 4.64101ZM7.58691 6.13701C10.8579 5.88109 14.1439 5.88109 17.4149 6.13701L19.6549 6.31201C20.3309 6.36501 20.8839 6.87201 20.9949 7.54001C21.4895 10.4928 21.4895 13.5072 20.9949 16.46C20.9407 16.7849 20.7794 17.0824 20.5365 17.3049C20.2937 17.5275 19.9833 17.6623 19.6549 17.688L17.4149 17.863C14.1439 18.1189 10.8579 18.1189 7.58691 17.863L5.34691 17.688C5.0185 17.6623 4.70814 17.5275 4.46529 17.3049C4.22243 17.0824 4.06107 16.7849 4.00691 16.46C3.51236 13.5072 3.51236 10.4928 4.00691 7.54001C4.06107 7.21509 4.22243 6.91764 4.46529 6.69509C4.70814 6.47253 5.0185 6.33768 5.34691 6.31201L7.58691 6.13701Z" fill="black"/>
</svg>
