<svg width="20" height="21" viewBox="0 0 20 21" fill="none" xmlns="http://www.w3.org/2000/svg">
<g id="Group">
<path id="Vector" d="M18.5 4.60974H1.5M16.833 7.10974L16.373 14.0097C16.196 16.6637 16.108 17.9907 15.243 18.7997C14.378 19.6087 13.047 19.6097 10.387 19.6097H9.613C6.953 19.6097 5.622 19.6097 4.757 18.7997C3.892 17.9907 3.803 16.6637 3.627 14.0097L3.167 7.10974" stroke="#0970E6" stroke-width="1.5" stroke-linecap="round"/>
<path id="Vector_2" d="M4.5 4.60974H4.61C5.01245 4.59946 5.40242 4.46796 5.72892 4.23245C6.05543 3.99694 6.30325 3.66838 6.44 3.28974L6.474 3.18674L6.571 2.89574C6.654 2.64674 6.696 2.52274 6.751 2.41674C6.85921 2.20913 7.01451 2.02973 7.20448 1.8929C7.39444 1.75607 7.6138 1.6656 7.845 1.62874C7.962 1.60974 8.093 1.60974 8.355 1.60974H11.645C11.907 1.60974 12.038 1.60974 12.155 1.62874C12.3862 1.6656 12.6056 1.75607 12.7955 1.8929C12.9855 2.02973 13.1408 2.20913 13.249 2.41674C13.304 2.52274 13.346 2.64674 13.429 2.89574L13.526 3.18674C13.6527 3.60801 13.9148 3.97575 14.2717 4.233C14.6285 4.49026 15.0603 4.62267 15.5 4.60974" stroke="#0970E6" stroke-width="1.5"/>
</g>
</svg>
