<svg width="24" height="25" viewBox="0 0 24 25" fill="none" xmlns="http://www.w3.org/2000/svg">
<g id="voir plus/Faciliti/Heart">
<path id="Vector" d="M12.1 19.1597L12 19.2597L11.89 19.1597C7.14 14.8497 4 11.9997 4 9.10974C4 7.10974 5.5 5.60974 7.5 5.60974C9.04 5.60974 10.54 6.60974 11.07 7.96974H12.93C13.46 6.60974 14.96 5.60974 16.5 5.60974C18.5 5.60974 20 7.10974 20 9.10974C20 11.9997 16.86 14.8497 12.1 19.1597ZM16.5 3.60974C14.76 3.60974 13.09 4.41974 12 5.68974C10.91 4.41974 9.24 3.60974 7.5 3.60974C4.42 3.60974 2 6.01974 2 9.10974C2 12.8797 5.4 15.9697 10.55 20.6397L12 21.9597L13.45 20.6397C18.6 15.9697 22 12.8797 22 9.10974C22 6.01974 19.58 3.60974 16.5 3.60974Z" fill="#0970E6"/>
</g>
</svg>
