<svg width="153" height="153" viewBox="0 0 153 153" fill="none" xmlns="http://www.w3.org/2000/svg">
<g id="svg/panier">
<path id="Vector" d="M79.0082 153C110.862 153 136.697 147.946 136.697 141.713C136.697 135.48 110.862 130.426 79.0082 130.426C47.1541 130.426 21.3197 135.48 21.3197 141.713C21.3197 147.946 47.1541 153 79.0082 153Z" fill="#F0F3F6"/>
<path id="Vector_2" d="M117.083 128.006H47.3171C43.7389 127.82 40.3685 126.268 37.9015 123.669C35.4345 121.071 34.059 117.624 34.059 114.041C34.059 110.458 35.4345 107.012 37.9015 104.414C40.3685 101.815 43.7389 100.263 47.3171 100.077H98.1583C98.5861 100.029 99.0191 100.073 99.4291 100.204C99.8391 100.335 100.217 100.551 100.538 100.838C100.858 101.125 101.115 101.476 101.291 101.869C101.466 102.262 101.557 102.688 101.557 103.118C101.557 103.549 101.466 103.974 101.291 104.367C101.115 104.76 100.858 105.112 100.538 105.399C100.217 105.686 99.8391 105.902 99.4291 106.033C99.0191 106.164 98.5861 106.207 98.1583 106.159H47.3171C45.2317 106.159 43.2317 106.988 41.757 108.462C40.2824 109.937 39.4539 111.937 39.4539 114.023C39.4539 116.108 40.2824 118.108 41.757 119.583C43.2317 121.057 45.2317 121.886 47.3171 121.886H117.083C117.894 121.886 118.673 122.208 119.246 122.782C119.82 123.356 120.143 124.134 120.143 124.946C120.143 125.757 119.82 126.536 119.246 127.11C118.673 127.683 117.894 128.006 117.083 128.006Z" fill="#FFC9CE"/>
<path id="Vector_3" d="M47.3171 106.159C46.5672 106.16 45.8439 105.882 45.2876 105.379C44.7314 104.876 44.382 104.184 44.3073 103.438L39.2533 53.3995H26.2608C25.6179 53.4678 24.9698 53.3307 24.4096 53.0079C23.8494 52.685 23.4059 52.193 23.1427 51.6025C22.8794 51.012 22.81 50.3532 22.9444 49.7208C23.0787 49.0883 23.41 48.5147 23.8906 48.0822C24.2114 47.7939 24.5895 47.5768 25.0002 47.4449C25.4108 47.3131 25.8447 47.2696 26.2733 47.3172H41.9997C42.7598 47.3132 43.4941 47.5922 44.0598 48.0999C44.6254 48.6075 44.9819 49.3076 45.0597 50.0636L50.3771 102.824C50.4294 103.231 50.3993 103.644 50.2885 104.039C50.1777 104.434 49.9886 104.803 49.7324 105.124C49.4761 105.445 49.158 105.71 48.7969 105.905C48.4359 106.101 48.0392 106.221 47.6306 106.26L47.3171 106.159Z" fill="#FFC9CE"/>
<path id="Vector_4" d="M53.6754 141.575C56.8834 141.575 59.96 140.301 62.2284 138.032C64.4968 135.764 65.7712 132.687 65.7712 129.479C65.7712 126.271 64.4968 123.195 62.2284 120.926C59.96 118.658 56.8834 117.384 53.6754 117.384C50.4674 117.384 47.3908 118.658 45.1224 120.926C42.854 123.195 41.5797 126.271 41.5797 129.479C41.5797 132.687 42.854 135.764 45.1224 138.032C47.3908 140.301 50.4674 141.575 53.6754 141.575Z" fill="#262626"/>
<path id="Vector_5" d="M53.6754 135.794C55.3517 135.794 56.9594 135.128 58.1448 133.942C59.3301 132.757 59.9961 131.149 59.9961 129.473C59.9961 127.797 59.3301 126.189 58.1448 125.004C56.9594 123.818 55.3517 123.152 53.6754 123.152C51.9991 123.152 50.3914 123.818 49.206 125.004C48.0207 126.189 47.3547 127.797 47.3547 129.473C47.3547 131.149 48.0207 132.757 49.206 133.942C50.3914 135.128 51.9991 135.794 53.6754 135.794Z" fill="white"/>
<path id="Vector_6" d="M103.25 141.575C106.458 141.575 109.535 140.301 111.803 138.032C114.071 135.764 115.346 132.687 115.346 129.479C115.346 126.271 114.071 123.195 111.803 120.926C109.535 118.658 106.458 117.384 103.25 117.384C100.042 117.384 96.9653 118.658 94.697 120.926C92.4286 123.195 91.1542 126.271 91.1542 129.479C91.1542 132.687 92.4286 135.764 94.697 138.032C96.9653 140.301 100.042 141.575 103.25 141.575Z" fill="#262626"/>
<path id="Vector_7" d="M103.25 135.794C104.926 135.794 106.534 135.128 107.719 133.942C108.905 132.757 109.571 131.149 109.571 129.473C109.571 127.797 108.905 126.189 107.719 125.004C106.534 123.818 104.926 123.152 103.25 123.152C101.574 123.152 99.9658 123.818 98.7805 125.004C97.5951 126.189 96.9292 127.797 96.9292 129.473C96.9292 131.149 97.5951 132.757 98.7805 133.942C99.9658 135.128 101.574 135.794 103.25 135.794Z" fill="white"/>
<path id="Vector_8" d="M93.932 107.401H44.2321C43.3359 107.406 42.4699 107.077 41.8024 106.479C41.1349 105.881 40.7136 105.057 40.6203 104.165L35.8547 61.7142C35.8006 61.1974 35.858 60.675 36.0228 60.1822C36.1877 59.6894 36.4562 59.2377 36.8103 58.8574C37.1644 58.4772 37.5959 58.1772 38.0758 57.9777C38.5556 57.7783 39.0726 57.6839 39.5919 57.7011H117.948C118.473 57.7165 118.988 57.8462 119.457 58.0811C119.927 58.316 120.34 58.6504 120.667 59.0611C120.994 59.4717 121.228 59.9488 121.351 60.459C121.475 60.9692 121.486 61.5002 121.384 62.0152L116.155 88.9783C115.149 94.1437 112.386 98.8015 108.335 102.16C104.284 105.519 99.1942 107.37 93.932 107.401Z" fill="#F04342"/>
<path id="Vector_9" opacity="0.41" d="M119.453 57.6885L113.37 87.4733C112.57 92.2279 110.127 96.5512 106.468 99.6905C102.808 102.83 98.1636 104.586 93.3425 104.654H48.8722C48.0635 104.61 47.2966 104.28 46.7068 103.725C46.1171 103.17 45.7425 102.424 45.6492 101.62L41.3853 61.8145C41.3388 61.352 41.3866 60.885 41.5259 60.4415C41.6651 59.9981 41.8928 59.5876 42.1953 59.2347C42.4978 58.8818 42.8687 58.594 43.2856 58.3885C43.7025 58.1831 44.1567 58.0644 44.6208 58.0396" fill="url(#paint0_linear_735_8411)"/>
<path id="Vector_10" d="M90.6713 78.1554C91.3909 78.1554 92.0812 77.8704 92.5912 77.3628C93.1012 76.8551 93.3894 76.1661 93.3927 75.4466C93.3927 73.9416 92.1762 72.7377 90.6713 72.7377C90.3145 72.736 89.9609 72.8049 89.6308 72.9403C89.3007 73.0757 89.0006 73.275 88.7477 73.5267C88.4949 73.7784 88.2942 74.0775 88.1573 74.407C88.0204 74.7365 87.9499 75.0898 87.9499 75.4466C87.9499 76.9515 89.1664 78.1554 90.6713 78.1554ZM66.6804 78.1554C67.4 78.1554 68.0903 77.8704 68.6003 77.3628C69.1103 76.8551 69.3985 76.1661 69.4018 75.4466C69.4018 73.9416 68.1853 72.7377 66.6804 72.7377C66.3236 72.736 65.97 72.8049 65.6399 72.9403C65.3098 73.0757 65.0097 73.275 64.7568 73.5267C64.5039 73.7784 64.3033 74.0775 64.1664 74.407C64.0295 74.7365 63.959 75.0898 63.959 75.4466C63.959 76.9515 65.1755 78.1554 66.6804 78.1554ZM78.795 86.9592C80.4639 86.8816 82.1301 87.1627 83.6813 87.7836C85.2324 88.4045 86.6324 89.3507 87.7869 90.5584C87.9847 90.7661 88.1168 91.0277 88.1664 91.3103C88.2161 91.5928 88.1811 91.8837 88.0658 92.1465C87.9505 92.4092 87.7601 92.6319 87.5186 92.7867C87.2771 92.9415 86.9952 93.0215 86.7083 93.0165C86.3251 93.0097 85.9601 92.8519 85.6925 92.5775C84.8764 91.7311 83.9014 91.054 82.8233 90.5849C81.7451 90.1157 80.5851 89.8638 79.4095 89.8436C77.0334 89.8007 74.7375 90.7029 73.0261 92.3518C72.7502 92.6184 72.3815 92.7675 71.9978 92.7675C71.614 92.7675 71.2453 92.6184 70.9694 92.3518C70.7597 92.1509 70.6162 91.8908 70.5579 91.6063C70.4997 91.3218 70.5295 91.0263 70.6433 90.7591C70.7186 90.5835 70.8314 90.4205 70.9694 90.2951C73.0617 88.2404 75.8513 87.0494 78.7824 86.9592H78.795Z" fill="#303336"/>
<path id="Vector_11" fill-rule="evenodd" clip-rule="evenodd" d="M85.5295 35.4408C85.2507 35.4543 84.9721 35.4122 84.7097 35.317C84.4473 35.2219 84.2064 35.0756 84.0011 34.8865C83.7957 34.6975 83.63 34.4696 83.5135 34.216C83.3969 33.9623 83.332 33.6881 83.3223 33.4092L82.8708 21.9592C82.8476 21.3988 83.0479 20.8521 83.4277 20.4393C83.8075 20.0265 84.3358 19.7816 84.8962 19.7583C85.4567 19.735 86.0034 19.9353 86.4161 20.3151C86.8289 20.695 87.0739 21.2232 87.0971 21.7837L87.5486 33.2461C87.5604 33.5239 87.517 33.8012 87.4211 34.0621C87.3252 34.3231 87.1786 34.5624 86.9897 34.7664C86.8009 34.9705 86.5735 35.1351 86.3208 35.2508C86.068 35.3665 85.7948 35.4311 85.517 35.4408H85.5295ZM93.8693 38.1873C93.6332 38.0412 93.4284 37.8499 93.2665 37.6244C93.1046 37.3989 92.9888 37.1437 92.9259 36.8733C92.863 36.6029 92.8541 36.3228 92.8998 36.049C92.9454 35.7752 93.0448 35.5131 93.1921 35.2778L99.2368 25.5334C99.5312 25.0578 100.002 24.7186 100.547 24.5904C101.091 24.4622 101.664 24.5556 102.14 24.8499C102.616 25.1443 102.955 25.6155 103.083 26.16C103.211 26.7045 103.118 27.2775 102.824 27.7532L96.7788 37.4975C96.6337 37.7346 96.4432 37.9406 96.2182 38.1038C95.9931 38.2669 95.7381 38.3839 95.4676 38.448C95.1972 38.5121 94.9167 38.5221 94.6424 38.4773C94.3681 38.4326 94.1053 38.334 93.8693 38.1873ZM100.842 44.3951C100.726 44.1431 100.661 43.8709 100.651 43.5939C100.641 43.3168 100.685 43.0405 100.782 42.7807C100.879 42.5209 101.026 42.2827 101.215 42.0799C101.404 41.877 101.631 41.7134 101.883 41.5984L112.292 36.8078C112.544 36.6917 112.816 36.6263 113.094 36.6155C113.371 36.6046 113.647 36.6485 113.908 36.7446C114.168 36.8407 114.407 36.9871 114.61 37.1754C114.814 37.3638 114.979 37.5904 115.095 37.8424C115.211 38.0944 115.276 38.3667 115.287 38.644C115.298 38.9212 115.254 39.1979 115.158 39.4581C115.062 39.7184 114.916 39.9572 114.727 40.1609C114.539 40.3646 114.312 40.5292 114.06 40.6453L103.651 45.436C103.399 45.5536 103.125 45.62 102.847 45.6313C102.569 45.6426 102.291 45.5986 102.029 45.5018C101.768 45.405 101.529 45.2573 101.325 45.0674C101.121 44.8774 100.957 44.6489 100.842 44.3951Z" fill="#FFC9CE"/>
</g>
<defs>
<linearGradient id="paint0_linear_735_8411" x1="41.3476" y1="81.253" x2="119.453" y2="81.253" gradientUnits="userSpaceOnUse">
<stop stop-color="white" stop-opacity="0"/>
<stop offset="1" stop-color="white"/>
</linearGradient>
</defs>
</svg>
