<svg width="43" height="43" viewBox="0 0 43 43" fill="none" xmlns="http://www.w3.org/2000/svg">
<g id="icon/profil/achats">
<path id="Vector" d="M37.625 8.0625H5.375C4.66223 8.0625 3.97865 8.34565 3.47465 8.84965C2.97065 9.35365 2.6875 10.0372 2.6875 10.75V32.25C2.6875 32.9628 2.97065 33.6463 3.47465 34.1503C3.97865 34.6544 4.66223 34.9375 5.375 34.9375H37.625C38.3378 34.9375 39.0213 34.6544 39.5253 34.1503C40.0294 33.6463 40.3125 32.9628 40.3125 32.25V10.75C40.3125 10.0372 40.0294 9.35365 39.5253 8.84965C39.0213 8.34565 38.3378 8.0625 37.625 8.0625ZM37.625 10.75V14.7812H5.375V10.75H37.625ZM5.375 32.25V17.4688H37.625V32.25H5.375Z" fill="#121212"/>
<path id="Vector_2" d="M8.0625 26.875H21.5V29.5625H8.0625V26.875Z" fill="#0970E6"/>
</g>
</svg>
