<svg width="43" height="43" viewBox="0 0 43 43" fill="none" xmlns="http://www.w3.org/2000/svg">
<g id="icon/profil/avantages">
<path id="Vector" d="M26.5167 14.3334L28.6667 16.4834L16.4833 28.6667L14.3333 26.5167L26.5167 14.3334ZM7.16668 7.16669H35.8333C37.8221 7.16669 39.4167 8.76127 39.4167 10.75V17.9167C38.4663 17.9167 37.5549 18.2942 36.8829 18.9662C36.2109 19.6382 35.8333 20.5497 35.8333 21.5C35.8333 22.4504 36.2109 23.3618 36.8829 24.0338C37.5549 24.7058 38.4663 25.0834 39.4167 25.0834V32.25C39.4167 34.2388 37.8221 35.8334 35.8333 35.8334H7.16668C6.21632 35.8334 5.30488 35.4558 4.63288 34.7838C3.96087 34.1118 3.58334 33.2004 3.58334 32.25V25.0834C5.57209 25.0834 7.16668 23.4888 7.16668 21.5C7.16668 20.5497 6.78915 19.6382 6.11714 18.9662C5.44514 18.2942 4.5337 17.9167 3.58334 17.9167V10.75C3.58334 9.79966 3.96087 8.88823 4.63288 8.21622C5.30488 7.54422 6.21632 7.16669 7.16668 7.16669ZM7.16668 10.75V15.3009C8.25543 15.9287 9.15965 16.8321 9.78834 17.9204C10.417 19.0086 10.748 20.2432 10.748 21.5C10.748 22.7568 10.417 23.9914 9.78834 25.0797C9.15965 26.1679 8.25543 27.0714 7.16668 27.6992V32.25H35.8333V27.6992C34.7446 27.0714 33.8404 26.1679 33.2117 25.0797C32.583 23.9914 32.252 22.7568 32.252 21.5C32.252 20.2432 32.583 19.0086 33.2117 17.9204C33.8404 16.8321 34.7446 15.9287 35.8333 15.3009V10.75H7.16668ZM17.0208 14.3334C18.5079 14.3334 19.7083 15.5338 19.7083 17.0209C19.7083 18.5079 18.5079 19.7084 17.0208 19.7084C15.5338 19.7084 14.3333 18.5079 14.3333 17.0209C14.3333 15.5338 15.5338 14.3334 17.0208 14.3334ZM25.9792 23.2917C27.4663 23.2917 28.6667 24.4921 28.6667 25.9792C28.6667 27.4663 27.4663 28.6667 25.9792 28.6667C24.4921 28.6667 23.2917 27.4663 23.2917 25.9792C23.2917 24.4921 24.4921 23.2917 25.9792 23.2917Z" fill="#121212"/>
</g>
</svg>
