<svg width="43" height="43" viewBox="0 0 43 43" fill="none" xmlns="http://www.w3.org/2000/svg">
<g id="icon/profil/compte">
<path id="Vector" d="M21.5 23.2917C23.2319 23.2917 24.7101 22.6795 25.9344 21.4552C27.1587 20.2309 27.7708 18.7528 27.7708 17.0208C27.7708 15.2889 27.1587 13.8108 25.9344 12.5865C24.7101 11.3622 23.2319 10.75 21.5 10.75C19.7681 10.75 18.2899 11.3622 17.0656 12.5865C15.8413 13.8108 15.2292 15.2889 15.2292 17.0208C15.2292 18.7528 15.8413 20.2309 17.0656 21.4552C18.2899 22.6795 19.7681 23.2917 21.5 23.2917ZM8.95833 37.625C7.97292 37.625 7.12964 37.2744 6.4285 36.5733C5.72736 35.8722 5.37619 35.0283 5.375 34.0417V8.95833C5.375 7.97292 5.72617 7.12964 6.4285 6.4285C7.13083 5.72736 7.97411 5.37619 8.95833 5.375H34.0417C35.0271 5.375 35.871 5.72617 36.5733 6.4285C37.2756 7.13083 37.6262 7.97411 37.625 8.95833V34.0417C37.625 35.0271 37.2744 35.871 36.5733 36.5733C35.8722 37.2756 35.0283 37.6262 34.0417 37.625H8.95833ZM8.95833 34.0417H34.0417V31.9813C32.4292 30.3986 30.5557 29.1522 28.4212 28.242C26.2867 27.3319 23.9797 26.8762 21.5 26.875C19.0203 26.8738 16.7133 27.3295 14.5788 28.242C12.4443 29.1546 10.5708 30.401 8.95833 31.9813V34.0417Z" fill="#121212"/>
</g>
</svg>
