<svg width="43" height="43" viewBox="0 0 43 43" fill="none" xmlns="http://www.w3.org/2000/svg">
<g id="icon/profil/infos">
<path id="Vector" d="M5.375 1.79169H27.6167L37.625 11.7999V41.2084H5.375V1.79169ZM8.95833 5.37502V37.625H34.0417V13.2834L26.1333 5.37502H8.95833ZM21.5 16.125C20.7872 16.125 20.1037 16.4082 19.5996 16.9122C19.0956 17.4162 18.8125 18.0998 18.8125 18.8125C18.8125 19.5253 19.0956 20.2089 19.5996 20.7129C20.1037 21.2169 20.7872 21.5 21.5 21.5C22.2128 21.5 22.8963 21.2169 23.4003 20.7129C23.9044 20.2089 24.1875 19.5253 24.1875 18.8125C24.1875 18.0998 23.9044 17.4162 23.4003 16.9122C22.8963 16.4082 22.2128 16.125 21.5 16.125ZM15.2292 18.8125C15.2292 17.989 15.3914 17.1736 15.7065 16.4128C16.0216 15.652 16.4836 14.9607 17.0659 14.3784C17.6482 13.7961 18.3394 13.3342 19.1003 13.019C19.8611 12.7039 20.6765 12.5417 21.5 12.5417C22.3235 12.5417 23.1389 12.7039 23.8997 13.019C24.6606 13.3342 25.3518 13.7961 25.9341 14.3784C26.5164 14.9607 26.9784 15.652 27.2935 16.4128C27.6086 17.1736 27.7708 17.989 27.7708 18.8125C27.7708 20.4756 27.1102 22.0707 25.9341 23.2467C24.7581 24.4227 23.1631 25.0834 21.5 25.0834C19.8369 25.0834 18.2419 24.4227 17.0659 23.2467C15.8898 22.0707 15.2292 20.4756 15.2292 18.8125ZM10.75 34.0417C10.75 32.141 11.5051 30.3181 12.8491 28.9741C14.1931 27.6301 16.0159 26.875 17.9167 26.875H25.0833C26.9841 26.875 28.8069 27.6301 30.1509 28.9741C31.4949 30.3181 32.25 32.141 32.25 34.0417V35.8334H28.6667V34.0417C28.6667 33.0913 28.2891 32.1799 27.6171 31.5079C26.9451 30.8359 26.0337 30.4584 25.0833 30.4584H17.9167C16.9663 30.4584 16.0549 30.8359 15.3829 31.5079C14.7109 32.1799 14.3333 33.0913 14.3333 34.0417V35.8334H10.75V34.0417Z" fill="#121212"/>
</g>
</svg>
