<svg width="72" height="58" viewBox="0 0 72 58" fill="none" xmlns="http://www.w3.org/2000/svg">
<g id="icon/arrow">
<path id="Vector" d="M40.0789 1.54554C41.0433 0.555931 42.3512 0 43.715 0C45.0787 0 46.3866 0.555931 47.351 1.54554L70.4942 25.2998C71.4584 26.2897 72 27.6321 72 29.0319C72 30.4316 71.4584 31.774 70.4942 32.7639L47.351 56.5182C46.381 57.4798 45.0819 58.0118 43.7335 57.9998C42.385 57.9878 41.0951 57.4326 40.1415 56.4539C39.188 55.4752 38.6471 54.1512 38.6354 52.7671C38.6237 51.3831 39.1421 50.0497 40.0789 49.0541L54.0008 34.3106L5.14294 34.3106C3.77894 34.3106 2.47082 33.7544 1.50633 32.7645C0.541844 31.7745 0 30.4319 0 29.0319C0 27.6319 0.541844 26.2892 1.50633 25.2992C2.47082 24.3093 3.77894 23.7531 5.14294 23.7531L54.0008 23.7531L40.0789 9.00966C39.1147 8.01975 38.5731 6.67733 38.5731 5.2776C38.5731 3.87787 39.1147 2.53545 40.0789 1.54554Z" fill="#0970E6"/>
</g>
</svg>
