<svg width="18" height="13" viewBox="0 0 18 13" fill="none" xmlns="http://www.w3.org/2000/svg">
<g id="Group">
<path id="Vector" d="M13.5834 7.525L13.1451 7.97C13.262 8.08502 13.4194 8.14948 13.5834 8.14948C13.7474 8.14948 13.9048 8.08502 14.0217 7.97L13.5834 7.525ZM13.1376 10.7808C12.7234 10.4758 12.2392 10.0758 11.8651 9.645C11.4734 9.19417 11.2917 8.81167 11.2917 8.53H10.0417C10.0417 9.27834 10.4784 9.955 10.9217 10.465C11.3817 10.995 11.9484 11.4567 12.3967 11.7875L13.1376 10.7808ZM11.2917 8.53C11.2917 7.89917 11.5776 7.59917 11.8451 7.50334C12.1259 7.40167 12.6117 7.445 13.1451 7.97L14.0217 7.07917C13.2434 6.3125 12.2701 6.02084 11.4209 6.3275C10.5584 6.63834 10.0417 7.4875 10.0417 8.53H11.2917ZM14.7701 11.7875C15.2184 11.4575 15.7851 10.995 16.2451 10.465C16.6884 9.95417 17.1251 9.27834 17.1251 8.53H15.8751C15.8751 8.81084 15.6934 9.19417 15.3017 9.645C14.9267 10.0758 14.4434 10.4758 14.0292 10.7808L14.7701 11.7875ZM17.1251 8.53C17.1251 7.4875 16.6084 6.63834 15.7459 6.3275C14.8959 6.02084 13.9234 6.3125 13.1451 7.07917L14.0217 7.97C14.5551 7.445 15.0409 7.40167 15.3217 7.50334C15.5892 7.59917 15.8751 7.9 15.8751 8.53H17.1251ZM12.3967 11.7875C12.7117 12.0192 13.0651 12.3083 13.5834 12.3083V11.0583C13.5667 11.0583 13.5534 11.0592 13.5026 11.0325C13.3755 10.9568 13.2535 10.8727 13.1376 10.7808L12.3967 11.7875ZM14.0292 10.7808C13.9128 10.8728 13.7911 10.9569 13.6634 11.0325C13.6134 11.0592 13.6001 11.0583 13.5834 11.0583V12.3083C14.1017 12.3083 14.4551 12.0192 14.7701 11.7875L14.0292 10.7808Z" fill="black"/>
<path id="Vector_2" d="M16.5 1H1.5M16.5 4.33333H1.5M7.33333 7.66667H1.5M7.33333 11H1.5" stroke="black" stroke-width="1.5" stroke-linecap="round"/>
</g>
</svg>
